<?xml version="1.0" standalone="no"?>
<!DOCTYPE svg PUBLIC "-//W3C//DTD SVG 1.1//EN" "http://www.w3.org/Graphics/SVG/1.1/DTD/svg11.dtd" >
<svg xmlns="http://www.w3.org/2000/svg" xmlns:xlink="http://www.w3.org/1999/xlink" version="1.1">
<metadata></metadata>
<defs>
<font id="linux_libertine_oitalic" horiz-adv-x="0" >
<font-face units-per-em="2048" ascent="1638" descent="-410" />
<missing-glyph horiz-adv-x="512" />
<glyph unicode="&#x2e;&#x2e;&#x2e;" horiz-adv-x="1533" d="M1339 195q40 0 67.5 -26.5t27.5 -64.5q0 -48 -37.5 -87.5t-89.5 -39.5q-40 0 -67.5 27.5t-27.5 67.5q0 44 37 83.5t90 39.5zM799 195q40 0 67 -26.5t27 -64.5q0 -48 -37.5 -87.5t-89.5 -39.5q-40 0 -67 27.5t-27 67.5q0 44 37 83.5t90 39.5zM256 195q40 0 67 -26.5 t27 -64.5q0 -48 -37.5 -87.5t-89.5 -39.5q-40 0 -67 27.5t-27 67.5q0 44 37 83.5t90 39.5z" />
<glyph unicode="&#x21;&#x21;" horiz-adv-x="841" d="M870 1352q46 0 73 -39.5t13 -110.5q-15 -75 -63 -203t-68 -192q-76 -244 -102 -371q-13 -41 -39 -41t-22 27q1 12 9 77t18 151.5t16 156.5q6 73 7.5 194t16.5 201q16 77 58 113.5t83 36.5zM514 88q9 46 48 78.5t83 32.5t70.5 -32.5t17.5 -78.5q-7 -44 -46 -76t-85 -32 q-44 0 -70 32t-18 76zM494 1348q45 0 72 -39t14 -111q-15 -75 -63 -203t-68 -192q-23 -76 -43.5 -147.5t-31.5 -111t-20 -75t-10 -39.5q-11 -41 -37 -41q-27 0 -22 27q0 3 17.5 147t25.5 240q6 72 7.5 194t16.5 201q16 75 58.5 112.5t83.5 37.5zM137 84q9 44 48 76.5 t83 32.5q46 0 71.5 -32.5t16.5 -76.5q-9 -45 -47.5 -77t-83.5 -32q-44 0 -70 32.5t-18 76.5z" />
<glyph unicode="&#x3f;&#x3f;" horiz-adv-x="1599" d="M322 1065q0 39 24.5 86t70.5 92.5t124.5 76t173.5 30.5q138 0 220.5 -67t82.5 -179q0 -68 -25 -128.5t-63 -102t-86 -80.5t-91.5 -65.5t-82.5 -56.5t-56 -55q-48 -66 -65 -149l-14 -90q-3 -21 -31 -21q-11 0 -17.5 5.5t-5.5 15.5l17 94q15 78 42.5 140t60.5 101t69 72 t69 61.5t60 59.5t43 76.5t16 103.5q0 85 -49.5 144t-124.5 59q-99 0 -156 -42t-57 -93q0 -18 10 -35q6 -12 6 -28q0 -34 -26 -63.5t-70 -29.5q-27 0 -48 15.5t-21 52.5zM487 195q40 0 67.5 -26.5t27.5 -64.5q0 -48 -37.5 -87.5t-89.5 -39.5q-40 0 -67.5 27.5t-27.5 67.5 q0 44 37 83.5t90 39.5zM1092 1065q0 39 24.5 86t70.5 92.5t124.5 76t173.5 30.5q138 0 220.5 -67t82.5 -179q0 -68 -25 -128.5t-63 -102t-86 -80.5t-91.5 -65.5t-82.5 -56.5t-56 -55q-48 -66 -65 -149l-14 -90q-3 -21 -31 -21q-11 0 -17.5 5.5t-5.5 15.5l17 94 q15 78 42.5 140t60.5 101t69 72t69 61.5t60 59.5t43 76.5t16 103.5q0 85 -49.5 144t-124.5 59q-99 0 -156 -42t-57 -93q0 -18 10 -35q6 -12 6 -28q0 -34 -26 -63.5t-70 -29.5q-27 0 -48 15.5t-21 52.5zM1257 195q40 0 67.5 -26.5t27.5 -64.5q0 -48 -37.5 -87.5t-89.5 -39.5 q-40 0 -67.5 27.5t-27.5 67.5q0 44 37 83.5t90 39.5z" />
<glyph unicode="&#x3f;&#x21;" horiz-adv-x="1216" d="M299 1065q0 39 24.5 86t70.5 92.5t124.5 76t173.5 30.5q138 0 220.5 -67t82.5 -179q0 -81 -34 -150t-87 -116t-107 -84t-105 -73.5t-70 -64.5q-50 -68 -66 -149l-14 -90q-3 -21 -31 -21q-11 0 -17 5.5t-5 15.5l16 94q15 78 43 140t60.5 101t68.5 72t69.5 61.5t60.5 59.5 t43 76.5t16 103.5q0 85 -49.5 144t-124.5 59q-99 0 -156 -42t-57 -93q0 -18 10 -35q6 -12 6 -28q0 -34 -26 -63.5t-70 -29.5q-28 0 -49 15.5t-21 52.5zM465 195q40 0 67 -26.5t27 -64.5q0 -48 -37.5 -87.5t-89.5 -39.5q-40 0 -67 27.5t-27 67.5q0 44 37 83.5t90 39.5z M932 86q9 44 47 76.5t82 32.5q39 0 65.5 -26.5t26.5 -64.5q0 -3 -1 -9t-1 -9q-8 -44 -45.5 -76.5t-83.5 -32.5q-40 0 -66 26.5t-26 64.5q0 3 1 9t1 9zM1268 1366q38 0 65 -29t27 -82q0 -24 -4 -38q-10 -59 -28 -116.5t-46.5 -136.5t-48.5 -145q-69 -241 -96 -370 q-11 -41 -37 -41q-25 0 -25 22v4q35 359 37 385q6 82 6 139q0 17 -1 47t-1 44q0 89 14 168q14 75 55.5 112t82.5 37z" />
<glyph unicode="&#x21;&#x3f;" horiz-adv-x="1202" d="M672 1061q0 39 24.5 86t70.5 92.5t124.5 76t173.5 30.5q138 0 220.5 -67t82.5 -179q0 -81 -34 -150t-87 -116t-107 -84t-105 -73.5t-70 -64.5q-50 -68 -66 -149l-14 -90q-3 -21 -31 -21q-11 0 -17.5 5.5t-5.5 15.5l17 94q15 78 42.5 140t60.5 101t69 72t69 61.5t60 59.5 t43 76.5t16 103.5q0 85 -49.5 144t-124.5 59q-99 0 -156 -42t-57 -93q0 -18 10 -35q7 -14 7 -29q0 -34 -26.5 -63t-70.5 -29q-27 0 -48 15.5t-21 52.5zM838 190q40 0 67 -26t27 -64q0 -48 -37.5 -87.5t-89.5 -39.5q-40 0 -67 27.5t-27 67.5q0 44 37 83t90 39zM180 82 q9 44 47 76t82 32q40 0 66 -26t26 -64q0 -3 -1 -9t-1 -9q-8 -44 -45.5 -76.5t-83.5 -32.5q-40 0 -66 26t-26 64q0 3 1 9.5t1 9.5zM516 1362q38 0 65 -29t27 -82q0 -25 -4 -39q-10 -59 -28 -116t-46.5 -136t-48.5 -145q-69 -238 -96 -371q-11 -41 -37 -41q-24 0 -24 23v4 q31 313 36 385q7 96 7 139q0 17 -1 46.5t-1 43.5q0 89 14 168q14 75 55 112.5t82 37.5z" />
<glyph unicode="&#xb0;C" horiz-adv-x="1636" d="M1106 -33q-93 0 -173.5 23.5t-138.5 64.5t-102 97.5t-65 122.5t-28.5 139t9.5 147q29 145 98 264t163.5 198t210 122t237.5 43q97 0 171 -12t107.5 -26.5t64 -26.5t50.5 -13q-21 -152 -18 -307l-62 -8q-24 323 -321 323q-44 0 -89 -9.5t-97.5 -30.5t-101 -61.5t-93 -96.5 t-80 -141t-55.5 -189q-23 -105 -9 -202.5t52.5 -171.5t112.5 -118.5t169 -44.5q130 0 227.5 49t225.5 177l41 -31q-127 -142 -245.5 -211.5t-260.5 -69.5zM651 1141q12 56 -15 102.5t-91 46.5q-63 0 -108.5 -45.5t-55.5 -103.5q-11 -58 17 -102t89 -44q62 0 108 44.5 t56 101.5zM311 1143q17 85 88.5 145t155.5 60t132.5 -60t33.5 -145q-17 -85 -88.5 -145t-155.5 -60t-132.5 60t-33.5 145z" />
<glyph unicode="&#xb0;F" horiz-adv-x="1642" d="M1176 1032l-78 -401h270q51 0 75 21.5t46 70.5l27 59q4 19 18 19h45q7 0 4 -10q-3 -9 -12.5 -39.5t-15.5 -50.5t-13.5 -50.5t-11.5 -54.5q-16 -79 -23 -197l-6 -6h-47q-14 0 -14 15l2 63q0 47 -18.5 68.5t-67.5 21.5h-273l-79 -414q-9 -48 12.5 -69t81.5 -21h53 q17 0 14 -16l-8 -39l-4 -4l-256 4l-264 -4l-4 4l8 39q3 16 18 16h54q61 0 91.5 22.5t39.5 67.5l172 885q8 48 -10 69t-80 21h-62q-12 0 -12 15l8 41l8 4l254 -4l154 2l510 2q-21 -167 -21 -320l-61 -8q-7 53 -11.5 80t-17.5 65t-31 56t-50 31.5t-77 13.5h-249q-74 0 -88 -68 zM651 1141q12 56 -15 102.5t-91 46.5q-63 0 -108.5 -45.5t-55.5 -103.5q-11 -58 17 -102t89 -44q62 0 108 44.5t56 101.5zM311 1143q17 85 88.5 145t155.5 60t132.5 -60t33.5 -145q-17 -85 -88.5 -145t-155.5 -60t-132.5 60t-33.5 145z" />
<glyph unicode="ffj" horiz-adv-x="1677" d="M1294 799h-219l-6 -35q-127 -721 -205 -934q-24 -66 -53 -106q-46 -64 -109 -96.5t-129 -32.5q-97 0 -143 27.5t-46 66.5q0 30 18.5 51.5t57.5 21.5q31 0 59 -20.5t44 -45.5q8 -12 12 -17.5t14 -11t23 -5.5q23 0 51 18t45 45q39 61 66 199.5t52.5 344.5t43.5 300l43 230 h-143h-18h-201l-6 -35q-31 -179 -97 -498q-60 -293 -99.5 -429t-82.5 -195q-46 -64 -108.5 -96.5t-128.5 -32.5q-97 0 -143.5 27.5t-46.5 66.5q0 30 18.5 52t57.5 22q31 0 59 -21t44 -46q8 -12 12.5 -18t14.5 -11t23 -5q23 0 49.5 17.5t43.5 44.5q12 19 23.5 45.5t21.5 62 t18.5 66.5t17 79.5t14.5 79t14 85.5t11 79t10.5 80.5t9.5 69.5q16 125 84 510h-168q-12 0 -12 4q0 11 8 35q8 31 57 34l136 7q5 27 11 54.5t23.5 82.5t39 102t59 101t82 91.5t109 63t138.5 25.5q47 0 131 -25t122 -62q7 8 23 22q111 98 271 98q73 0 145 -37.5t115 -90.5 t43 -100q0 -49 -30.5 -80.5t-67.5 -31.5q-38 0 -62 25.5t-24 68.5q0 64 -5 84.5t-32 56.5q-14 19 -43.5 28t-58.5 9q-124 0 -199 -131q-22 -40 -40.5 -87t-30 -91.5t-18.5 -78t-12 -64.5t-5 -33h223q78 0 193.5 7t131.5 7q42 0 42 -43q0 -15 -5.5 -45t-15 -74t-14.5 -75 l-29 -177q-43 -258 -91.5 -436t-118.5 -287q-100 -157 -247 -157q-72 0 -120 25.5t-48 72.5q0 30 18.5 46.5t41.5 16.5q34 0 57 -14t32.5 -30t23.5 -30t32 -14q37 0 79.5 48t72.5 165q21 83 47.5 242.5t40.5 232.5l57 297q10 53 10 103q0 15 -13.5 22.5t-41.5 11.5 q-33 5 -154 5zM1031 1185q-23 17 -48 56q-19 29 -33 45t-41.5 30.5t-62.5 14.5q-18 0 -39 -5.5t-52.5 -25.5t-59 -52.5t-55.5 -94.5t-46 -143l-29 -131h242h12h111q37 185 101 306z" />
<glyph unicode="fj" horiz-adv-x="1196" d="M969 657q10 53 10 103q0 15 -13.5 22.5t-41.5 11.5q-33 5 -154 5h-219l-6 -35q-135 -768 -226 -1016q-24 -66 -53 -106q-46 -64 -108.5 -96.5t-128.5 -32.5q-97 0 -143.5 27.5t-46.5 66.5q0 30 18.5 52t57.5 22q31 0 59 -21t44 -46q8 -12 12.5 -18t14.5 -11t23 -5 q23 0 50.5 18t44.5 45q39 61 71 218t64 389.5t48 318.5l43 230h-162q-12 0 -12 4q0 11 8 35q8 31 60 34l123 7q66 324 213 455q111 98 272 98q73 0 145 -37.5t115 -90.5t43 -100q0 -49 -30.5 -80.5t-67.5 -31.5q-38 0 -62 25.5t-24 68.5q0 64 -5 84.5t-32 56.5 q-14 19 -44 28t-59 9q-123 0 -198 -131q-22 -40 -40.5 -87t-30 -91.5t-18.5 -77.5t-12.5 -65t-5.5 -33h223q78 0 194 7t132 7q42 0 42 -43q0 -15 -5.5 -45t-15 -74t-14.5 -75l-29 -177q-43 -257 -92 -435.5t-119 -287.5q-100 -157 -246 -157q-72 0 -120 25.5t-48 72.5 q0 30 18 46.5t41 16.5q34 0 57.5 -14t32.5 -30t23.5 -30t32.5 -14q37 0 79 48t72 165q21 83 47.5 242.5t40.5 232.5z" />
<glyph unicode="fk" horiz-adv-x="1632" d="M1051 1178q-1 48 -64 126q-47 58 -106 58q-90 0 -171 -91q-87 -96 -122 -276l-23 -116h226q14 0 14 -11l-10 -45q-3 -11 -20.5 -17.5t-33.5 -6.5h-190l-6 -35q-31 -179 -97 -498q-60 -293 -99.5 -429t-82.5 -195q-46 -64 -108.5 -96.5t-128.5 -32.5q-97 0 -143.5 27.5 t-46.5 66.5q0 30 18.5 52t57.5 22q27 0 54 -18t42 -39q1 -1 5.5 -8.5t5.5 -8.5t5 -7t6 -7t6.5 -5t8 -5t9 -2t11.5 -1q23 0 49.5 17.5t43.5 44.5q12 19 23.5 45.5t21.5 62t18.5 66.5t17 79.5t14.5 79t14 85.5t11 79t10.5 80.5t9.5 69.5q16 125 84 510h-168q-12 0 -12 4 q0 11 8 35q8 31 57 34l136 7q46 322 210 456q117 95 281 95q53 0 116.5 -19.5t89.5 -42.5q66 37 132 62q25 0 25 -21q-21 -82 -52 -215l-147 -637q47 0 121 63l82 70q111 99 200 154t138 55q100 0 100 -72q0 -43 -33.5 -72.5t-60.5 -29.5q-37 0 -64 14.5t-51 14.5 q-56 0 -197 -127l-106 -95v-8q25 -7 41 -15t29.5 -24t20.5 -28t22 -43q11 -22 45.5 -104.5t66.5 -145.5q1 -3 6.5 -13.5t7 -13.5t6 -11.5t7 -11.5l7.5 -9t8.5 -8.5t8.5 -5.5t11 -4t12 -1q17 0 46 27t60 71q16 0 24 -5.5t21 -20.5q-102 -178 -206 -178q-61 0 -105.5 48 t-96.5 162q-19 42 -50.5 135t-51.5 128q-18 33 -40 33q-27 0 -46 -7l-73 -332q-3 -13 -7 -38.5t-7 -39.5t-9.5 -33.5t-15 -30t-22.5 -18t-33 -7.5q-46 0 -65 14t-19 41q0 9 4.5 27t11.5 44t10 41z" />
<glyph unicode="ft" horiz-adv-x="1251" d="M161 -358q26 41 50 128.5t36.5 160.5t31 196.5t24.5 161.5q2 12 28.5 191.5t55.5 318.5h-172q-10 0 -10 4q0 11 8 35q8 31 57 34l136 7q22 105 48 186.5t47 129.5t48 86.5t44 55.5t42 37q30 24 73 40t76 16q95 0 158.5 -35t63.5 -92q0 -29 -20.5 -50.5t-53.5 -21.5 q-44 0 -63 26.5t-27 69.5t-74 43q-52 0 -92 -74q-46 -84 -88 -301l-23 -116h439l26 102q4 17 9.5 46t10 46.5t12.5 37t22.5 29t35.5 9.5q47 0 64.5 -13.5t17.5 -41.5q0 -13 -26 -123l-21 -92h203q16 -12 7.5 -42t-28.5 -38h-200l-121 -539q-23 -99 -23 -129q0 -16 9.5 -22.5 t17.5 -6.5q27 0 62 26t102 101q36 0 45 -39q-51 -92 -138.5 -151t-158.5 -59q-51 0 -76 20.5t-25 73.5q0 40 29 168l125 557h-434l-6 -35q-31 -179 -97 -498q-60 -292 -99.5 -428t-82.5 -196q-46 -64 -108.5 -96.5t-128.5 -32.5q-97 0 -143.5 27.5t-46.5 66.5q0 30 18.5 52 t57.5 22q31 0 59 -21t44 -46q8 -12 12.5 -18t14.5 -11t23 -5q23 0 49.5 17.5t43.5 44.5z" />
<glyph unicode="tt" horiz-adv-x="1241" d="M1135 879h204q16 -12 8 -42t-28 -38h-201l-127 -543q-24 -113 -24 -133q0 -16 9 -22.5t17 -6.5q26 0 63 29t105 106q36 0 45 -39q-42 -71 -97.5 -120t-105 -69.5t-94.5 -20.5q-100 0 -100 94q0 37 27 164l129 561h-447l-121 -520q-20 -82 -20 -121q0 -64 39 -64 q30 0 77.5 24.5t90.5 59.5q22 -9 34 -39q-56 -72 -134 -115.5t-146 -43.5q-123 0 -123 126q0 24 10 76l140 617h-144q-12 0 -12 4q0 11 8 35q8 31 57 34l109 7l27 102q4 17 9.5 46.5t10 47t12.5 37t22.5 28.5t35.5 9q47 0 64.5 -13.5t17.5 -41.5q0 -11 -4.5 -32.5 t-12.5 -50.5t-10 -40l-20 -92h448l27 102q4 17 9.5 46.5t10 47t12.5 37t22.5 28.5t35.5 9q47 0 64.5 -13.5t17.5 -41.5q0 -11 -4.5 -32.5t-12 -50t-10.5 -40.5z" />
<glyph unicode="Qu" horiz-adv-x="2453" d="M1077 -250q133 -49 226.5 -70.5t195.5 -21.5q76 0 185.5 29.5t209.5 83.5l25 -37q-109 -92 -256.5 -146.5t-294.5 -54.5q-245 0 -446 98q-153 73 -256.5 103t-202.5 30q-49 0 -106 -40q-37 -38 -72 -78l-74 47q86 98 274 227q49 34 110 65q-189 25 -302.5 156t-113.5 339 q0 69 16 155q39 199 146.5 361.5t263 257t327.5 94.5q227 0 371 -143t144 -380q0 -71 -15 -151q-54 -278 -228.5 -463.5t-417.5 -222.5q-118 -32 -256 -123l-21 -15q32 5 60 5q227 0 508 -105zM2423 721l-115 -467q-22 -97 -22 -117q0 -35 20 -35q16 0 55.5 29.5t77.5 73.5 q35 0 47 -35q-148 -190 -284 -190q-43 0 -59.5 17.5t-16.5 49.5q0 61 35 189l22 79l-6 4q-61 -90 -103.5 -144.5t-93.5 -103t-101.5 -70t-109.5 -21.5t-98 40.5t-39 122.5q0 59 21 138l90 344q26 98 26 116q0 35 -20 35q-17 0 -60.5 -30t-80.5 -72q-35 0 -47 35 q70 90 152.5 140t156.5 50q42 0 58 -17.5t16 -50.5q0 -17 -6.5 -47t-19 -76t-17.5 -65l-89 -334q-18 -71 -18 -131q0 -76 61 -76q71 0 150 95t205 309l59 225q4 16 9.5 46.5t10 47.5t13 36.5t24 28.5t37.5 9q47 0 66.5 -13.5t19.5 -41.5q0 -11 -5 -33t-11.5 -49t-9.5 -41z M893 1278q-70 0 -144 -35.5t-146 -106t-131.5 -191.5t-88.5 -275q-18 -92 -18 -171q0 -209 105 -329.5t261 -120.5q173 0 316 158.5t196 427.5q21 112 21 205q0 213 -100 325.5t-271 112.5z" />
<glyph unicode="Th" horiz-adv-x="1968" d="M469 1321h758q58 0 148.5 18t137.5 35q25 0 25 -20q-21 -82 -51 -215l-110 -501q131 153 221.5 207t179.5 54q135 0 135 -164q0 -33 -27 -155l-78 -326q-22 -97 -22 -117q0 -35 20 -35q16 0 55.5 29.5t77.5 73.5q36 0 48 -35q-148 -190 -285 -190q-84 0 -84 67 q0 45 35 189l78 327q20 88 20 137q0 44 -18 60t-54 16q-54 0 -145 -79.5t-191 -209.5l-78 -340q-3 -14 -7.5 -39t-7.5 -39.5t-9.5 -33.5t-14.5 -29.5t-22 -18t-33 -7.5q-46 0 -64.5 14t-18.5 41q0 9 4 26.5t11.5 45.5t10.5 40l209 951q14 63 14 102q0 18 -11.5 29.5 t-31.5 11.5h-295q-54 0 -77 -17.5t-33 -68.5l-195 -999q-9 -47 11 -68.5t79 -26.5l70 -6q4 -8 1.5 -30.5t-7.5 -28.5q-180 4 -260 4q-62 0 -246 -4q-6 14 -4 33.5t8 25.5l64 6q61 6 89.5 28.5t37.5 66.5l194 1005q8 46 -7.5 63t-74.5 17h-141q-82 0 -128.5 -37t-90.5 -138 q-40 0 -62 14q71 172 97 268q9 -1 61.5 -14t83.5 -13z" />
<glyph unicode="ff" horiz-adv-x="1163" d="M1012 1167h-2q-30 0 -50 15q-5 4 -9 8t-8 10.5t-6.5 10.5t-5.5 13l-4 12t-5 14.5t-4 12.5q-7 20 -12 32t-15.5 26t-27.5 20.5t-40 6.5q-18 0 -38.5 -6.5t-50 -28.5t-56 -57t-53.5 -99t-45 -147l-29 -131h371q37 176 90 288zM1065 799l-8 -35q-16 -70 -55 -246 t-57.5 -254.5t-49.5 -197.5t-57 -190.5t-54 -119.5q-107 -178 -247 -178q-164 0 -164 100q0 8 4 20t21 26t44 14q16 0 30 -7.5t20 -14t18 -21.5q14 -20 28 -30.5t37 -10.5q41 0 78 37q70 70 140 526q15 102 67 352l47 230h-375l-6 -35q-141 -804 -272 -1049 q-113 -202 -258 -202q-95 0 -130.5 30.5t-35.5 71.5q0 8 4.5 19.5t21.5 24.5t44 13q38 0 67 -41q12 -15 18 -21.5t20 -14t30 -7.5q22 0 38 7.5t40 31.5q75 75 153 602q11 75 37.5 196t30.5 144l43 230h-141q-11 0 -11 4q0 11 8 35q4 15 18.5 28t39.5 13h104q0 1 4 19.5 t6 28.5t7.5 33.5t11 40.5t13.5 42t17.5 46.5t20.5 46t25 48t29 44.5q122 171 319 171q53 0 127 -36.5t98 -88.5q37 52 78.5 88t79.5 52.5t66 23t53 6.5q85 0 148 -45t63 -103q0 -20 -17.5 -42.5t-54.5 -22.5q-24 0 -41 8t-27 24.5t-14.5 29.5t-9.5 34q-8 34 -19.5 45.5 t-44.5 11.5q-32 0 -77.5 -43t-81.5 -129q-33 -78 -62 -202l-31 -131h226q14 0 14 -11l-10 -45q-3 -11 -21 -17.5t-35 -6.5h-190z" />
<glyph unicode="fi" horiz-adv-x="1155" d="M163 -357q39 61 71 218t64 389.5t48 318.5l43 230h-162q-12 0 -12 4q0 11 8 35q8 31 60 34l123 7q66 324 213 455q111 98 272 98q73 0 145 -37.5t115 -90.5t43 -100q0 -49 -30.5 -80.5t-67.5 -31.5q-38 0 -62 25.5t-24 68.5q0 64 -5 84.5t-32 56.5q-14 19 -44 28t-59 9 q-123 0 -198 -131q-22 -40 -40.5 -87t-30 -91.5t-18.5 -77.5t-12.5 -65t-5.5 -33h223q78 0 173.5 7t111.5 7q42 0 42 -43q0 -16 -5.5 -43.5t-18 -77.5t-17.5 -73l-93 -402q-23 -100 -23 -107q0 -34 21 -34q18 0 57.5 25t75.5 67q35 0 47 -35q-148 -190 -284 -190 q-84 0 -84 67q0 29 34 189l97 421q16 65 16 103q0 15 -13.5 22.5t-41.5 11.5q-33 5 -113 5h-219l-6 -35q-135 -768 -226 -1016q-24 -66 -53 -106q-46 -64 -108.5 -96.5t-128.5 -32.5q-97 0 -143.5 27.5t-46.5 66.5q0 30 18.5 52t57.5 22q31 0 59 -21t44 -46q8 -12 12.5 -18 t14.5 -11t23 -5q23 0 50.5 18t44.5 45z" />
<glyph unicode="fl" horiz-adv-x="1167" d="M1208 1194l-209 -934q-26 -118 -26 -129q0 -29 24 -29q21 0 66 33.5t88 85.5q31 0 45 -35q-124 -206 -297 -206q-88 0 -88 90q0 38 31 174l209 934q-1 48 -64 126q-47 58 -106 58q-90 0 -171 -91q-87 -96 -122 -276l-23 -116h226q14 0 14 -11l-10 -45q-3 -11 -20.5 -17.5 t-33.5 -6.5h-190l-6 -35q-31 -179 -97 -498q-60 -293 -99.5 -429t-82.5 -195q-46 -64 -108.5 -96.5t-128.5 -32.5q-97 0 -143.5 27.5t-46.5 66.5q0 30 18.5 52t57.5 22q27 0 54 -18t42 -39q1 -1 5.5 -8.5t5.5 -8.5t5 -7t6 -7t6.5 -5t8 -5t9 -2t11.5 -1q23 0 49.5 17.5 t43.5 44.5q12 19 23.5 45.5t21.5 62t18.5 66.5t17 79.5t14.5 79t14 85.5t11 79t10.5 80.5t9.5 69.5q16 125 84 510h-168q-12 0 -12 4q0 11 8 35q8 31 57 34l136 7q46 322 210 456q117 95 281 95q53 0 116.5 -19.5t89.5 -42.5q66 37 132 62q25 0 25 -21q-22 -82 -52 -215z " />
<glyph unicode="ffi" horiz-adv-x="1677" d="M1031 1185q-23 17 -48 56q-19 29 -33 45t-41.5 30.5t-62.5 14.5q-18 0 -39 -5.5t-52.5 -25.5t-59 -52.5t-55.5 -94.5t-46 -143l-29 -131h242h12h111q37 185 101 306zM708 -275q39 61 66 199.5t52.5 344.5t43.5 300l43 230h-143h-18h-201l-6 -35q-31 -179 -97 -498 q-60 -293 -99.5 -429t-82.5 -195q-46 -64 -108.5 -96.5t-128.5 -32.5q-97 0 -143.5 27.5t-46.5 66.5q0 30 18.5 52t57.5 22q31 0 59 -21t44 -46q8 -12 12.5 -18t14.5 -11t23 -5q23 0 49.5 17.5t43.5 44.5q12 19 23.5 45.5t21.5 62t18.5 66.5t17 79.5t14.5 79t14 85.5t11 79 t10.5 80.5t9.5 69.5q16 125 84 510h-168q-12 0 -12 4q0 11 8 35q8 31 57 34l136 7q5 27 11 54.5t23.5 82.5t39 102t59 101t82 91.5t109 63t138.5 25.5q47 0 131 -25t122 -62q7 8 23 22q111 98 271 98q73 0 145 -37.5t115 -90.5t43 -100q0 -49 -30.5 -80.5t-67.5 -31.5 q-38 0 -62 25.5t-24 68.5q0 64 -5 84.5t-32 56.5q-14 19 -43.5 28t-58.5 9q-124 0 -199 -131q-22 -40 -40.5 -87t-30 -91.5t-18.5 -78t-12 -64.5t-5 -33h223q78 0 173 7t111 7q42 0 42 -43q0 -16 -5.5 -43.5t-18 -77.5t-17.5 -73l-93 -402q-22 -95 -22 -107q0 -34 20 -34 q18 0 57.5 25t75.5 67q35 0 47 -35q-148 -190 -284 -190q-84 0 -84 67q0 24 35 189l96 421q16 65 16 103q0 15 -13.5 22.5t-41.5 11.5q-33 5 -113 5h-219l-6 -35q-127 -721 -205 -934q-24 -66 -53 -106q-46 -64 -109 -97t-129 -33q-96 0 -142.5 28t-46.5 67q0 30 18.5 51.5 t57.5 21.5q31 0 59 -20.5t44 -45.5q8 -12 12 -17.5t14 -11t23 -5.5q23 0 51 18t45 45z" />
<glyph unicode="ffl" horiz-adv-x="1699" d="M1014 1167h-4q-42 0 -60 22.5t-28 65.5q-10 44 -30.5 68.5t-66.5 24.5q-18 0 -37.5 -6.5t-48.5 -28t-55 -56.5t-53 -99t-47 -148l-31 -131h371q37 176 90 288zM1364 1384q-20 0 -53 -15t-75.5 -57t-66.5 -100q-27 -60 -61 -202l-31 -131h221q13 0 13 -11l-8 -45 q-2 -12 -20 -18t-36 -6h-188l-6 -33q-64 -341 -143.5 -620t-151.5 -400q-104 -178 -252 -178q-164 0 -164 100q0 8 4.5 20.5t21.5 26t44 13.5q16 0 30 -8t19.5 -14t17.5 -21q29 -41 66 -41q23 0 39.5 7.5t38.5 29.5q29 29 61 116.5t65 229t54.5 243t52.5 258.5q5 28 8 41 l45 230h-374l-9 -33q-25 -100 -78.5 -321.5t-80 -324.5t-66 -228t-72.5 -187q-114 -203 -258 -203q-96 0 -134 31.5t-38 71.5q0 8 5 19.5t22 24.5t43 13q37 0 70 -41q10 -14 16 -21t19.5 -14.5t29.5 -7.5q22 0 38 7.5t40 31.5q14 14 29 44t31 77.5t30.5 96t31 118.5 t29.5 123.5t29.5 133.5t26.5 127t25.5 125t21.5 107l47 230h-166q-10 0 -10 4q0 7 8 31q13 36 55 38l127 7q4 23 7.5 39.5t14 57.5t22 73.5t32 78.5t44 81t58 72.5t73 61.5t90.5 40t110 16q54 0 128.5 -36.5t98.5 -88.5q36 52 82.5 88t90.5 52.5t76 23t58 6.5 q52 0 129.5 -26t103.5 -50q66 37 132 62q25 0 25 -21q-22 -82 -52 -215l-209 -934q-26 -118 -26 -129q0 -29 24 -29q21 0 66 33.5t88 85.5q31 0 45 -35q-124 -206 -297 -206q-88 0 -88 90q0 38 31 174l209 934q-1 48 -64 126q-19 23 -33 37t-42.5 28.5t-59.5 14.5z" />
<glyph unicode="&#x17f;t" horiz-adv-x="1241" d="M1006 981q97 379 -138 379q-95 0 -167 -92t-109 -277l-119 -592q-35 -173 -52.5 -256t-48 -205t-60.5 -195.5t-64 -119.5q-74 -100 -234 -100q-54 0 -101.5 28.5t-47.5 65.5q0 32 21 54t46 22q58 0 93 -66q9 -18 19 -24t34 -6q33 0 54 15.5t41 59.5q26 57 43 129 t27.5 149t38.5 252t63 363l37 197q4 23 -5 31.5t-37 10.5l-74 5q-10 23 -9 36.5t17 24.5q85 9 109 20q36 17 45 54q26 109 63 193t91 152.5t131 104.5t174 36q186 0 251 -111.5t13 -347.5l-21 -92h207q13 0 13 -11l-11 -43q-1 -12 -18 -19t-35 -7h-174l-127 -539 q-27 -117 -27 -137q0 -16 9.5 -22.5t17.5 -6.5q26 0 63 29t105 106q36 0 45 -39q-42 -71 -97.5 -120t-105 -69.5t-94.5 -20.5q-100 0 -100 94q0 53 28 168l132 557h-144q-12 0 -12 4q0 11 8 35q8 31 57 34l109 7z" />
<glyph unicode=" "  horiz-adv-x="512" />
<glyph unicode="&#x09;" horiz-adv-x="512" />
<glyph unicode="&#xa0;" horiz-adv-x="512" />
<glyph unicode="!" horiz-adv-x="464" d="M180 82q9 44 47 76t82 32q40 0 66 -26t26 -64q0 -3 -1 -9t-1 -9q-8 -44 -45.5 -76.5t-83.5 -32.5q-40 0 -66 26t-26 64q0 3 1 9.5t1 9.5zM516 1362q38 0 65 -29t27 -82q0 -25 -4 -39q-10 -59 -28 -116t-46.5 -136t-48.5 -145q-69 -238 -96 -371q-11 -41 -37 -41 q-24 0 -24 23v4q31 313 36 385q7 96 7 139q0 17 -1 46.5t-1 43.5q0 89 14 168q14 75 55 112.5t82 37.5z" />
<glyph unicode="&#x22;" horiz-adv-x="688" d="M596 874q2 327 6 345q5 36 42 69t81 33q59 0 59 -53v-15q-3 -15 -36 -107.5t-65 -177.5l-32 -85zM336 872q4 327 6 345q6 36 43 69t82 33q59 0 59 -53q0 -11 -2 -15q-3 -15 -36 -107.5t-65 -177.5l-32 -85z" />
<glyph unicode="#" horiz-adv-x="897" d="M770 698l-76 -225h185l-31 -98h-184l-119 -348h-68l117 348h-225l-117 -348h-68l115 348h-184l32 98h187l74 225h-185l33 101h186l115 348h70l-117 -348h225l117 348h68l-117 -348h184l-33 -101h-184zM629 473l73 225h-225l-76 -225h228z" />
<glyph unicode="$" horiz-adv-x="897" d="M188 20q-14 0 -32 -11t-41 -11q14 78 26 301l56 6q7 -102 62 -175.5t153 -84.5l97 496q-55 27 -92.5 51t-84 66t-64 101t-4.5 130q12 63 51.5 116t93.5 86.5t111 53.5t111 25l22 114h70l-22 -113q41 -2 123.5 -11t111.5 -5q-12 -77 -16 -293l-56 -8l-4 37 q-10 104 -50 156.5t-121 60.5l-86 -438q42 -17 75.5 -33.5t79.5 -49t74.5 -68t44 -88.5t4.5 -112q-4 -20 -9.5 -39.5t-20.5 -54t-34 -64t-51.5 -63.5t-72.5 -58.5t-98.5 -42t-126.5 -21.5l-28 -142h-69l27 142q-63 3 -129.5 23.5t-80.5 20.5zM482 46q35 5 69 18t69.5 37 t62.5 65t38 94q5 42 5.5 73t-12.5 58t-26 45t-35.5 34t-39.5 25.5t-40 18.5zM619 1107q-79 -12 -142 -68t-80 -142q-21 -114 142 -198z" />
<glyph unicode="%" horiz-adv-x="1304" d="M899 158q0 -72 28.5 -105t63.5 -33q54 0 98.5 53t66.5 121t22 128q0 37 -10 63.5t-26 38.5t-30 17t-27 5q-71 0 -128.5 -97t-57.5 -191zM795 186q0 122 80 224t190 102q33 0 62 -9t55.5 -28.5t41.5 -57.5t15 -91q0 -54 -17.5 -116t-48.5 -118.5t-82.5 -93.5t-111.5 -37 q-87 0 -135.5 68.5t-48.5 156.5zM893 1055q82 0 166 24.5t141 85.5l68 -43l-983 -1151l-76 19l876 1028q-95 -39 -211 -39q-37 0 -86.5 13t-78.5 30q6 -24 6 -51q0 -52 -17 -113t-48 -118t-82.5 -94.5t-112.5 -37.5q-90 0 -138.5 67t-48.5 156q0 121 81 223.5t190 102.5 q41 0 80 -15.5t55 -35.5q111 -51 219 -51zM373 803q0 -72 29 -103.5t65 -31.5q52 0 96 51t66 119.5t22 130.5q0 67 -28 95t-64 28q-47 0 -91 -47.5t-69.5 -114.5t-25.5 -127z" />
<glyph unicode="&#x26;" horiz-adv-x="1443" d="M889 1249q-65 0 -129 -64.5t-64 -152.5q0 -63 41 -188q262 156 262 299q0 51 -28 78.5t-82 27.5zM1135 1139q0 -54 -33.5 -110t-91 -105t-116.5 -88t-126 -74q2 -4 14.5 -32.5t27 -58.5t54.5 -105.5t97 -176.5q276 323 276 399q0 23 -25 23h-59q-11 0 -6 14l6 35l4 4 q106 -4 176 -4l180 4l3 -4l-7 -33q-3 -16 -20 -16h-57q-31 0 -58 -17t-62.5 -61t-71 -94t-103 -141.5t-138.5 -178.5l54 -92q34 -65 69.5 -100t63.5 -35q51 0 93 27.5t85 89.5l27 -16q-51 -103 -115.5 -157t-122.5 -54q-28 0 -49.5 4t-50 17t-56 43t-53.5 77l-47 78 q-96 -106 -196.5 -162.5t-221.5 -56.5q-155 0 -246.5 65t-91.5 201q0 156 107 276.5t354 247.5q-55 135 -55 227q0 140 108.5 230t255.5 90q99 0 161.5 -49.5t62.5 -130.5zM637 696q-40 -20 -69.5 -37t-72.5 -46.5t-73.5 -63.5t-59.5 -77.5t-44 -100.5t-15 -121 q0 -102 56 -150.5t147 -48.5q53 0 97 13.5t88 45.5t78.5 65.5t88.5 94.5q-70 123 -141 259t-80 167z" />
<glyph unicode="'" horiz-adv-x="389" d="M315 872q5 327 9 345q5 36 41.5 69t80.5 33q31 0 45.5 -15t14.5 -38v-15q-3 -15 -36 -107.5t-65 -177.5l-32 -85z" />
<glyph unicode="(" horiz-adv-x="626" d="M221 0q-45 148 -45 315q0 85 17 201q49 278 210 514q160 247 390 418l30 -37q-189 -176 -305 -403q-120 -231 -166 -492q-26 -156 -26 -280q0 -111 18 -213q36 -229 162 -406l-43 -35q-178 184 -242 418z" />
<glyph unicode=")" horiz-adv-x="641" d="M639 1032q45 -148 45 -315q0 -92 -16 -201q-53 -281 -211 -516q-166 -250 -389 -416l-31 35q188 177 305 406q120 232 166 491q27 162 27 281q0 102 -19 213q-36 228 -162 405l43 35q177 -183 242 -418z" />
<glyph unicode="*" horiz-adv-x="886" d="M610 1161q-33 8 -86 8q-75 0 -113 14t-38 50v12q5 25 25 43.5t53 18.5q30 0 56 -17.5t58.5 -45t65.5 -42.5v23q0 31 -9.5 78t-9.5 65q0 4 1 11.5t1 11.5q6 33 28.5 56t49.5 23q26 0 41 -14t15 -41v-16q-5 -29 -37 -100t-39 -99q39 16 81 44.5t73 45.5t61 17q57 0 57 -54 v-8q-12 -76 -153 -76q-64 0 -113 -8q19 -27 56 -55.5t60 -52.5t23 -54q0 -10 -2 -16q-4 -26 -25.5 -42.5t-44.5 -16.5q-36 0 -53.5 33t-30 93.5t-24.5 86.5q-21 -28 -56 -91t-62.5 -92.5t-61.5 -29.5q-23 0 -37 14t-14 35v8q7 39 38 65.5t83.5 56.5t82.5 58z" />
<glyph unicode="+" horiz-adv-x="1079" d="M684 524h354l-18 -100h-354l-64 -354h-100l63 354h-354l16 100h357l61 357h100z" />
<glyph unicode="," horiz-adv-x="448" d="M127 92q0 45 36.5 74t84.5 29t79 -36t31 -96q0 -35 -7.5 -71.5t-28 -79t-52.5 -77.5t-85.5 -64t-121.5 -41q-25 20 -17 47q79 18 146.5 76t67.5 102q0 17 -10 28.5t-21 15.5t-32 9q-70 18 -70 84z" />
<glyph unicode="-" horiz-adv-x="681" d="M643 457h-465q-20 0 -20 35q0 24 24.5 56t40.5 32h469q23 0 23 -25t-25 -61.5t-47 -36.5z" />
<glyph unicode="." horiz-adv-x="448" d="M256 195q40 0 67 -26.5t27 -64.5q0 -48 -37.5 -87.5t-89.5 -39.5q-40 0 -67 27.5t-27 67.5q0 44 37 83.5t90 39.5z" />
<glyph unicode="/" horiz-adv-x="595" d="M823 1397l-737 -1440h-86l739 1440h84z" />
<glyph unicode="0" horiz-adv-x="909" d="M705 1178q-29 0 -58.5 -13t-66 -53t-70 -103.5t-68.5 -173.5t-63 -255q-10 -52 -17 -101.5t-13 -114t-1.5 -116.5t17 -98.5t41.5 -72.5t73 -26q17 0 38 6.5t51 23.5t62.5 57.5t59.5 99.5q57 126 115 421q37 209 29.5 325t-48.5 159q-27 35 -81 35zM463 -20 q-114 0 -182 86q-64 84 -82 228t14 308q28 147 84 271.5t125 205t146 125.5t151 45q75 0 129 -37t84 -96q97 -183 37 -495q-27 -138 -74 -250.5t-100.5 -183.5t-114.5 -119t-115 -68t-102 -20z" />
<glyph unicode="1" horiz-adv-x="909" d="M651 250q-8 -44 -11 -72.5t1.5 -50t12.5 -32.5t29 -18.5t42.5 -9.5t60.5 -4q7 -9 3 -33.5t-15 -33.5q-196 4 -239 4q-83 0 -275 -4q-7 9 -2 33.5t16 33.5q48 2 74.5 5.5t55 14t44 30.5t29 53t23.5 84l131 668q24 118 -17 118q-54 0 -180 -51q-23 20 -20 55 q306 137 426 205q4 0 6 -0.5t3.5 -2.5t0.5 -7q-11 -36 -59 -274z" />
<glyph unicode="2" horiz-adv-x="909" d="M303 958q10 47 45 97.5t87.5 94t127 71.5t152.5 28q62 0 116 -18t95.5 -54t58.5 -98t2 -141q-11 -56 -33.5 -103.5t-63.5 -94t-73.5 -77t-95.5 -83.5l-238 -199q-22 -18 -54 -48t-82 -93t-58 -107h350q53 0 91.5 43.5t84.5 153.5q37 7 55 -11q-12 -51 -44.5 -149 t-65.5 -174q-89 4 -152 4h-344l-166 -4q19 99 81 189t227 235l174 149q104 92 158 177t73 184q12 74 7.5 122t-27.5 76t-48 39t-55 11q-97 0 -153.5 -39.5t-65.5 -85.5q-1 -11 -0.5 -16.5t3 -17t3.5 -15.5q4 -27 0 -43q-6 -31 -43 -56.5t-65 -25.5q-31 0 -50.5 23.5 t-13.5 55.5z" />
<glyph unicode="3" horiz-adv-x="909" d="M670 1178q-24 0 -53 -6.5t-64.5 -22t-63 -48.5t-36.5 -79q-22 -107 -97 -107q-32 0 -45 22t-8 48q4 23 20 53.5t51 68.5t81 69t117 52t153 21q137 0 199 -80q49 -64 30 -161q-16 -87 -74 -151.5t-186 -121.5l2 -4q37 -7 69.5 -20t66.5 -38t53 -60.5t29 -87t-5 -117.5 q-26 -130 -107 -229.5t-190 -149t-227 -49.5q-61 0 -122.5 16.5t-102.5 49t-33 71.5q5 25 36 48t62 23q48 0 74 -53q1 -2 6 -14t6.5 -15t7.5 -13.5t11 -14t14.5 -10.5t20 -9.5t26 -5t33.5 -2.5q24 0 53.5 7.5t69 30t74 57t65 95.5t45.5 138q8 42 8.5 77.5t-6.5 61.5t-18 46 t-28.5 33.5t-35.5 23t-41 14t-43 6.5t-43 2q-59 0 -94 -4l2 66q140 20 245 111t122 177q19 92 -20 138.5t-109 46.5z" />
<glyph unicode="4" horiz-adv-x="909" d="M743 1038q-186 -207 -489 -589h375zM942 449q30 0 23 -33q-3 -19 -26.5 -41.5t-43.5 -22.5h-135l-37 -188q-8 -44 2.5 -64.5t31 -26t68.5 -9.5q11 -1 17 -1q7 -9 1.5 -33.5t-16.5 -33.5q-126 4 -213 4q-107 0 -233 -4q-7 9 -2 33.5t16 33.5q89 6 118 19q48 21 60 82 l37 188h-401q-17 0 -29 6.5t-17.5 14.5t-8.5 22t-3.5 22t-0.5 21q179 220 374 444.5t312 344.5q18 22 34 22h64l4 -4q-9 -23 -43 -198l-117 -598h164z" />
<glyph unicode="5" horiz-adv-x="909" d="M707 387q31 159 -17.5 235t-150.5 76q-125 0 -260 -49l182 590q113 -10 211 -10q114 0 325 22l13 -8l-58 -139q-123 -12 -209 -12q-65 0 -227 18l-104 -342q92 33 198 33q81 0 142.5 -31t94.5 -83t46 -120t-4 -143q-37 -194 -179 -320.5t-325 -126.5q-57 0 -118 20.5 t-100.5 57t-31.5 76.5q6 30 34 53t56 23q54 0 88 -66q3 -5 11 -20.5t12 -22t13.5 -18t18.5 -17t23.5 -10t32.5 -4.5q91 0 173.5 97t109.5 241z" />
<glyph unicode="6" horiz-adv-x="909" d="M397 629q-32 -81 -47 -160q-20 -102 -21.5 -178t10.5 -121.5t38.5 -73t56.5 -37.5t70 -10q77 0 143.5 84t97.5 244q7 34 8.5 70.5t-6.5 78.5t-26.5 74.5t-57.5 54t-94 21.5q-93 0 -172 -47zM429 704q101 44 196 44q78 0 136.5 -18t92.5 -49t53.5 -73.5t19.5 -91.5 t-9 -102q-14 -70 -49.5 -143t-90.5 -140.5t-136 -110.5t-173 -43q-35 0 -68 5.5t-68.5 20.5t-64 38.5t-52 63t-36 90t-12 122.5t17.5 158q24 125 97 257t184 239q104 103 217.5 169t267.5 111q19 -14 13 -53q-101 -37 -188.5 -93t-152.5 -123.5t-112 -135.5t-83 -142z" />
<glyph unicode="7" horiz-adv-x="909" d="M586 1096q-28 0 -49 -5t-48 -22t-54 -54.5t-54 -96.5q-33 -3 -62 6q4 10 22 62.5t25 73t20.5 61.5t21.5 71.5t14 58.5q2 6 8 6q8 -2 31 -15t63 -13h404q78 0 155 22l27 -24q-54 -91 -103 -175.5t-97 -170t-82 -146t-80.5 -147t-68 -126.5t-69.5 -131.5t-60 -114.5 t-63.5 -123t-58.5 -113l-135 -7l-12 15q171 272 657 1108h-352z" />
<glyph unicode="8" horiz-adv-x="909" d="M698 1178q-86 0 -142.5 -49t-70.5 -123q-11 -58 6 -108t91 -107l53 -39q183 123 205 243q15 78 -19 130.5t-123 52.5zM977 993q-9 -46 -41.5 -92t-79 -82.5t-90 -63t-86.5 -46.5l121 -88q135 -97 98 -289q-10 -48 -34 -96.5t-64.5 -94.5t-92 -82t-119.5 -57.5t-143 -21.5 q-160 0 -238 82.5t-48 236.5q13 64 54 128.5t108 117.5t180 112l-45 33q-79 59 -107.5 125t-11.5 152q24 121 130.5 201.5t254.5 80.5q142 0 209 -71.5t45 -184.5zM465 51q39 0 77 9.5t81.5 33t77 74.5t47.5 123q30 162 -119 272l-82 58q-68 -41 -119 -89.5t-78 -94 t-40 -77.5t-19 -61q-12 -65 0 -115.5t41.5 -78t63 -41t69.5 -13.5z" />
<glyph unicode="9" horiz-adv-x="909" d="M787 598q32 81 47 160q20 102 21.5 178t-10.5 121.5t-38.5 73t-56.5 37.5t-70 10q-77 0 -145 -84t-99 -244q-7 -34 -8 -70.5t7 -78.5t27 -74.5t58 -54t94 -21.5q94 0 173 47zM755 524q-103 -45 -196 -45q-78 0 -136.5 18t-92.5 49t-53.5 73.5t-19.5 91.5t9 102 q11 55 35 113t64 116.5t90 104t118 74t142 28.5q35 0 67.5 -5.5t68 -20.5t64 -38.5t51.5 -62.5t35 -89.5t11.5 -122.5t-17.5 -158q-24 -127 -96 -258t-182 -238q-104 -103 -218 -169.5t-268 -111.5q-19 13 -12 54q101 37 188.5 93.5t152.5 123.5t112 135.5t83 142.5z" />
<glyph unicode=":" horiz-adv-x="448" d="M385 834q40 0 67 -26.5t27 -64.5q0 -48 -37.5 -87.5t-89.5 -39.5q-40 0 -67 27.5t-27 67.5q0 44 37 83.5t90 39.5zM291 297q40 0 67 -26t27 -64q0 -48 -37.5 -87.5t-89.5 -39.5q-40 0 -67 27t-27 67q0 44 37 83.5t90 39.5z" />
<glyph unicode=";" horiz-adv-x="448" d="M145 92q0 45 36.5 74t84.5 29t79.5 -36t31.5 -96q0 -35 -7.5 -71.5t-28 -79t-52.5 -77.5t-85.5 -64t-121.5 -41q-25 20 -17 47q79 18 146.5 76t67.5 102q0 17 -10.5 28.5t-21.5 15.5t-32 9q-70 18 -70 84zM383 834q40 0 67 -26.5t27 -64.5q0 -48 -37.5 -87.5t-89.5 -39.5 q-40 0 -67 27.5t-27 67.5q0 44 37 83.5t90 39.5z" />
<glyph unicode="&#x3c;" horiz-adv-x="997" d="M336 489l606 -237l-16 -102l-748 290l17 99l849 288l-18 -102z" />
<glyph unicode="=" horiz-adv-x="1079" d="M1016 395l-19 -100h-811l19 100h811zM1061 651l-19 -100h-811l19 100h811z" />
<glyph unicode="&#x3e;" horiz-adv-x="997" d="M834 483l-607 238l19 102l747 -291l-16 -98l-850 -289l16 103z" />
<glyph unicode="?" horiz-adv-x="829" d="M299 1065q0 39 24.5 86t70.5 92.5t124.5 76t173.5 30.5q138 0 220.5 -67t82.5 -179q0 -81 -34 -150t-87 -116t-107 -84t-105 -73.5t-70 -64.5q-50 -68 -66 -149l-14 -90q-3 -21 -31 -21q-11 0 -17 5.5t-5 15.5l16 94q15 78 43 140t60.5 101t68.5 72t69.5 61.5t60.5 59.5 t43 76.5t16 103.5q0 85 -49.5 144t-124.5 59q-99 0 -156 -42t-57 -93q0 -18 10 -35q6 -12 6 -28q0 -34 -26 -63.5t-70 -29.5q-28 0 -49 15.5t-21 52.5zM465 195q40 0 67 -26.5t27 -64.5q0 -48 -37.5 -87.5t-89.5 -39.5q-40 0 -67 27.5t-27 67.5q0 44 37 83.5t90 39.5z" />
<glyph unicode="@" horiz-adv-x="1697" d="M1221 647q12 57 -17.5 93t-81.5 36q-33 0 -86.5 -20t-101.5 -62q-159 -137 -207 -362q-39 -189 109 -189q49 0 128.5 77t145.5 190q34 53 67 120.5t44 116.5zM1141 152q-2 -9 1 -15t6.5 -8t6.5 -2q77 0 137.5 20.5t113.5 69.5t93 135t66 211q30 158 2.5 276t-99.5 196 t-161 116.5t-183 38.5q-89 0 -179.5 -25t-181.5 -80.5t-167.5 -135.5t-137.5 -197t-91 -258q-15 -69 -20.5 -138.5t0.5 -144.5t25 -141.5t57.5 -127t93 -104t137 -69t184.5 -25.5q225 0 411 135l19 -37q-118 -82 -225.5 -124t-255.5 -42q-221 0 -372 104.5t-206 282 t-8 394.5q45 216 189 399t346.5 289t414.5 106q202 0 344.5 -88t200 -241.5t16.5 -343.5q-16 -74 -48 -144.5t-87.5 -140t-127 -121.5t-174.5 -84.5t-222 -32.5q-36 0 -46.5 26.5t-2.5 57.5q8 40 55 129l-4 2q-82 -106 -161.5 -158.5t-135.5 -52.5q-54 0 -93 19t-57.5 46.5 t-27.5 64t-8 66.5t6 58q22 106 84 205.5t141 168.5t167.5 111t164.5 42q47 0 84 -24.5t43 -63.5l20 49l107 26l24 -10l-225 -528q-48 -115 -53 -137z" />
<glyph unicode="A" horiz-adv-x="1366" d="M629 580h342l-84 546h-4l-297 -520q-5 -8 -5 -12q0 -14 48 -14zM330 162q-15 -25 -15 -48q0 -49 74 -55l55 -4q15 0 13 -16l-4 -39l-7 -4q-144 4 -256 4q-34 0 -182 -4l-2 4l6 39q3 16 19 16q71 5 118.5 35t100.5 119l645 1065q25 42 42 58t38 16q20 0 28 -14.5t13 -47.5 l188 -1110q9 -60 36.5 -86.5t86.5 -32.5l21 -2q18 0 16 -16l-4 -39l-4 -4q-144 4 -232 4q-112 0 -260 -4l-2 4l4 39q1 16 17 16l57 4q100 7 100 69q0 5 -2 19l-51 347h-409q-35 0 -50 -7t-26 -28z" />
<glyph unicode="B" horiz-adv-x="1140" d="M594 1167l-82 -417h145q283 0 330 235q8 42 8 72q0 54 -19 94.5t-51.5 62t-68 31.5t-74.5 10q-52 0 -84.5 -3t-52 -7.5t-30 -17.5t-14 -24t-7.5 -36zM500 680l-103 -520q-3 -16 -3 -29q0 -35 32 -50t117 -15q108 0 185 20.5t122 60t68 84.5t36 107q8 42 8 75 q0 120 -81 193.5t-246 73.5h-135zM41 39q3 16 16 16l60 4q66 5 87.5 19.5t31.5 66.5l200 1031q5 25 5 36q0 27 -19 36.5t-72 13.5l-57 4q-12 0 -12 14l8 41l6 4q184 -4 248 -4q41 0 123 2t116 2q369 0 369 -240q0 -37 -8 -75q-14 -80 -82 -154.5t-154 -114.5v-4 q111 -35 174 -105.5t63 -179.5q0 -37 -7 -75q-11 -56 -34.5 -107.5t-69 -102.5t-107 -88t-154 -60t-205.5 -23q-100 0 -176.5 2t-103.5 2q-66 0 -250 -4l-4 4z" />
<glyph unicode="C" horiz-adv-x="1261" d="M692 -20q-130 0 -230 41.5t-160 113.5t-90 162.5t-30 196.5q0 74 15 151q38 196 158.5 359t282 253.5t323.5 90.5q105 0 183 -22t132 -45.5t96 -25.5q-15 -135 -18 -317l-60 -8q-31 342 -370 342q-49 0 -109 -20.5t-128 -67.5t-128 -113t-110.5 -167t-73.5 -220 q-17 -90 -17 -173q0 -92 20.5 -171t61.5 -142t109.5 -99t157.5 -36q137 0 254.5 52.5t244.5 171.5q29 0 39 -31q-125 -135 -267 -205.5t-286 -70.5z" />
<glyph unicode="D" horiz-adv-x="1366" d="M39 37q4 18 18 18l60 4q54 3 83 24t38 69l198 1019q5 23 5 37q0 30 -19.5 40t-71.5 14l-53 4q-17 0 -14 16l6 39l6 4q184 -4 248 -4q34 0 143.5 2t177.5 2q245 0 401 -158.5t156 -397.5q0 -65 -14 -138q-28 -145 -90.5 -259t-140 -183t-173.5 -114t-184 -62t-178 -17 q-117 0 -224.5 2t-129.5 2q-66 0 -250 -4l-4 4zM395 150q-3 -15 -3 -27q0 -23 16.5 -34.5t59.5 -17t126 -5.5q88 0 163.5 13.5t151.5 49t134 92.5t104.5 149t69.5 212q18 92 18 184q0 80 -14.5 149.5t-49 133t-86 108.5t-130.5 71.5t-179 26.5q-41 0 -67.5 -2.5t-52.5 -10 t-40.5 -24t-19.5 -42.5z" />
<glyph unicode="E" horiz-adv-x="1077" d="M1133 1323q0 -18 -6 -130t-11 -167l-57 -10q-5 48 -11 78t-18.5 60.5t-31.5 47t-50 27t-74 10.5h-204q-72 0 -86 -70l-82 -430h250q49 0 74.5 20.5t39.5 65.5l15 52q4 16 18 16h43l6 -8q-33 -119 -43 -185q-17 -88 -26 -178l-11 -6h-43q-7 0 -9.5 5.5t-0.5 10.5l4 52 q1 6 1 17q0 34 -19.5 47.5t-65.5 13.5h-250l-100 -515q-2 -16 -2 -21q0 -26 15.5 -36t45.5 -10h267q193 0 317 268l59 -10q-6 -14 -139 -342q-156 4 -250 4h-422q-65 0 -249 -4l-4 4l8 41q5 14 18 14l60 4q57 4 83 24t35 64l199 1022q3 17 3 29q0 31 -20.5 45.5t-66.5 18.5 l-57 4q-18 0 -13 14l9 41l4 4q184 -4 247 -4h498q47 0 94 8q9 0 9 -6z" />
<glyph unicode="F" horiz-adv-x="935" d="M735 662h-250l-98 -510q-3 -15 -3 -28q0 -32 21.5 -46.5t71.5 -18.5l49 -4q18 0 15 -16l-9 -39l-4 -4q-184 4 -252 4q-63 0 -247 -4l-4 4l8 39q3 16 18 16l53 4q61 4 88 26t35 67l199 1017q3 17 3 30q0 31 -20 45t-67 18l-57 4q-18 0 -13 14l9 41l4 4q184 -4 247 -4h500 q45 0 94 8q7 0 7 -6q0 -59 -17 -297l-57 -10q-5 48 -11 78t-18.5 60.5t-31.5 47t-50 27t-74 10.5h-204q-72 0 -86 -70l-82 -430h250q49 0 74.5 20.5t39.5 65.5l15 52q4 16 18 16h43l6 -8q-33 -119 -43 -185q-17 -88 -26 -178l-11 -6h-43q-7 0 -9.5 5.5t-0.5 10.5l4 52 q1 6 1 17q0 34 -19.5 47.5t-65.5 13.5z" />
<glyph unicode="G" horiz-adv-x="1359" d="M997 1348q81 0 148.5 -14.5t103.5 -32t79 -32t81 -14.5q-18 -189 -18 -315l-62 -12q-5 57 -17.5 103.5t-39 93t-66.5 77.5t-103.5 50.5t-146.5 19.5q-203 0 -372.5 -168.5t-221.5 -433.5q-11 -61 -11 -122q0 -94 26 -180t76.5 -157.5t135.5 -114.5t193 -43 q83 0 166.5 25.5t141.5 73.5l61 313q3 15 3 26q0 30 -22 43t-73 17l-49 4q-16 0 -13 16l11 54l4 4q184 -4 248 -4t182 4l4 -4l-10 -54q-2 -12 -21 -16q-48 -5 -72 -22.5t-32 -67.5l-47 -238q-5 -32 20 -57q-125 -94 -260 -142t-301 -48q-253 0 -402.5 146.5t-149.5 371.5 q0 66 13 131q32 164 116.5 302t197 227.5t242 139.5t257.5 50z" />
<glyph unicode="H" horiz-adv-x="1378" d="M1235 1165q9 46 -11 68t-79 27l-70 6q-4 8 -1.5 30.5t7.5 28.5q180 -4 260 -4q62 0 246 4q6 -14 4 -33.5t-8 -25.5l-63 -6q-61 -6 -89.5 -28.5t-37.5 -66.5l-199 -1009q-9 -47 11 -68.5t79 -26.5l70 -6q4 -8 1.5 -30.5t-7.5 -28.5q-180 4 -261 4q-61 0 -245 -4 q-6 14 -4 33.5t8 25.5l63 6q61 6 90 28t37 67l99 501h-641l-99 -501q-9 -47 11 -68.5t79 -26.5l70 -6q4 -8 1.5 -30.5t-7.5 -28.5q-180 4 -260 4q-62 0 -246 -4q-6 14 -4 33.5t8 25.5l64 6q61 6 90 28t37 67l198 1009q9 46 -11 68t-79 27l-70 6q-4 8 -1 30t8 29 q180 -4 260 -4q61 0 245 4q6 -14 4 -33.5t-8 -25.5l-63 -6q-61 -6 -89.5 -28.5t-37.5 -66.5l-83 -422h641z" />
<glyph unicode="I" horiz-adv-x="573" d="M436 1165q9 46 -11 68t-79 27l-70 6q-4 8 -1 30t8 29q180 -4 260 -4q61 0 245 4q6 -14 4 -33.5t-8 -25.5l-63 -6q-61 -6 -89.5 -28.5t-37.5 -66.5l-199 -1009q-9 -47 11 -68.5t79 -26.5l70 -6q4 -8 1.5 -30.5t-7.5 -28.5q-180 4 -260 4q-62 0 -246 -4q-6 14 -4 33.5 t8 25.5l64 6q61 6 90 28t37 67z" />
<glyph unicode="J" horiz-adv-x="847" d="M891 1188q-13 -77 -35 -246t-22 -205q0 -32 19 -41t75 -14l-6 -51l-109 -10l-59 -359q-30 -179 -79.5 -310.5t-114.5 -209.5t-139 -115t-161 -37q-75 0 -136 34t-61 87q0 28 20.5 55t57.5 27q34 0 56 -10.5t41 -36.5q10 -15 17 -38t13 -34.5t21 -11.5q99 0 173.5 143 t119.5 412l67 401l-252 19v41l265 14l4 25q27 158 52 247t75 197l-2 8q-12 -6 -33 -6q-49 0 -109 25q-25 10 -79 36.5t-90.5 38t-76.5 11.5q-32 0 -53.5 -17.5t-21.5 -39.5q0 -7 16 -22t32.5 -36t16.5 -43q0 -63 -67 -63q-37 0 -56.5 24.5t-19.5 65.5q0 33 15 68.5 t45.5 69.5t85.5 55.5t126 21.5q15 0 30.5 -2t35 -7t32.5 -8t37 -12.5t34 -13t37 -16t32.5 -14.5t35.5 -16l29 -14q7 47 38 89t77 42q76 0 76 -57t-125 -141z" />
<glyph unicode="K" horiz-adv-x="1304" d="M436 1165q9 46 -11 68t-79 27l-70 6q-4 8 -1 30t8 29q180 -4 260 -4q61 0 245 4q6 -14 4 -33.5t-8 -25.5l-63 -6q-61 -6 -89.5 -28.5t-37.5 -66.5l-90 -454q92 5 174 80l401 360q60 57 60 82q0 23 -47 29l-39 4q-16 0 -13 16l7 39l6 4q184 -4 227 -4q9 0 193 4l6 -4 l-9 -39q-3 -16 -24 -16q-51 -6 -83.5 -14t-83.5 -35t-103 -74l-336 -309q-86 -79 -92 -101q-3 -26 14 -51l328 -532q26 -45 58.5 -66t76.5 -27l12 -2q16 -4 14 -16l-6 -39l-8 -4q-184 4 -203 4q-57 0 -139 -4l-2 4l2 12q8 34 8 59q0 43 -20 79l-242 405q-44 78 -152 78l5 25 l-99 -502q-9 -47 11 -68.5t79 -26.5l70 -6q4 -8 1.5 -30.5t-7.5 -28.5q-180 4 -260 4q-62 0 -246 -4q-6 14 -4 33.5t8 25.5l64 6q61 6 90 28t37 67z" />
<glyph unicode="L" horiz-adv-x="1062" d="M240 156l196 1009q9 46 -11 68t-79 27l-70 6q-4 8 -1 30t8 29q180 -4 260 -4q61 0 245 4q6 -14 4 -33.5t-8 -25.5l-63 -6q-62 -6 -90.5 -28t-36.5 -67l-193 -983q-2 -10 -2 -27q0 -35 19.5 -55t56.5 -20h225q180 0 301 268q15 4 32 -0.5t26 -13.5q-83 -205 -119 -338 q-180 4 -233 4h-416q-62 0 -246 -4q-6 14 -4 33.5t8 25.5l64 6q61 6 90 28.5t37 66.5z" />
<glyph unicode="M" horiz-adv-x="1646" d="M1341 178l123 916h-4l-653 -1084q-14 -22 -31 -22q-20 0 -26 22l-199 1063h-4l-258 -897q-9 -34 -9 -53q0 -60 54 -64l49 -4q18 0 16 -16l-2 -39l-6 -4q-114 4 -180 4q-56 0 -174 -4l-4 4l4 39q2 16 20 16l54 4q73 5 102 117l289 1000q7 28 7 40q0 22 -15.5 33t-51.5 13 l-55 4q-10 0 -13.5 3.5t-2.5 10.5l4 41l4 4l295 -2l200 -1042q3 -27 11 -27q5 0 22 29l621 1042h258l4 -4l-4 -41q-1 -12 -25 -14l-53 -4q-83 -6 -92 -86l-125 -998q-4 -32 -4 -45q0 -34 13 -52.5t48 -21.5l54 -4q10 -1 14.5 -4.5t3.5 -11.5l-4 -39l-4 -4q-184 4 -221 4 q-23 0 -211 -4l-4 4l4 39q1 14 20 16l53 4q38 3 60.5 38t27.5 81z" />
<glyph unicode="N" horiz-adv-x="1363" d="M1407 1141l-213 -1098q-13 -63 -53 -63q-48 0 -70 49l-510 903q-40 67 -55 67q-19 0 -39 -100l-139 -719q-4 -22 -4 -31q0 -37 22 -61.5t66 -28.5l51 -4q13 -1 12 -16l-4 -39l-4 -4q-184 4 -213 4q-41 0 -225 -4l-4 4l4 37q2 17 28 18l52 4q56 5 88.5 39.5t42.5 81.5 l184 946q-2 44 -33.5 90t-75.5 50q-13 2 -21 5.5t-7 10.5l4 39l6 4h270l498 -909q54 -95 66 -107q7 -6 12 -6q8 0 12.5 13t11.5 49l152 776q3 15 3 31q0 83 -87 90l-49 4q-9 1 -17.5 5.5t-7.5 10.5l6 39l4 4q184 -4 226 -4q29 0 213 4l4 -4l-4 -39q-1 -7 -7.5 -11.5 t-11.5 -4.5l-55 -4q-55 -4 -87 -37.5t-42 -83.5z" />
<glyph unicode="O" horiz-adv-x="1368" d="M893 1278q-70 0 -144 -35.5t-146 -106t-131.5 -191.5t-88.5 -275q-18 -92 -18 -171q0 -209 105 -329.5t261 -120.5q173 0 316 158.5t196 427.5q21 112 21 205q0 213 -100 325.5t-271 112.5zM1432 674q-40 -204 -146 -361t-264 -245t-344 -88q-223 0 -361 134.5 t-138 365.5q0 69 16 155q39 199 146.5 361.5t263 257t327.5 94.5q227 0 371 -143t144 -380q0 -71 -15 -151z" />
<glyph unicode="P" horiz-adv-x="1021" d="M596 1176l-100 -519q33 -10 137 -10q146 0 235.5 74.5t120.5 236.5q12 60 12 106q0 206 -227 206q-99 0 -134.5 -22.5t-43.5 -71.5zM236 145l200 1031q2 14 2 19q0 34 -21.5 49.5t-49.5 17.5l-76 4q-13 0 -10 12l8 43l6 4q144 -4 250 -4q44 0 140 9t118 9 q88 0 155.5 -17.5t107.5 -45t66 -65.5t35 -74t9 -76q0 -33 -7 -66q-11 -56 -34 -110.5t-67.5 -111t-103 -99t-145.5 -69.5t-190 -27q-87 0 -146 20l-88 -453q-3 -13 -3 -25q0 -31 22 -45t71 -16l72 -4q15 0 12 -16l-8 -39l-4 -4q-184 4 -268 4q-108 0 -252 -4l-4 4l8 39 q3 16 18 16l52 4q60 5 89 24t36 62z" />
<glyph unicode="Q" horiz-adv-x="1368" d="M893 1278q-70 0 -144 -35.5t-146 -106t-131.5 -191.5t-88.5 -275q-18 -92 -18 -171q0 -209 105 -329.5t261 -120.5q173 0 316 158.5t196 427.5q21 112 21 205q0 213 -100 325.5t-271 112.5zM260 -263q151 151 343 247q-193 23 -308.5 154.5t-115.5 341.5q0 69 16 155 q39 199 146.5 361.5t263 257t327.5 94.5q227 0 371 -143t144 -380q0 -71 -15 -151q-53 -269 -219 -452.5t-398 -228.5q-140 -36 -296 -139q21 3 38 3q73 0 148 -26.5t127 -57.5t118 -57.5t123 -26.5q48 0 99 18.5t88 56.5l28 -24q-74 -87 -149 -127.5t-166 -40.5 q-71 0 -134 20t-109.5 49t-90 57.5t-92 48.5t-98.5 20q-31 0 -74 -25q-45 -41 -94 -96l-68 41q21 27 47 50z" />
<glyph unicode="R" horiz-adv-x="1136" d="M780 1270q-98 0 -137 -23t-47 -71l-100 -510h98q77 0 136.5 13.5t114.5 46.5t92.5 96.5t55.5 156.5q10 55 10 89q0 59 -19.5 100.5t-53.5 62.5t-70.5 30t-79.5 9zM793 1339q112 0 189.5 -20t129.5 -82q64 -78 64 -179q0 -28 -9 -77q-12 -61 -42 -116t-66 -92t-79 -68 t-77 -47.5t-65 -26.5l163 -430q32 -80 65 -119t93 -39l-6 -49q-32 -14 -86 -14q-151 0 -225 182l-140 356q-11 27 -29 42t-64.5 25.5t-125.5 10.5l-88 -449q-3 -15 -3 -26q0 -30 21.5 -44t71.5 -18l52 -4q15 0 12 -16l-6 -39l-6 -4q-184 4 -250 4t-250 -4l-4 4l8 39 q3 16 18 16l52 4q62 4 89.5 24.5t35.5 63.5l200 1029q2 14 2 19q0 34 -21.5 49.5t-49.5 17.5l-76 4q-13 0 -10 12l8 43l6 4q184 -4 248 -4q43 0 136 9t114 9z" />
<glyph unicode="S" horiz-adv-x="929" d="M1010 1282q-2 -37 -9.5 -122.5t-7.5 -141.5l-63 4q-4 47 -10 79.5t-21.5 68.5t-38.5 57.5t-63 36t-95 14.5q-97 0 -169 -58t-91 -151q-4 -20 -4 -42q0 -40 16.5 -78t40 -64.5t55.5 -51t56 -38.5t49 -25q59 -27 102.5 -54.5t86.5 -68t66 -95t23 -119.5q0 -39 -7 -77 q-31 -156 -173 -266t-313 -110q-89 0 -185.5 15t-150.5 15q19 125 27 328l62 6q3 -291 278 -291q237 0 283 232q8 45 8 76q0 85 -45 140t-125 95q-50 25 -87 47t-80 55t-70.5 67.5t-46 81.5t-18.5 99q0 34 7 68q20 103 94 181.5t164 115.5t180 37q62 0 105 -8t61.5 -18.5 t47 -22.5t61.5 -17z" />
<glyph unicode="T" horiz-adv-x="1114" d="M469 1321h684q32 0 57.5 4t56 11.5t54.5 11.5q-8 -134 22 -287q-24 -10 -61 -10q-28 108 -62 149t-110 41h-111q-54 0 -77 -17.5t-33 -68.5l-195 -999q-9 -47 11 -68.5t79 -26.5l70 -6q4 -8 1.5 -30.5t-7.5 -28.5q-180 4 -260 4q-62 0 -246 -4q-6 14 -4 33.5t8 25.5l64 6 q61 6 89.5 28.5t37.5 66.5l194 1005q8 46 -7.5 63t-74.5 17h-141q-82 0 -128.5 -37t-90.5 -138q-40 0 -62 14q71 172 97 268q9 -1 61.5 -14t83.5 -13z" />
<glyph unicode="U" horiz-adv-x="1298" d="M627 -20q-51 0 -98.5 8.5t-99 33.5t-89 63.5t-62 104t-24.5 150.5q0 69 14 143l135 688q3 15 3 27q0 31 -22 45.5t-71 18.5l-51 4q-15 0 -12 16l6 39l6 4q184 -4 248 -4q68 0 252 4l4 -4l-8 -39q-3 -16 -19 -16l-51 -4q-60 -4 -89 -25.5t-38 -65.5l-121 -620 q-25 -137 -25 -200q0 -112 56 -185q82 -103 213 -103q70 0 128.5 16.5t101 43t78 67.5t58.5 82t42.5 95.5t30.5 98.5t22 101l117 600q3 17 3 29q0 32 -21 47t-70 19l-54 4q-5 0 -9 4.5t-3 11.5l8 39l4 4q184 -4 215 -4q33 0 217 4l4 -4l-8 -39q-3 -16 -18 -16l-51 -4 q-61 -4 -90 -27.5t-37 -67.5l-111 -563q-22 -116 -52 -205.5t-78.5 -171t-113.5 -134t-158.5 -83t-211.5 -30.5z" />
<glyph unicode="V" horiz-adv-x="1222" d="M1264 1133q65 117 213 133q9 9 9 29.5t-9 29.5q-152 -4 -193 -4q-61 0 -225 4q-9 -9 -9 -29.5t9 -29.5q83 -6 114.5 -33t0.5 -84l-478 -889q-8 -8 -14 0l-131 911q-7 46 37.5 68.5t109.5 26.5q9 9 9 29.5t-9 29.5q-136 -4 -247 -4q-54 0 -218 4q-9 -9 -9 -29.5t9 -29.5 q74 -9 96 -21q44 -23 56 -106l166 -1116q8 -48 37 -48q28 0 55 48z" />
<glyph unicode="W" horiz-adv-x="1861" d="M444 1118q-9 78 -43.5 106.5t-115.5 41.5q-9 9 -9 29.5t9 29.5q148 -4 221 -4q110 0 246 4q9 -9 9 -29.5t-9 -29.5q-64 -4 -107.5 -26.5t-38.5 -68.5l70 -725l14 -135l78 131l403 753h89q14 -130 22 -200l66 -571l14 -125l76 141l383 709q31 56 -7 83t-124 34 q-9 9 -9 29.5t9 29.5q164 -4 231 -4q65 0 201 4q9 -9 9 -29.5t-9 -29.5q-76 -8 -120.5 -41.5t-76.5 -91.5l-616 -1110q-15 -27 -23 -35t-20 -8q-15 0 -23.5 9.5t-11.5 35.5l-86 727q-4 39 -11 79t-9 59q-1 5 -10 5q-6 -11 -32.5 -59.5t-42.5 -77.5l-401 -733 q-15 -28 -23 -36.5t-20 -8.5q-16 0 -21 9t-8 36z" />
<glyph unicode="X" horiz-adv-x="1286" d="M274 1280l9 39l6 6q156 -4 203 -4q55 0 239 4q0 -6 2 -6l-6 -39q-3 -14 -12 -14l-66 -4q-47 -3 -47 -31q0 -16 21 -60l163 -360q13 -23 19 -23q9 0 31 25l323 358q43 48 43 69q0 19 -37 22l-57 4q-15 0 -12 14l8 41l4 4q160 -4 195 -4q32 0 192 4l4 -4l-8 -41 q0 -14 -21 -14q-43 -1 -77 -11t-64.5 -32t-48.5 -39.5t-51 -53.5l-328 -362q-34 -36 -39 -61q-1 -3 -1 -11q0 -20 20 -57l219 -430q71 -147 178 -154q12 0 12 -14l-8 -41l-4 -4q-160 4 -207 4q-62 0 -246 -4l-6 4l8 41q3 14 15 14l41 4q37 4 51.5 10t14.5 20q0 15 -23 61 l-185 385q-11 22 -24 22q-6 0 -35 -29l-332 -370q-38 -45 -38 -67q0 -27 48 -32l37 -4q11 -2 11 -14l-9 -41l-6 -4q-184 4 -221 4q-48 0 -166 -4v4l8 41q3 14 25 14q41 2 79.5 17.5t72.5 42.5t55.5 47.5t48.5 50.5l344 383q26 30 29 47q1 4 1 12q0 21 -18 50l-200 419 q-60 126 -148 142q-29 8 -29 14z" />
<glyph unicode="Y" horiz-adv-x="1130" d="M688 156q-9 -46 11 -68t79 -27l70 -6q4 -8 1.5 -30.5t-7.5 -28.5q-180 4 -260 4q-62 0 -246 -4q-6 14 -4 33.5t8 25.5l63 6q61 6 90 28.5t37 66.5l72 374q7 37 7 52q0 18 -7 36l-188 502q-32 85 -53.5 110t-71.5 32l-31 4q-5 8 -6.5 29.5t2.5 29.5q114 -4 213 -4 q59 0 219 4q3 -6 1.5 -29t-5.5 -30l-68 -6q-48 -4 -54.5 -22t11.5 -58l174 -494h9l323 494q31 44 29 60t-39 20l-66 6q-3 6 -1 29.5t6 29.5q156 -4 186 -4q46 0 164 4q4 -7 0.5 -29t-8.5 -30l-54 -4q-26 -2 -45.5 -9t-37 -24t-27.5 -29.5t-31 -42.5l-358 -522 q-18 -29 -29 -86z" />
<glyph unicode="Z" horiz-adv-x="1183" d="M1081 -4q-196 4 -247 4h-717q-33 0 -33 24q0 27 27 54l979 1108q19 22 22 37q5 16 -16 16h-453q-43 0 -78.5 -13t-60 -31t-50.5 -54.5t-41.5 -65t-41.5 -80.5l-58 11q54 136 111 342q30 -2 66.5 -14.5t87.5 -12.5h630q32 3 74.5 11.5t54.5 8.5q42 0 42 -16 q0 -36 -70 -115l-944 -1063q-21 -32 -23 -41q-3 -13 7.5 -19.5t35.5 -6.5h459q54 0 99 20t81 60t62 83t55 105l59 -10q-80 -197 -119 -342z" />
<glyph unicode="[" horiz-adv-x="684" d="M868 1411l-14 -88h-301l-289 -1642h299l-14 -91h-440l319 1821h440z" />
<glyph unicode="\" horiz-adv-x="657" d="M365 1430l272 -1528h-90l-273 1528h91z" />
<glyph unicode="]" horiz-adv-x="684" d="M-6 -410l14 91h301l289 1642h-299l14 88h441l-322 -1821h-438z" />
<glyph unicode="^" horiz-adv-x="1060" d="M743 1214l-299 -503h-90l369 620h86l147 -620h-90z" />
<glyph unicode="_" horiz-adv-x="995" d="M948 -225l-16 -90h-977l14 90h979z" />
<glyph unicode="`" horiz-adv-x="802" d="M616 1430l99 -256q6 -18 6 -31t-2 -19q-2 -8 -12.5 -15t-20.5 -7q-17 0 -53 41l-195 223l8 20q3 1 21 12t31.5 18t38.5 13.5t51 6.5q19 0 28 -6z" />
<glyph unicode="a" horiz-adv-x="995" d="M840 887q18 -5 40.5 -5.5t56.5 0.5t46 1l-141 -637q-21 -102 -21 -115q0 -16 8.5 -22.5t16.5 -6.5q36 0 115 109q13 0 22.5 -5.5t13 -10.5t11.5 -17q-90 -198 -263 -198q-83 0 -83 92q0 45 20 112l27 86l-4 4q-199 -294 -347 -294q-198 0 -198 276q0 116 50 235.5 t125.5 207.5t167.5 144t173 56q54 0 164 -12zM737 449q23 58 41 145t24 145l7 58q-61 39 -127 39q-67 0 -134.5 -55t-115.5 -137t-78 -178t-30 -177q0 -197 90 -197q50 0 149 109.5t174 247.5z" />
<glyph unicode="b" horiz-adv-x="978" d="M584 1194l-113 -506l4 -2q30 35 40 46t42 45t52.5 48.5t53 35.5t64.5 29.5t66 8.5q67 0 111.5 -17.5t66 -53t29.5 -75.5t8 -98q0 -150 -113.5 -324.5t-261.5 -275.5q-110 -75 -215 -75q-131 0 -181.5 67t-27.5 170l211 936q14 63 14 102q0 32 -10.5 45t-32.5 13l-63 4 q-11 0 -11 10l7 49q63 4 154 21.5t132 32.5q25 0 25 -21q-21 -82 -51 -215zM840 616q0 187 -109 187q-18 0 -37 -6.5t-35 -14.5t-37 -25.5t-34.5 -29.5t-37 -38t-34.5 -38.5t-37 -43.5t-35 -42l-69 -295q-52 -219 53 -219q58 0 130 47.5t134.5 123t105 182t42.5 212.5z" />
<glyph unicode="c" horiz-adv-x="796" d="M428 -20q-61 0 -113 26.5t-84 71.5q-61 85 -61 227q0 134 45 250.5t123 199.5q61 65 147 104.5t152 39.5q64 0 109 -13.5t68 -32t35.5 -48.5t14.5 -51t2 -52q0 -38 -32 -65t-74 -27q-25 0 -40 20t-15 46q0 25 10 43q10 17 10 39q0 31 -16.5 50t-33.5 23.5t-36 4.5 q-124 0 -212.5 -133t-88.5 -353q0 -86 12 -128t39 -75q36 -47 103 -47q76 0 139 40.5t131 116.5q14 0 27.5 -10t17.5 -25q-78 -110 -176 -176t-203 -66z" />
<glyph unicode="d" horiz-adv-x="1001" d="M707 397q94 174 94 250q0 60 -37.5 119t-91.5 59q-68 0 -132.5 -50.5t-109.5 -127t-72.5 -168t-27.5 -172.5q0 -233 80 -233q58 0 138.5 90t158.5 233zM707 238l-7 4q-94 -137 -170.5 -199.5t-154.5 -62.5q-64 0 -108 29t-64.5 77t-28.5 93t-8 95q0 116 47.5 232.5 t120 201.5t162 138t170.5 53q56 0 98.5 -32t62.5 -81h2l76 367q15 75 15 102q0 32 -10.5 45t-32.5 13l-64 4q-10 0 -10 10l6 49q63 4 154.5 21.5t132.5 32.5q24 0 24 -21q-20 -82 -51 -215l-217 -948q-21 -102 -21 -115q0 -16 8.5 -22.5t16.5 -6.5q36 0 115 109 q13 0 22.5 -5.5t13 -10.5t11.5 -17q-90 -198 -262 -198q-47 0 -65.5 27.5t-18.5 64.5q0 30 20 112z" />
<glyph unicode="e" horiz-adv-x="821" d="M727 758q0 44 -22 61t-78 17q-184 0 -271 -350q66 8 125 25.5t117.5 48t93.5 82t35 116.5zM342 408q-2 -16 -2 -70q0 -131 40.5 -183.5t115.5 -52.5q76 0 126.5 25.5t135.5 112.5q33 0 47 -33q-176 -227 -383 -227q-122 0 -187 87t-65 224q0 81 17.5 163.5t57.5 163 t97 142.5t143 100.5t189 38.5q52 0 92 -16t61 -40.5t31 -49t10 -45.5q0 -67 -21 -107q-80 -150 -505 -233z" />
<glyph unicode="f" horiz-adv-x="643" d="M385 799h-168q-12 0 -12 4q0 11 8 35q8 31 57 34l136 7q63 304 161 419q57 67 135.5 99.5t133.5 32.5q106 0 171 -44.5t65 -108.5q0 -22 -18.5 -45.5t-59.5 -23.5q-46 0 -66.5 28t-29.5 73q-7 30 -25 41.5t-54 11.5t-86 -40t-84 -124q-38 -84 -61 -203l-23 -116h226 q14 0 14 -11l-10 -45q-3 -11 -20.5 -17.5t-33.5 -6.5h-190l-6 -35q-31 -179 -97 -498q-60 -293 -99.5 -429t-82.5 -195q-46 -64 -108.5 -96.5t-128.5 -32.5q-97 0 -143.5 27.5t-46.5 66.5q0 30 18.5 52t57.5 22q31 0 59 -21t44 -46q8 -12 12.5 -18t14.5 -11t23 -5 q23 0 49.5 17.5t43.5 44.5q12 19 23.5 45.5t21.5 62t18.5 66.5t17 79.5t14.5 79t14 85.5t11 79t10.5 80.5t9.5 69.5q16 125 84 510z" />
<glyph unicode="g" horiz-adv-x="976" d="M330 -6q-32 -23 -51.5 -39t-54.5 -49t-53.5 -68t-18.5 -69q0 -87 86.5 -138t253.5 -51q125 0 187 47t62 113q0 53 -37.5 91t-125.5 79q-47 21 -131 49t-117 35zM850 596q0 -149 -87.5 -237.5t-223.5 -88.5q-82 0 -140 35q-2 -3 -9.5 -18t-11 -21.5t-9.5 -20.5t-9 -23 t-5.5 -20.5t-2.5 -21.5q0 -28 15.5 -48t49.5 -34t66 -22.5t88.5 -22t94.5 -24.5q208 -62 208 -234q0 -282 -466 -282q-54 0 -105 5.5t-105 20t-93.5 37t-65 60t-25.5 85.5q0 44 27 89t72 83.5t88 67.5t90 55q-53 31 -53 99q0 50 34 114.5t76 108.5q-94 113 -94 242 q0 64 18 119.5t55 101t100 72t146 26.5q128 0 201 -86q94 86 203 86q34 0 57 -21t23 -49q0 -29 -18 -48t-46 -19q-35 0 -57 35q-12 20 -31 20q-12 0 -43.5 -15.5t-52.5 -35.5q41 -58 41 -170zM698 596q0 108 -34.5 175t-98.5 67q-49 0 -81.5 -19t-49 -57t-22.5 -80.5 t-6 -103.5q0 -246 143 -246q149 0 149 264z" />
<glyph unicode="h" horiz-adv-x="1062" d="M360 147q-3 -14 -7.5 -39t-7.5 -39.5t-9.5 -33.5t-14.5 -29.5t-22 -18t-33 -7.5q-46 0 -65 14t-19 41q0 9 4 26.5t11.5 45.5t10.5 40l224 1006q14 63 14 102q0 32 -10.5 45t-32.5 13l-63 4q-10 0 -10 10l6 49q63 4 154.5 21.5t132.5 32.5q24 0 24 -21q-21 -82 -51 -215 l-124 -556q131 153 221 207t179 54q136 0 136 -164q0 -33 -27 -155l-78 -326q-22 -97 -22 -117q0 -35 20 -35q16 0 55.5 29.5t77.5 73.5q35 0 47 -35q-148 -190 -284 -190q-84 0 -84 67q0 45 35 189l77 327q21 92 21 137q0 44 -18 60t-54 16q-54 0 -145 -79.5t-191 -209.5z " />
<glyph unicode="i" horiz-adv-x="565" d="M412 1167q0 40 29 69.5t69 29.5t69 -29.5t29 -69.5t-29 -69t-69 -29t-69 29t-29 69zM502 656l-92 -402q-23 -100 -23 -117q0 -35 21 -35q16 0 55.5 29.5t77.5 73.5q35 0 47 -35q-148 -190 -285 -190q-84 0 -84 67q0 24 35 189l96 421q19 77 19 105q0 16 -9.5 28t-27.5 13 l-82 6q-22 34 -2 57q22 3 68.5 9t71.5 9t58 6t56 3q42 0 42 -43q0 -16 -6 -44t-18 -76t-18 -74z" />
<glyph unicode="j" horiz-adv-x="530" d="M515 656l-38 -177q-25 -118 -46 -206.5t-48 -185t-54 -165t-62 -133t-72.5 -104t-85 -63t-101.5 -23.5q-72 0 -120 25.5t-48 72.5q0 30 18.5 46.5t41.5 16.5q34 0 57 -14t32.5 -30t23.5 -30t32 -14q37 0 79.5 48t72.5 165q21 81 51.5 238t48.5 237l65 297q17 81 17 105 q0 16 -9.5 28t-27.5 13l-82 6q-22 34 -2 57q185 27 254 27q42 0 42 -43q0 -16 -39 -194zM422 1167q0 40 29 69.5t69 29.5t69 -29.5t29 -69.5t-29 -69t-69 -29t-69 29t-29 69z" />
<glyph unicode="k" horiz-adv-x="995" d="M182 147l226 1006q14 63 14 102q0 32 -10.5 45t-32.5 13l-64 4q-10 0 -10 10l6 49q63 4 154.5 21.5t132.5 32.5q25 0 25 -21q-21 -82 -52 -215l-147 -637q48 0 121 63l82 70q111 99 200 154t138 55q100 0 100 -72q0 -43 -33.5 -72.5t-60.5 -29.5q-37 0 -64 14.5t-51 14.5 q-56 0 -197 -127l-106 -95v-8q25 -7 41 -15t29.5 -24t20.5 -28t22 -43q11 -22 45.5 -104.5t66.5 -145.5q1 -3 6.5 -13.5t7 -13.5t6 -11.5t7 -11.5l7.5 -9t8.5 -8.5t8.5 -5.5t11 -4t12 -1q17 0 46 27t60 71q16 0 24.5 -6t21.5 -20q-102 -178 -207 -178q-61 0 -105.5 48 t-96.5 162q-19 42 -50 135t-51 128q-18 33 -41 33q-26 0 -45 -7l-74 -332q-3 -13 -7 -38.5t-7 -39.5t-9.5 -33.5t-15 -30t-22.5 -18t-33 -7.5q-46 0 -65 14t-19 41q0 9 4 26.5t11.5 45.5t10.5 40z" />
<glyph unicode="l" horiz-adv-x="544" d="M586 1194l-209 -934q-25 -114 -25 -129q0 -29 25 -29q20 0 64 33t87 86q31 0 45 -35q-124 -206 -297 -206q-86 0 -86 90q0 46 29 174l203 909q14 63 14 102q0 32 -10.5 45t-32.5 13l-63 4q-11 0 -11 10l7 49q63 4 154 21.5t132 32.5q25 0 25 -21q-21 -82 -51 -215z" />
<glyph unicode="m" horiz-adv-x="1603" d="M373 657q18 85 18 105q0 16 -9.5 28t-27.5 13l-82 6q-22 34 -2 57q22 3 68.5 9t71.5 9t58 6t56 3q42 0 42 -43q0 -12 -4.5 -35t-10 -44t-15.5 -57.5t-15 -57.5l-5 -19l4 -2q205 264 402 264q51 0 84.5 -40t33.5 -138q0 -52 -8 -96q52 65 90.5 107.5t87 84.5t98 62 t101.5 20q53 0 89 -44t36 -134q0 -68 -21 -150l-96 -364q-10 -38 -10 -82q0 -23 14 -23q27 0 67 37.5t77 96.5q39 0 45 -29q-95 -227 -303 -227q-24 0 -44.5 19.5t-20.5 48.5q0 41 36 185l80 322q18 71 18 145q0 44 -14 60t-45 16q-52 0 -123.5 -66t-196.5 -241l-78 -322 q-3 -14 -7.5 -39t-7.5 -39.5t-9.5 -33.5t-14.5 -29.5t-22 -18t-33 -7.5q-46 0 -64.5 14t-18.5 41q0 9 4 26.5t11.5 45.5t10.5 40l98 416q17 76 17 137q0 45 -11.5 60.5t-42.5 15.5q-36 0 -81.5 -25t-114 -95t-144.5 -179l-82 -330q-4 -16 -9.5 -46.5t-10 -47t-13 -36 t-24 -28.5t-37.5 -9q-46 0 -64.5 14t-18.5 41q0 9 4 26.5t11.5 45.5t10.5 40z" />
<glyph unicode="n" horiz-adv-x="1060" d="M887 254q-23 -102 -23 -117q0 -35 21 -35q16 0 55.5 29.5t77.5 73.5q35 0 47 -35q-148 -190 -291 -190q-84 0 -84 67q0 45 35 189l78 327q26 108 26 139q0 44 -17.5 59t-53.5 15q-94 0 -316 -289l-78 -340q-3 -14 -7.5 -39t-7.5 -39.5t-9.5 -33.5t-14.5 -29.5t-22 -18 t-33 -7.5q-88 0 -88 55q0 9 4 26.5t11.5 45.5t10.5 40l116 510q18 85 18 105q0 16 -9.5 28t-27.5 13l-82 6q-22 34 -2 57q185 27 258 27q42 0 42 -43q0 -26 -12 -83.5t-31 -110.5l-7 -19l2 -2q134 157 216 210.5t167 53.5q135 0 135 -164q0 -38 -26 -155z" />
<glyph unicode="o" horiz-adv-x="915" d="M330 348q0 -146 46.5 -219.5t100.5 -73.5q61 0 118.5 31t98.5 94q49 76 68.5 181t19.5 192q0 126 -31 188q-23 46 -51.5 68t-72.5 22q-77 0 -137 -48.5t-93.5 -124.5t-50 -156t-16.5 -154zM160 332q0 76 19 153.5t60.5 152t99 132.5t142 93.5t183.5 35.5q73 0 126.5 -21 t84 -53t48.5 -78.5t23.5 -88t5.5 -91.5q0 -177 -90 -328.5t-227 -220.5q-76 -38 -189 -38q-74 0 -129 27t-84 64.5t-46.5 90t-22 91t-4.5 79.5z" />
<glyph unicode="p" horiz-adv-x="1001" d="M545 827q120 72 235 72q74 0 127 -23t81.5 -66.5t41 -96.5t12.5 -121q0 -221 -165 -422q-155 -190 -355 -190q-42 0 -82.5 20t-66.5 47l-90 -377q-7 -20 -2 -35t10 -23.5t17.5 -14t21 -7.5t20.5 -4l39 -6q12 -3 12 -16v-41l-4 -4q-139 4 -219 4q-33 0 -86 -2.5t-90 -4.5 l-37 -3l-4 4v39q0 12 21 16l38 6q50 8 75 29t34 63l211 940q-102 -84 -147 -143q-52 0 -64 43q40 50 95 97.5t141 109.5l26 121q3 13 7 39t7 40t9.5 33.5t15 30t22.5 18t33 7.5q47 0 66.5 -14t19.5 -42q0 -11 -5 -33t-11.5 -49t-9.5 -41zM874 559q0 246 -159 246 q-36 0 -73.5 -12t-60 -24.5t-55.5 -33.5l-135 -598q63 -86 152 -86q57 0 114 40.5t99 106.5q56 87 87 185.5t31 175.5z" />
<glyph unicode="q" horiz-adv-x="1005" d="M829 676q0 64 -34.5 106.5t-89.5 42.5q-101 0 -186.5 -74t-133 -189t-47.5 -238q0 -62 10.5 -118t36.5 -98t64 -42q59 0 164 103t139 200q28 83 52.5 182t24.5 125zM604 -330l135 533l-6 2q-90 -125 -168 -175t-159 -50q-56 0 -99 19t-69 49.5t-43 73.5t-23 86t-6 93 q0 102 34 197t90 166t125.5 125t142.5 82t138 28q120 0 197 -108l59 83q28 39 64 39q4 0 8.5 -1.5t9 -6.5t4.5 -12q0 -11 -4 -31l-274 -1192q-6 -15 -3 -26.5t4 -19.5t9 -14.5t12.5 -10t14.5 -6.5t15.5 -4.5t14.5 -2.5l39 -6q13 -2 13 -16v-41l-5 -4q-139 4 -219 4 q-33 0 -86.5 -2.5t-90.5 -4.5l-38 -3l-4 4v39q0 12 21 16l39 6q49 7 73 28t35 64z" />
<glyph unicode="r" horiz-adv-x="731" d="M453 584l8 -2q68 145 151.5 231t159.5 86q52 0 79.5 -29.5t27.5 -66.5q0 -44 -26.5 -79.5t-66.5 -35.5q-31 0 -69 43q-21 25 -43 25q-57 0 -260 -369l-60 -240q-4 -14 -9 -39.5t-8.5 -40t-10 -33.5t-14.5 -29t-21.5 -17.5t-30.5 -7.5q-78 0 -78 55q0 14 4 31.5t11 41 t11 39.5l114 510q14 57 14 105q0 16 -9.5 28t-27.5 13l-82 6q-22 34 -2 57q26 3 68.5 9t67.5 9.5t56 6t54 2.5q20 0 32 -13.5t12 -37.5q0 -32 -35 -186z" />
<glyph unicode="s" horiz-adv-x="722" d="M356 -20q-103 6 -169 53t-66 106q0 24 18.5 48t57.5 24q42 0 66.5 -33.5t29.5 -75.5q4 -32 24.5 -43.5t63.5 -11.5q76 0 125 36.5t49 115.5q0 99 -125 184q-178 120 -178 260q0 100 80 178t207 78q92 0 162.5 -53t70.5 -111q0 -29 -17.5 -49t-56.5 -20q-37 0 -63 32.5 t-31 73.5q-8 59 -92 59q-62 0 -95.5 -43t-33.5 -102q0 -39 18.5 -69t63.5 -60q135 -90 189.5 -164.5t54.5 -150.5q0 -116 -87 -189t-235 -73h-31z" />
<glyph unicode="t" horiz-adv-x="628" d="M381 879l27 102q4 17 9.5 46t10 46.5t12.5 37t22.5 29t35.5 9.5q47 0 64.5 -13.5t17.5 -41.5q0 -11 -4.5 -31.5t-12.5 -51.5t-10 -40l-21 -92h203q16 -12 8 -42t-28 -38h-201l-121 -539q-22 -95 -22 -129q0 -16 9 -22.5t17 -6.5q27 0 62 26t102 101q36 0 45 -39 q-51 -92 -138.5 -151t-158.5 -59q-50 0 -75 20.5t-25 73.5q0 40 29 168l124 557h-143q-12 0 -12 4q0 11 8 35q8 31 57 34z" />
<glyph unicode="u" horiz-adv-x="1067" d="M1036 721l-114 -467q-23 -102 -23 -117q0 -35 21 -35q16 0 55.5 29.5t77.5 73.5q35 0 47 -35q-148 -190 -285 -190q-43 0 -59.5 17.5t-16.5 49.5q0 61 35 189l23 79l-6 4q-61 -90 -103.5 -144.5t-93.5 -103t-101.5 -70t-109.5 -21.5t-98 40.5t-39 122.5q0 62 20 138 l90 344q27 102 27 116q0 35 -21 35q-17 0 -60.5 -30t-80.5 -72q-35 0 -47 35q70 90 152.5 140t156.5 50q42 0 58 -17.5t16 -50.5q0 -17 -6.5 -47t-19 -76t-17.5 -65l-88 -334q-18 -71 -18 -131q0 -76 61 -76q71 0 149 94.5t205 309.5l60 225q4 16 9.5 46.5t10 47.5t13 36.5 t24 28.5t37.5 9q47 0 66.5 -13.5t19.5 -41.5q0 -14 -12.5 -63t-14.5 -60z" />
<glyph unicode="v" horiz-adv-x="966" d="M624 156l9 -5q37 30 128 153q62 83 108 186t46 168q0 58 -43 123q-11 16 -11 42q0 76 95 76q108 0 108 -97q0 -90 -56 -218q-52 -122 -196 -323q-62 -90 -171 -211q-54 -60 -70 -69q-10 -6 -18 -6q-43 0 -66 131l-86 500q-12 69 -22.5 97t-24.5 28q-26 0 -58 -24t-85 -75 q-35 5 -44 37q59 89 134.5 159.5t124.5 70.5q54 0 80 -57.5t49 -208.5z" />
<glyph unicode="w" horiz-adv-x="1409" d="M543 -25q-33 0 -56 131l-86 500q-12 69 -22.5 97t-24.5 28q-26 0 -58 -24t-85 -75q-35 5 -44 37q59 89 134.5 159.5t124.5 70.5q54 0 79.5 -57t49.5 -209l70 -436l5 -3q43 67 126 223.5t141 291.5q46 22 100 24q18 -46 51 -182q45 -187 72 -354l15 -4q47 50 92 111 q57 76 94 179.5t37 174.5q0 58 -43 123q-11 16 -11 42q0 76 95 76q107 0 107 -97q0 -92 -55 -218q-86 -201 -175 -325q-77 -111 -154 -208q-61 -76 -94 -76q-15 0 -26 25.5t-21 94.5q-32 219 -81 433l-12 -2q-102 -222 -260 -471q-23 -36 -47.5 -58t-37.5 -22z" />
<glyph unicode="x" horiz-adv-x="972" d="M440 633q-22 61 -36 86q-14 23 -57 23q-42 0 -134 -44q-21 21 -27 63q60 44 148.5 91t122.5 47q37 0 59 -31.5t49 -115.5l58 -181l102 148q73 105 131.5 142.5t138.5 37.5q38 0 70.5 -23t32.5 -59q0 -34 -21.5 -61t-44.5 -27q-41 0 -67 21q-26 20 -62 20q-10 0 -24 -3 t-35.5 -16.5t-36.5 -35.5l-156 -230l111 -329q26 -76 49 -76q37 0 102 84q36 -6 50 -39q-44 -74 -105 -109.5t-121 -35.5q-50 0 -72.5 24.5t-43.5 89.5l-79 249l-143 -204q-65 -94 -109.5 -126.5t-99.5 -32.5q-42 0 -80 20.5t-38 56.5q0 34 22 56t56 22q32 0 59 -12 q24 -12 55 -12q32 0 58 39l191 281z" />
<glyph unicode="y" horiz-adv-x="1030" d="M722 0l-93 -143q-98 -151 -210 -243.5t-194 -92.5q-22 0 -48.5 6.5t-51.5 27.5t-25 52q0 45 30 74.5t65 29.5q12 0 36.5 -9.5t34.5 -18.5q13 -11 36 -24t36 -13q23 0 81 64.5t118 162.5q18 40 -18.5 323.5t-82.5 436.5q-18 62 -32 86q-14 23 -57 23q-42 0 -134 -44 q-21 21 -27 63q60 44 148.5 91t122.5 47q38 0 61 -34t45 -117q42 -174 60 -326t28 -360l14 -6q24 34 63 96t66 107l28 45q155 242 155 354q0 58 -43 123q-11 16 -11 42q0 76 95 76q107 0 107 -97q0 -92 -55 -218q-20 -47 -74 -140.5t-105.5 -176t-106.5 -169t-62 -98.5z" />
<glyph unicode="z" horiz-adv-x="892" d="M897 909l59 -30q-9 -15 -23 -33t-45 -53.5t-44 -51.5q-67 -83 -256 -286t-228 -246q64 0 108.5 -11.5t64 -24.5t47 -24.5t61.5 -11.5q25 0 44 4t44.5 16.5t52 41t54.5 73.5q34 0 51 -20q-69 -158 -125.5 -215t-126.5 -57q-92 0 -176 51q-85 53 -156 53q-18 0 -52 -28.5 t-65 -80.5q-18 2 -47 13q-18 3 -28 26q11 39 127 172l492 543q-27 -4 -64 -4q-25 0 -102.5 9t-127.5 9q-72 0 -106 -22t-66 -92q-39 0 -55 16q28 95 87.5 174.5t111.5 79.5t217 -27q134 -28 161 -28q53 0 111 65z" />
<glyph unicode="{" horiz-adv-x="559" d="M571 1161l-65 -370q-24 -135 -64 -193.5t-125 -91.5q55 -26 78 -65.5t23 -102.5q0 -46 -17 -143l-59 -336q-10 -68 -10 -109q0 -49 10 -82q10 -25 21.5 -41.5t26 -25.5t19 -11t17.5 -6l-4 -28q-175 3 -215 73q-25 45 -25 119q0 38 15 141l63 359q10 58 10 96 q0 130 -102 156l2 10q143 39 180 248l70 387q27 166 98 237t240 74l-6 -29q-67 -19 -115 -84q-41 -53 -66 -182z" />
<glyph unicode="|" horiz-adv-x="419" d="M172 -477h-90l319 1812h91z" />
<glyph unicode="}" horiz-adv-x="559" d="M168 -150l63 371q24 135 65 194.5t126 92.5q-55 24 -77.5 63t-22.5 103q0 55 16 143l57 336q13 70 13 111q0 46 -13 79q-12 32 -30.5 51.5t-27.5 23.5t-26 9l6 29q174 -3 215 -74q23 -48 23 -118q0 -65 -14 -142l-64 -356q-8 -49 -8 -98q0 -130 100 -156v-10 q-145 -39 -182 -246l-68 -389q-30 -167 -98 -238q-73 -70 -239 -73l6 28q66 18 114 84q42 58 66 182z" />
<glyph unicode="~" horiz-adv-x="919" d="M129 428q38 103 127.5 182.5t179.5 79.5q31 0 70 -21t70 -45.5t69.5 -45.5t69.5 -21q53 0 118.5 34t108.5 103l33 -12q-36 -77 -80 -130t-85.5 -76t-70.5 -31.5t-53 -8.5q-36 0 -75 21t-67.5 45.5t-67 45.5t-73.5 21q-57 0 -130.5 -41t-118.5 -106z" />
<glyph unicode="&#xa1;" horiz-adv-x="464" d="M489 807q-7 -46 -45 -78.5t-82 -32.5q-40 0 -66 26t-26 64q0 13 2 21q7 44 45 76t82 32q41 0 67 -26t26 -66q0 -10 -3 -16zM154 -473q-38 0 -65.5 28t-27.5 80q0 6 5 41q14 75 58.5 203.5t63.5 192.5q29 98 51.5 183t34 133t13.5 54q10 41 37 41q22 0 22 -20v-4 q-1 -17 -15.5 -157t-21.5 -230q-4 -55 -4 -138v-92q0 -84 -12 -166q-14 -76 -55 -112.5t-84 -36.5z" />
<glyph unicode="&#xa2;" horiz-adv-x="897" d="M657 1196h70l-30 -153q52 -4 89.5 -19t56.5 -33t29.5 -46.5t12.5 -48t2 -48.5q0 -38 -32.5 -65t-74.5 -27q-25 0 -40 19.5t-15 45.5q0 25 10 43q10 17 10 39q0 62 -60 75l-142 -730q66 8 122.5 47t116.5 107q14 0 27.5 -9.5t17.5 -24.5q-141 -197 -307 -235l-31 -158h-69 l29 150q-61 0 -113 26.5t-84 71.5q-62 87 -62 228q0 134 45.5 250t123.5 199q54 57 129 95t140 47zM473 250l142 726q-110 -24 -183.5 -152.5t-73.5 -327.5q0 -86 12.5 -127.5t39.5 -75.5q27 -33 63 -43z" />
<glyph unicode="&#xa3;" horiz-adv-x="897" d="M336 174q82 0 126 -15t81 -42q49 -39 108 -39q49 0 111.5 24.5t105.5 71.5l33 -27q-43 -78 -121.5 -125t-181.5 -47q-51 0 -92 17t-90 49q-82 53 -142 53q-45 0 -68.5 -16.5t-27.5 -36.5q-7 -37 -36.5 -56.5t-59.5 -19.5q-20 0 -33.5 15t-9.5 34q12 60 117 111 q16 11 41 33q76 66 116 163.5t66 223.5l10 53h-135l16 82h134l4 16q25 123 77 210t148 165q125 107 278 107q19 0 43 -5t48 -15t38 -28.5t9 -42.5q-6 -36 -33.5 -56.5t-63.5 -20.5q-29 0 -59 37q-15 15 -24 22.5t-26.5 15t-37.5 7.5q-69 0 -137.5 -86.5t-92.5 -210.5 l-22 -115h266l-14 -82h-268l-2 -10q-58 -309 -207 -408q-4 -3 -12 -7q7 1 20 1z" />
<glyph unicode="&#xa4;" horiz-adv-x="897" d="M492 254q-123 0 -209 74l-107 -111l-70 82l125 88q-47 74 -47 162q0 29 6 63q24 129 121 226l-90 84l90 79l74 -102q116 72 233 72q121 0 209 -76l115 113l66 -84l-129 -90q43 -67 43 -154q0 -28 -7 -68q-21 -122 -112 -221l90 -90l-88 -78l-76 107q-113 -76 -237 -76z M315 614q-6 -30 -6 -59q0 -94 53 -154.5t146 -60.5q103 0 183.5 80t101.5 192q4 36 4 56q0 94 -53.5 155.5t-137.5 61.5q-104 0 -187 -80t-104 -191z" />
<glyph unicode="&#xa5;" horiz-adv-x="897" d="M895 340l-16 -80h-294l-22 -113q-9 -48 12.5 -69t81.5 -21h56q15 0 12 -16l-6 -39l-6 -4q-176 4 -256 4l-267 -4l-2 4l7 39q3 16 20 16h53q61 0 91 22.5t38 67.5l22 113h-269l16 80h269l25 129h-270l17 82h257l-136 475q-13 49 -32 71.5t-58 22.5h-15q-18 6 -16 17l6 37 l4 4q40 -7 186 -7q125 0 179 7l2 -4l-6 -35q-5 -19 -19 -19h-27q-48 0 -55 -26q-2 -12 10 -64l123 -436l277 436q32 58 33 66q3 14 -7.5 20t-38.5 6h-30q-15 0 -10 15l8 37l2 4q56 -7 160 -7q79 0 147 7l4 -4l-6 -35q-4 -17 -23 -17h-14q-81 0 -141 -96l-304 -475h269 l-16 -82h-294l-25 -129h294z" />
<glyph unicode="&#xa6;" horiz-adv-x="419" d="M324 330l-131 -742h-101l131 742h101zM510 1380l-131 -741h-100l131 741h100z" />
<glyph unicode="&#xa7;" horiz-adv-x="968" d="M442 852q-58 79 -58 166q0 138 97.5 234t270.5 96q123 0 191.5 -56t68.5 -124q0 -105 -86 -105q-36 0 -53 24.5t-19 59.5q-3 67 -26.5 102t-84.5 35q-87 0 -146.5 -52.5t-59.5 -140.5q0 -59 35.5 -117t105.5 -100q8 -5 46.5 -27.5t52 -31t47 -32t48 -38.5t38 -41.5 t34 -51t19 -57t8.5 -67.5q0 -29 -4 -58.5t-18.5 -72.5t-38 -82.5t-66.5 -85t-100 -84.5q52 -69 52 -148q0 -153 -109.5 -251t-270.5 -98q-122 0 -185.5 55.5t-63.5 124.5q0 40 21.5 72t71.5 32q62 0 66 -84q2 -33 6 -55t15 -42t32 -30t53 -10q85 0 147.5 62.5t62.5 152.5 q0 112 -138 195q-9 6 -47 28t-52 31t-47 32t-48 38t-38.5 41.5t-34 51t-19 57t-8.5 67.5q0 37 8.5 77t31 93t72 109.5t120.5 105.5zM704 189q64 45 98.5 96t34.5 130q0 49 -17 90.5t-53 77t-66.5 58.5t-82.5 57q-9 6 -14 9q-74 48 -124 100q-33 -24 -53 -42t-41.5 -45.5 t-32 -62t-10.5 -77.5q0 -40 13.5 -76t30 -60.5t51.5 -55t56 -45t66 -44.5q10 -7 15 -10q83 -55 129 -100z" />
<glyph unicode="&#xa8;" horiz-adv-x="768" d="M428 1266q34 0 56 -22t22 -54q0 -47 -35.5 -79t-75.5 -32q-34 0 -56 22t-22 56q0 45 35 77t76 32zM758 1268q33 0 55.5 -22.5t22.5 -55.5q0 -45 -35 -77t-76 -32q-34 0 -56 22t-22 54q0 47 35 79t76 32z" />
<glyph unicode="&#xa9;" horiz-adv-x="1296" d="M895 444q-35 -54 -96.5 -92.5t-139.5 -38.5q-142 0 -228.5 93.5t-86.5 222.5q0 120 85.5 212.5t223.5 92.5q81 0 133 -14.5t78 -14.5l25 -160l-55 -8q-5 28 -8.5 43t-11.5 36.5t-19.5 32t-30 22t-45.5 16t-64 4.5q-32 0 -63 -12t-62.5 -39.5t-51 -83t-19.5 -131.5 q0 -109 54 -182.5t153 -73.5q114 0 186 104zM649 47q-158 0 -291.5 78.5t-210.5 212t-77 289.5q0 117 46 224t123.5 184.5t184.5 123t225 45.5q157 0 290 -77t210.5 -210t77.5 -290t-77.5 -290.5t-210.5 -211.5t-290 -78zM649 1141q-141 0 -260 -68.5t-187.5 -187 t-68.5 -258.5q0 -139 68.5 -257.5t187.5 -187.5t260 -69q139 0 257.5 68.5t187.5 187t69 258.5t-68.5 258.5t-187 187t-258.5 68.5z" />
<glyph unicode="&#xaa;" horiz-adv-x="565" d="M598 1028q-128 -33 -180 -65t-64 -80q-2 -10 -2 -27q0 -57 70 -57q50 0 137 67zM610 733q-31 0 -47 21.5t-16 50.5q0 6 2 8q-61 -47 -98 -63.5t-82 -16.5q-53 0 -86 29.5t-33 79.5q0 11 4 35q28 121 238 176l118 30q11 45 11 82q0 52 -21 70t-53 18q-49 0 -80.5 -15 t-36.5 -40q-4 -16 -4 -20v-7q2 -2 2 -8q0 -10 -2 -16q-4 -15 -19.5 -29t-39.5 -14q-19 0 -30 10t-11 27q0 2 1 7t1 7q13 58 89.5 104t141.5 46q160 0 160 -150q0 -43 -10 -84l-35 -153q-15 -64 -15 -91q0 -26 15 -26q11 0 24 10l11 -33q-17 -17 -46 -31t-53 -14z" />
<glyph unicode="&#xab;" horiz-adv-x="950" d="M354 440q93 -115 195 -344l-70 -49q-78 127 -132.5 200t-127.5 144q-23 23 -35 33l6 33l50 32q104 71 191 145.5t216 199.5l47 -50q-203 -234 -340 -344zM688 440q93 -115 195 -344l-68 -49q-78 127 -132.5 200t-127.5 144q-23 23 -35 33l6 33l49 32q104 72 192 147 t216 198l45 -50q-203 -234 -340 -344z" />
<glyph unicode="&#xac;" horiz-adv-x="1146" d="M1038 272l80 459h-940l17 90h1048l-96 -549h-109z" />
<glyph unicode="&#xad;" horiz-adv-x="716" d="M647 483h-465q-10 0 -17 8.5t-7 20.5q2 4 2 6q5 25 25.5 50.5t37.5 25.5h469q23 0 23 -25v-12q-3 -19 -26 -46.5t-42 -27.5z" />
<glyph unicode="&#xae;" horiz-adv-x="1296" d="M854 762q0 -30 -12 -57t-29 -44t-34.5 -30t-29.5 -19l-12 -6l99 -168q38 -63 82 -63v-27q-27 -8 -48 -8q-90 0 -127 78l-98 162q-11 8 -55 8v-195q0 -9 2 -12.5t12 -3.5h25q22 0 22 -12v-23q-85 4 -114 4l-113 -4v25q0 10 20 10h25q9 0 12.5 3t3.5 13v457q0 22 -8 22 l-33 -2q-20 3 -20 13v22q72 10 235 10q55 0 95.5 -15t61 -39t29.5 -48.5t9 -50.5zM752 762q0 54 -27 86.5t-78 32.5q-22 0 -57 -7v-243q25 0 42 1.5t42 8.5t40 20t26.5 39t11.5 62zM649 47q-158 0 -291.5 78.5t-210.5 212t-77 289.5q0 117 46 224t123.5 184.5t184.5 123 t225 45.5q157 0 290 -77t210.5 -210t77.5 -290t-77.5 -290.5t-210.5 -211.5t-290 -78zM649 1141q-141 0 -260 -68.5t-187.5 -187t-68.5 -258.5q0 -139 68.5 -257.5t187.5 -187.5t260 -69q139 0 257.5 68.5t187.5 187t69 258.5t-68.5 258.5t-187 187t-258.5 68.5z" />
<glyph unicode="&#xaf;" horiz-adv-x="813" d="M838 1083h-502q-21 0 -21 23q0 4 2 8q3 20 20.5 40t35.5 20h499q12 0 18.5 -7t6.5 -16v-6q-3 -20 -22 -41t-37 -21z" />
<glyph unicode="&#xb0;" horiz-adv-x="546" d="M285 1214q13 84 83.5 143.5t155.5 59.5q74 0 122 -47.5t48 -120.5q0 -23 -2 -35q-15 -85 -84.5 -144.5t-154.5 -59.5q-76 0 -124 47.5t-48 120.5q0 12 4 36zM625 1212q0 4 1 13.5t1 13.5q0 50 -28.5 86.5t-84.5 36.5q-62 0 -107 -46t-55 -104q-4 -20 -4 -28 q0 -49 30.5 -83t84.5 -34q60 0 105.5 44t56.5 101z" />
<glyph unicode="&#xb1;" horiz-adv-x="1079" d="M969 137l-19 -100h-809l19 100h809zM715 698h352l-16 -100h-355l-61 -354h-103l64 354h-356l18 100h354l64 357h100z" />
<glyph unicode="&#xb2;" horiz-adv-x="628" d="M385 1202q-19 0 -33 12t-14 29q0 6 2 8q10 52 76 105t174 53q79 0 134.5 -32t55.5 -101q0 -23 -4 -37q-11 -66 -66 -121.5t-163 -122.5q-153 -95 -170 -184h166q68 0 143 137l47 -10q-42 -89 -74 -193h-421q12 67 74 130t161 131q90 61 129 107t53 124q4 20 4 31 q0 48 -28 70t-60 22q-60 0 -88 -18t-32 -42q-2 -9 -1 -25t-1 -24q-4 -22 -25.5 -35.5t-38.5 -13.5z" />
<glyph unicode="&#xb3;" horiz-adv-x="628" d="M635 1278q0 4 1 11t1 11q0 31 -20 45.5t-50 14.5q-38 0 -78.5 -18.5t-48.5 -53.5q-14 -59 -63 -59q-18 0 -28 9t-11.5 15.5t-1.5 12.5q3 15 20 37.5t47.5 47t83.5 41.5t115 17q72 0 112 -26t40 -72q0 -15 -2 -23q-17 -82 -131 -139q52 -5 92.5 -41.5t40.5 -101.5 q0 -13 -4 -37q-20 -104 -120 -170t-224 -66q-59 0 -114.5 21.5t-55.5 50.5q0 18 20.5 31.5t38.5 13.5t27.5 -7t19.5 -22q22 -37 94 -37q19 0 43 7t55 23.5t57 52.5t36 85q2 12 2 31q0 31 -14.5 52.5t-38 31t-43.5 13t-41 3.5q-11 0 -43 -4l6 49q71 9 119.5 48.5t60.5 101.5z " />
<glyph unicode="&#xb4;" horiz-adv-x="698" d="M612 1440q12 4 31 4q60 0 92 -37q7 -7 13 -10v-23l-275 -223q-49 -41 -65 -41q-10 0 -17.5 7t-7.5 16q0 24 20 49z" />
<glyph unicode="&#xb5;" horiz-adv-x="993" d="M276 731q3 14 7.5 39t7.5 40t10 34t15 29.5t22 18t33 7.5q47 0 66.5 -13.5t19.5 -41.5q0 -11 -4.5 -32.5t-12 -50t-10.5 -40.5l-96 -420q-11 -45 -13.5 -80t3 -68.5t30.5 -52t68 -18.5q67 0 149 103t211 321l60 225q4 16 9.5 46.5t10 47.5t13 36.5t24 28.5t37.5 9 q47 0 66.5 -13.5t19.5 -41.5q0 -14 -12.5 -63t-14.5 -60l-114 -467q-23 -102 -23 -117q0 -35 21 -35q16 0 55.5 29.5t77.5 73.5q35 0 47 -35q-148 -190 -285 -190q-43 0 -59.5 17.5t-16.5 49.5q0 61 35 189l23 79l-6 4q-61 -90 -103.5 -144.5t-93.5 -103t-101.5 -70 t-109.5 -21.5q-58 0 -86 47q-9 0 -18.5 -6t-10.5 -13q-14 -60 -14 -153q0 -22 1 -63t1 -60q0 -118 -37 -164.5t-84 -46.5q-25 0 -52.5 29t-27.5 75q0 41 49.5 170.5t63.5 188.5q5 23 18.5 122.5t28.5 167.5z" />
<glyph unicode="&#xb6;" horiz-adv-x="1232" d="M758 -424q42 0 59.5 28t30.5 99l254 1436q6 44 6 67q0 18 -3 29.5t-10.5 17t-13.5 7t-18 2.5q-20 0 -34.5 -8t-23.5 -18.5t-15.5 -30.5t-9.5 -34t-7 -38l-252 -1426q-6 -30 -6 -63q0 -68 43 -68zM969 -295q-8 -41 -8 -72q0 -33 14 -43t51 -12h61q13 0 9 -14l-9 -43h-671 l8 43q3 14 14 14h60q51 1 69.5 25t32.5 104l133 758q-55 -25 -162 -25q-49 0 -96 9.5t-97 34.5t-87.5 63t-61.5 100t-24 141q0 59 8 111q35 194 163.5 309t328.5 115q89 0 202.5 -5t128.5 -5l144 6l227 4l-8 -43q-3 -14 -15 -14h-61q-52 0 -70.5 -26t-31.5 -101z" />
<glyph unicode="&#xb7;" horiz-adv-x="512" d="M365 408q-43 0 -77 33.5t-34 76.5t34 77t77 34t76.5 -34t33.5 -77t-33.5 -76.5t-76.5 -33.5z" />
<glyph unicode="&#xb8;" horiz-adv-x="1107" d="M563 -164q-41 0 -94 -12l-10 12l121 178h69l-76 -118q24 6 54 6q53 0 87 -25t34 -72q0 -76 -75.5 -126t-180.5 -50q-74 0 -146 35l29 37q39 -13 58.5 -16.5t55.5 -3.5q57 0 101.5 27.5t44.5 74.5q0 24 -20.5 38.5t-51.5 14.5z" />
<glyph unicode="&#xb9;" horiz-adv-x="628" d="M508 1272q-45 0 -123 -33l-8 55q135 46 260 115h33l-105 -535q-7 -33 4 -54t33 -21h57q14 0 11 -11l-8 -43q-107 3 -177 3l-200 -3l8 43q5 11 16 11h74q25 0 48 21t30 54l59 312q10 50 8 68t-20 18z" />
<glyph unicode="&#xba;" horiz-adv-x="714" d="M252 879q25 131 114.5 205.5t221.5 74.5q73 0 123.5 -22.5t73.5 -60t31 -86t-5 -99.5q-24 -113 -112.5 -191.5t-225.5 -78.5q-115 0 -179.5 74.5t-41.5 183.5zM565 1108q-73 0 -124.5 -60.5t-67.5 -148.5q-17 -85 15.5 -153t117.5 -68q24 0 49 8t52 26.5t49 56t32 89.5 q23 120 -11 185t-112 65z" />
<glyph unicode="&#xbb;" horiz-adv-x="950" d="M799 440q-93 115 -195 344l70 50q79 -129 133 -202t127 -143q23 -22 35 -32l-6 -33l-50 -33q-104 -72 -191.5 -146.5t-215.5 -197.5l-47 49q203 234 340 344zM465 440q-93 115 -195 344l68 50q79 -129 133 -202t127 -143q23 -22 35 -32l-6 -33l-49 -33 q-105 -73 -193.5 -147.5t-214.5 -196.5l-45 49q203 234 340 344z" />
<glyph unicode="&#xbc;" horiz-adv-x="1351" d="M1284 1108l84 -16l-1081 -1178l-86 16zM502 1171q-19 0 -58 -10.5t-65 -21.5l-8 55q135 46 260 115h33l-105 -535q-7 -33 4 -54.5t33 -21.5h57q3 0 6 -1t4.5 -3t0.5 -6l-9 -43q-106 2 -176 2l-200 -2l8 43q5 10 16 10h74q25 0 48 21.5t30 54.5l59 311q10 49 8 67.5 t-20 18.5zM1155 393q-80 -79 -165 -170.5t-99 -116.5h201zM1065 -12l10 49h-241q-38 0 -38 24q0 11 11 33q16 24 27 35q91 109 296 301q54 47 87 64q2 2 28 2q14 0 26 -4.5t9 -16.5l-82 -369h115l-29 -69h-102l-11 -49q-12 -53 6 -71.5t78 -22.5q3 -12 -1 -31t-13 -29 q-61 2 -158 2q-100 0 -161 -2q-5 9 -0.5 28.5t14.5 31.5q67 3 91.5 19t37.5 75z" />
<glyph unicode="&#xbd;" horiz-adv-x="1351" d="M1243 1108l84 -16l-1081 -1178l-86 16zM506 1171q-19 0 -58 -10.5t-65 -21.5l-8 55q135 46 260 115h33l-105 -535q-7 -33 4 -54.5t33 -21.5h57q3 0 6 -1t4.5 -3t0.5 -6l-9 -43q-106 2 -176 2l-200 -2l8 43q5 10 16 10h74q25 0 48 21.5t30 54.5l59 311q10 49 8 67.5 t-20 18.5zM954 295q-19 0 -33 12t-14 29q0 6 2 8q10 52 76 105t174 53q79 0 135 -32t56 -101q0 -23 -4 -37q-11 -66 -66.5 -121t-163.5 -123q-153 -95 -170 -184h166q68 0 143 137l48 -10q-42 -89 -74 -193h-422q12 67 73.5 129.5t161.5 130.5q90 61 129.5 107.5t53.5 124.5 q4 20 4 30q0 48 -28 70.5t-60 22.5q-60 0 -88.5 -18t-32.5 -42q-2 -9 -1 -25t-1 -24q-4 -22 -25.5 -35.5t-38.5 -13.5z" />
<glyph unicode="&#xbe;" horiz-adv-x="1351" d="M1284 1108l84 -16l-1081 -1178l-86 16zM1102 397q-81 -80 -165.5 -170.5t-98.5 -115.5h200zM1012 -8l10 49h-242q-37 0 -37 24q0 11 11 33q18 27 26 35q87 105 297 301q56 48 86 64q2 2 29 2q14 0 26 -4.5t9 -16.5l-82 -368h115l-29 -70h-103l-10 -49q-12 -53 6 -71.5 t78 -22.5q3 -12 -1 -31t-13 -29q-61 2 -158 2q-101 0 -162 -2q-5 9 0 28.5t15 31.5q67 3 91.5 19t37.5 75zM631 1174q0 4 1 11t1 11q0 59 -70 59q-38 0 -78.5 -18.5t-48.5 -52.5q-14 -60 -63 -60q-18 0 -28 9t-11.5 15.5t-1.5 12.5q3 15 20 37.5t47.5 47.5t83.5 42t115 17 q72 0 112 -26.5t40 -72.5q0 -14 -2 -22q-17 -82 -132 -140q52 -5 93 -41.5t41 -101.5q0 -7 -5 -37q-20 -103 -119.5 -169t-224.5 -66q-60 0 -115 21t-55 50q0 18 21 31.5t39 13.5q27 0 47 -28q22 -37 94 -37q19 0 43 7t55 23.5t57 52.5t36 85q2 12 2 31q0 31 -14.5 52.5 t-38.5 31t-44 13t-41 3.5q-11 0 -43 -4l7 49q71 9 119.5 48.5t60.5 101.5z" />
<glyph unicode="&#xbf;" horiz-adv-x="829" d="M715 813q-7 -44 -45.5 -76t-83.5 -32q-40 0 -66 26t-26 64q0 3 1 9t1 9q9 44 47 76.5t82 32.5q39 0 65.5 -25.5t26.5 -62.5q0 -4 -1 -11t-1 -10zM584 -279q7 36 -4 54q-9 19 -5 49q6 33 34.5 52.5t60.5 19.5q27 0 48 -15t21 -51q0 -3 -1 -11t-1 -12q-18 -102 -135 -184 q-110 -80 -268 -80q-137 0 -214 66t-77 180q0 12 3 35.5t3 28.5q8 47 30.5 90.5t45.5 72.5t65 64.5t64.5 51.5t69.5 48q97 64 125 103q52 72 65 149l16 90q3 21 29 21q25 0 19 -21l-17 -94q-7 -44 -15 -74t-27 -76.5t-57 -91.5t-93 -88q-76 -61 -115.5 -115t-50.5 -122 q-4 -36 -4 -54q0 -86 45.5 -144t120.5 -58q86 0 148.5 34.5t70.5 81.5z" />
<glyph unicode="&#xc0;" horiz-adv-x="1366" d="M1225 1475q0 -13 -9.5 -26t-29.5 -13q-25 0 -82 24l-289 129l178 92l209 -172q23 -20 23 -34zM629 580h342l-84 546h-4l-297 -520q-5 -8 -5 -12q0 -14 48 -14zM330 162q-15 -25 -15 -48q0 -49 74 -55l55 -4q15 0 13 -16l-4 -39l-7 -4q-144 4 -256 4q-34 0 -182 -4l-2 4 l6 39q3 16 19 16q71 5 118.5 35t100.5 119l645 1065q25 42 42 58t38 16q20 0 28 -14.5t13 -47.5l188 -1110q9 -60 36.5 -86.5t86.5 -32.5l21 -2q18 0 16 -16l-4 -39l-4 -4q-144 4 -232 4q-112 0 -260 -4l-2 4l4 39q1 16 17 16l57 4q100 7 100 69q0 5 -2 19l-51 347h-409 q-35 0 -50 -7t-26 -28z" />
<glyph unicode="&#xc1;" horiz-adv-x="1366" d="M811 1436q-25 0 -25 22q0 24 43 51l289 172l133 -92l-346 -129q-74 -24 -94 -24zM629 580h342l-84 546h-4l-297 -520q-5 -8 -5 -12q0 -14 48 -14zM330 162q-15 -25 -15 -48q0 -49 74 -55l55 -4q15 0 13 -16l-4 -39l-7 -4q-144 4 -256 4q-34 0 -182 -4l-2 4l6 39 q3 16 19 16q71 5 118.5 35t100.5 119l645 1065q25 42 42 58t38 16q20 0 28 -14.5t13 -47.5l188 -1110q9 -60 36.5 -86.5t86.5 -32.5l21 -2q18 0 16 -16l-4 -39l-4 -4q-144 4 -232 4q-112 0 -260 -4l-2 4l4 39q1 16 17 16l57 4q100 7 100 69q0 5 -2 19l-51 347h-409 q-35 0 -50 -7t-26 -28z" />
<glyph unicode="&#xc2;" horiz-adv-x="1366" d="M1098 1671q60 -103 162 -192l-43 -43q-117 60 -189 127q-120 -75 -248 -127l-18 43q122 79 248 192h88zM629 580h342l-84 546h-4l-297 -520q-5 -8 -5 -12q0 -14 48 -14zM330 162q-15 -25 -15 -48q0 -49 74 -55l55 -4q15 0 13 -16l-4 -39l-7 -4q-144 4 -256 4 q-34 0 -182 -4l-2 4l6 39q3 16 19 16q71 5 118.5 35t100.5 119l645 1065q25 42 42 58t38 16q20 0 28 -14.5t13 -47.5l188 -1110q9 -60 36.5 -86.5t86.5 -32.5l21 -2q18 0 16 -16l-4 -39l-4 -4q-144 4 -232 4q-112 0 -260 -4l-2 4l4 39q1 16 17 16l57 4q100 7 100 69 q0 5 -2 19l-51 347h-409q-35 0 -50 -7t-26 -28z" />
<glyph unicode="&#xc3;" horiz-adv-x="1366" d="M1118 1528q36 0 63.5 22t60.5 84l46 -12q-75 -184 -215 -184q-52 0 -120 53q-63 45 -102 45t-66.5 -23t-53.5 -75l-47 10q41 93 88.5 137.5t112.5 44.5q66 0 135 -57q50 -45 98 -45zM629 580h342l-84 546h-4l-297 -520q-5 -8 -5 -12q0 -14 48 -14zM330 162 q-15 -25 -15 -48q0 -49 74 -55l55 -4q15 0 13 -16l-4 -39l-7 -4q-144 4 -256 4q-34 0 -182 -4l-2 4l6 39q3 16 19 16q71 5 118.5 35t100.5 119l645 1065q25 42 42 58t38 16q20 0 28 -14.5t13 -47.5l188 -1110q9 -60 36.5 -86.5t86.5 -32.5l21 -2q18 0 16 -16l-4 -39l-4 -4 q-144 4 -232 4q-112 0 -260 -4l-2 4l4 39q1 16 17 16l57 4q100 7 100 69q0 5 -2 19l-51 347h-409q-35 0 -50 -7t-26 -28z" />
<glyph unicode="&#xc4;" horiz-adv-x="1366" d="M641 1446q0 40 29 69t69 29t69.5 -29t29.5 -69t-29.5 -69t-69.5 -29t-69 29t-29 69zM1126 1446q0 40 29.5 69t69.5 29t69 -29t29 -69t-29 -69t-69 -29t-69.5 29t-29.5 69zM629 580h342l-84 546h-4l-297 -520q-5 -8 -5 -12q0 -14 48 -14zM330 162q-15 -25 -15 -48 q0 -49 74 -55l55 -4q15 0 13 -16l-4 -39l-7 -4q-144 4 -256 4q-34 0 -182 -4l-2 4l6 39q3 16 19 16q71 5 118.5 35t100.5 119l645 1065q25 42 42 58t38 16q20 0 28 -14.5t13 -47.5l188 -1110q9 -60 36.5 -86.5t86.5 -32.5l21 -2q18 0 16 -16l-4 -39l-4 -4q-144 4 -232 4 q-112 0 -260 -4l-2 4l4 39q1 16 17 16l57 4q100 7 100 69q0 5 -2 19l-51 347h-409q-35 0 -50 -7t-26 -28z" />
<glyph unicode="&#xc5;" horiz-adv-x="1366" d="M1004 1583q-46 0 -81.5 -34t-44.5 -81q-9 -45 12.5 -79.5t66.5 -34.5t80.5 34.5t45.5 79.5q10 48 -12 81.5t-67 33.5zM803 1468q14 70 77.5 120t134.5 50q72 0 115.5 -49.5t28.5 -120.5q-11 -53 -51.5 -96t-95.5 -62q2 -8 4 -24l188 -1110q9 -60 36.5 -86.5t86.5 -32.5 l21 -2q18 0 16 -16l-4 -39l-4 -4q-144 4 -232 4q-112 0 -260 -4l-2 4l4 39q1 16 17 16l57 4q100 7 100 69q0 5 -2 19l-51 347h-409q-35 0 -50 -7t-26 -28l-172 -297q-15 -25 -15 -48q0 -49 74 -55l55 -4q15 0 13 -16l-4 -39l-7 -4q-144 4 -256 4q-34 0 -182 -4l-2 4l6 39 q3 16 19 16q71 5 118.5 35t100.5 119l645 1065q3 6 17 28q-58 12 -90 58.5t-19 107.5zM629 580h342l-84 546h-4l-297 -520q-5 -8 -5 -12q0 -14 48 -14z" />
<glyph unicode="&#xc6;" horiz-adv-x="1697" d="M653 625h312l108 553q7 43 -2 47zM926 0l-254 -4l-4 4l8 37q4 18 18 18l54 4q60 4 88 26.5t36 66.5l78 393h-350l-283 -406q-17 -24 -23.5 -36.5t-10.5 -22t4.5 -13t18 -5.5t34.5 -3l55 -4q11 0 11 -12l-9 -43l-2 -4q-133 4 -211 4l-178 -4l-2 4l8 39q3 13 23 16l45 4 q56 4 81.5 24t74.5 91l704 1008q21 37 6.5 57.5t-47.5 22.5l-59 4q-16 0 -13 14l9 41l4 2l344 -2h151h437q-16 -174 -19 -315l-59 -11q-4 39 -7 58.5t-9 51t-13.5 46.5t-20.5 35.5t-30 29.5t-41.5 16t-56.5 7h-197q-34 0 -58 -26.5t-30 -63.5l-80 -406h201q48 0 71.5 21 t44.5 70l25 61q8 16 18 16h43q7 0 7 -8q-47 -149 -56 -194q-5 -31 -9.5 -71t-8 -78.5t-4.5 -47.5l-4 -6h-45q-15 0 -15 14l2 64q-2 47 -19 68.5t-65 21.5h-200l-101 -522q-13 -72 58 -72h256q54 0 100 21t82 61t63.5 84.5t55.5 105.5l57 -10q-81 -200 -117 -342h-665z" />
<glyph unicode="&#xc7;" horiz-adv-x="1261" d="M681 -197q-53 0 -95 -12l-9 12l109 177q-128 1 -226.5 43t-158 114t-89.5 162t-30 195q0 74 15 151q38 196 158.5 359t282 253.5t323.5 90.5q105 0 183 -22t132 -45.5t96 -25.5q-15 -135 -18 -317l-60 -8q-31 342 -370 342q-49 0 -109 -20.5t-128 -67.5t-128 -113 t-110.5 -167t-73.5 -220q-17 -90 -17 -173q0 -92 20.5 -171t61.5 -142t109.5 -99t157.5 -36q137 0 254.5 52.5t244.5 171.5q29 0 39 -31q-224 -243 -487 -273l-69 -120q25 6 54 6q55 0 89 -27.5t34 -73.5q0 -79 -77 -128.5t-176 -49.5q-46 0 -75.5 8t-68.5 27q7 33 31 53 q71 -28 113 -28q55 0 89 28.5t34 75.5q0 49 -55 49z" />
<glyph unicode="&#xc8;" horiz-adv-x="1077" d="M977 1468q0 -13 -9.5 -25.5t-29.5 -12.5q-25 0 -82 24l-289 129l178 92l209 -172q23 -20 23 -35zM1133 1323q0 -18 -6 -130t-11 -167l-57 -10q-5 48 -11 78t-18.5 60.5t-31.5 47t-50 27t-74 10.5h-204q-72 0 -86 -70l-82 -430h250q49 0 74.5 20.5t39.5 65.5l15 52 q4 16 18 16h43l6 -8q-33 -119 -43 -185q-17 -88 -26 -178l-11 -6h-43q-7 0 -9.5 5.5t-0.5 10.5l4 52q1 6 1 17q0 34 -19.5 47.5t-65.5 13.5h-250l-100 -515q-2 -16 -2 -21q0 -26 15.5 -36t45.5 -10h267q193 0 317 268l59 -10q-6 -14 -139 -342q-156 4 -250 4h-422 q-65 0 -249 -4l-4 4l8 41q5 14 18 14l60 4q57 4 83 24t35 64l199 1022q3 17 3 29q0 31 -20.5 45.5t-66.5 18.5l-57 4q-18 0 -13 14l9 41l4 4q184 -4 247 -4h498q47 0 94 8q9 0 9 -6z" />
<glyph unicode="&#xc9;" horiz-adv-x="1077" d="M563 1425q-24 0 -24 23q0 24 43 51l288 172l134 -92l-347 -129q-77 -25 -94 -25zM1133 1323q0 -18 -6 -130t-11 -167l-57 -10q-5 48 -11 78t-18.5 60.5t-31.5 47t-50 27t-74 10.5h-204q-72 0 -86 -70l-82 -430h250q49 0 74.5 20.5t39.5 65.5l15 52q4 16 18 16h43l6 -8 q-33 -119 -43 -185q-17 -88 -26 -178l-11 -6h-43q-7 0 -9.5 5.5t-0.5 10.5l4 52q1 6 1 17q0 34 -19.5 47.5t-65.5 13.5h-250l-100 -515q-2 -16 -2 -21q0 -26 15.5 -36t45.5 -10h267q193 0 317 268l59 -10q-6 -14 -139 -342q-156 4 -250 4h-422q-65 0 -249 -4l-4 4l8 41 q5 14 18 14l60 4q57 4 83 24t35 64l199 1022q3 17 3 29q0 31 -20.5 45.5t-66.5 18.5l-57 4q-18 0 -13 14l9 41l4 4q184 -4 247 -4h498q47 0 94 8q9 0 9 -6z" />
<glyph unicode="&#xca;" horiz-adv-x="1077" d="M909 1661q61 -105 162 -193l-43 -43q-114 59 -188 127q-120 -75 -248 -127l-19 43q118 77 248 193h88zM1133 1323q0 -18 -6 -130t-11 -167l-57 -10q-5 48 -11 78t-18.5 60.5t-31.5 47t-50 27t-74 10.5h-204q-72 0 -86 -70l-82 -430h250q49 0 74.5 20.5t39.5 65.5l15 52 q4 16 18 16h43l6 -8q-33 -119 -43 -185q-17 -88 -26 -178l-11 -6h-43q-7 0 -9.5 5.5t-0.5 10.5l4 52q1 6 1 17q0 34 -19.5 47.5t-65.5 13.5h-250l-100 -515q-2 -16 -2 -21q0 -26 15.5 -36t45.5 -10h267q193 0 317 268l59 -10q-6 -14 -139 -342q-156 4 -250 4h-422 q-65 0 -249 -4l-4 4l8 41q5 14 18 14l60 4q57 4 83 24t35 64l199 1022q3 17 3 29q0 31 -20.5 45.5t-66.5 18.5l-57 4q-18 0 -13 14l9 41l4 4q184 -4 247 -4h498q47 0 94 8q9 0 9 -6z" />
<glyph unicode="&#xcb;" horiz-adv-x="1077" d="M561 1520q7 38 40.5 65t72.5 27q34 0 55 -21t21 -53q0 -3 -1 -9t-1 -9q-8 -38 -40.5 -65.5t-70.5 -27.5q-34 0 -56 22t-22 54q0 2 1 8t1 9zM950 1522q8 37 40.5 64.5t70.5 27.5q33 0 54.5 -21.5t21.5 -52.5q0 -14 -2 -18q-6 -38 -38.5 -66.5t-70.5 -28.5q-34 0 -56 22 t-22 56q0 11 2 17zM1133 1323q0 -18 -6 -130t-11 -167l-57 -10q-5 48 -11 78t-18.5 60.5t-31.5 47t-50 27t-74 10.5h-204q-72 0 -86 -70l-82 -430h250q49 0 74.5 20.5t39.5 65.5l15 52q4 16 18 16h43l6 -8q-33 -119 -43 -185q-17 -88 -26 -178l-11 -6h-43q-7 0 -9.5 5.5 t-0.5 10.5l4 52q1 6 1 17q0 34 -19.5 47.5t-65.5 13.5h-250l-100 -515q-2 -16 -2 -21q0 -26 15.5 -36t45.5 -10h267q193 0 317 268l59 -10q-6 -14 -139 -342q-156 4 -250 4h-422q-65 0 -249 -4l-4 4l8 41q5 14 18 14l60 4q57 4 83 24t35 64l199 1022q3 17 3 29 q0 31 -20.5 45.5t-66.5 18.5l-57 4q-18 0 -13 14l9 41l4 4q184 -4 247 -4h498q47 0 94 8q9 0 9 -6z" />
<glyph unicode="&#xcc;" horiz-adv-x="573" d="M678 1464q0 -13 -9.5 -26t-29.5 -13q-23 0 -82 25l-289 129l178 92l209 -172q23 -20 23 -35zM436 1165q9 46 -11 68t-79 27l-70 6q-4 8 -1 30t8 29q180 -4 260 -4q61 0 245 4q6 -14 4 -33.5t-8 -25.5l-63 -6q-61 -6 -89.5 -28.5t-37.5 -66.5l-199 -1009q-9 -47 11 -68.5 t79 -26.5l70 -6q4 -8 1.5 -30.5t-7.5 -28.5q-180 4 -260 4q-62 0 -246 -4q-6 14 -4 33.5t8 25.5l64 6q61 6 90 28t37 67z" />
<glyph unicode="&#xcd;" horiz-adv-x="573" d="M428 1425q-25 0 -25 23q0 24 43 51l289 172l133 -92l-346 -129q-77 -25 -94 -25zM436 1165q9 46 -11 68t-79 27l-70 6q-4 8 -1 30t8 29q180 -4 260 -4q61 0 245 4q6 -14 4 -33.5t-8 -25.5l-63 -6q-61 -6 -89.5 -28.5t-37.5 -66.5l-199 -1009q-9 -47 11 -68.5t79 -26.5 l70 -6q4 -8 1.5 -30.5t-7.5 -28.5q-180 4 -260 4q-62 0 -246 -4q-6 14 -4 33.5t8 25.5l64 6q61 6 90 28t37 67z" />
<glyph unicode="&#xce;" horiz-adv-x="573" d="M653 1661q61 -105 162 -193l-43 -43q-114 59 -188 127q-120 -75 -248 -127l-19 43q118 77 248 193h88zM436 1165q9 46 -11 68t-79 27l-70 6q-4 8 -1 30t8 29q180 -4 260 -4q61 0 245 4q6 -14 4 -33.5t-8 -25.5l-63 -6q-61 -6 -89.5 -28.5t-37.5 -66.5l-199 -1009 q-9 -47 11 -68.5t79 -26.5l70 -6q4 -8 1.5 -30.5t-7.5 -28.5q-180 4 -260 4q-62 0 -246 -4q-6 14 -4 33.5t8 25.5l64 6q61 6 90 28t37 67z" />
<glyph unicode="&#xcf;" horiz-adv-x="573" d="M301 1520q7 38 40.5 65t72.5 27q34 0 54.5 -21t20.5 -53q0 -3 -1 -9t-1 -9q-8 -38 -40 -65.5t-70 -27.5q-34 0 -56 22t-22 54q0 2 1 8t1 9zM690 1522q8 37 40.5 64.5t70.5 27.5q33 0 54.5 -21.5t21.5 -52.5q0 -12 -3 -18q-6 -38 -38 -66.5t-70 -28.5q-34 0 -56 22t-22 56 q0 11 2 17zM436 1165q9 46 -11 68t-79 27l-70 6q-4 8 -1 30t8 29q180 -4 260 -4q61 0 245 4q6 -14 4 -33.5t-8 -25.5l-63 -6q-61 -6 -89.5 -28.5t-37.5 -66.5l-199 -1009q-9 -47 11 -68.5t79 -26.5l70 -6q4 -8 1.5 -30.5t-7.5 -28.5q-180 4 -260 4q-62 0 -246 -4 q-6 14 -4 33.5t8 25.5l64 6q61 6 90 28t37 67z" />
<glyph unicode="&#xd0;" horiz-adv-x="1366" d="M39 37q4 18 18 18l60 4q54 3 83 24t38 69l85 436h-186l17 80h184l98 503q5 23 5 37q0 30 -19.5 40t-71.5 14l-53 4q-17 0 -14 16l6 39l6 4q184 -4 248 -4q34 0 143.5 2t177.5 2q245 0 401 -158.5t156 -397.5q0 -65 -14 -138q-28 -145 -90.5 -259t-140 -183t-173.5 -114 t-184 -62t-178 -17q-117 0 -224.5 2t-129.5 2q-66 0 -250 -4l-4 4zM395 150q-3 -15 -3 -27q0 -23 16.5 -34.5t59.5 -17t126 -5.5q88 0 163.5 13.5t151.5 49t134 92.5t104.5 149t69.5 212q18 92 18 184q0 80 -14.5 149.5t-49 133t-86 108.5t-130.5 71.5t-179 26.5 q-41 0 -67.5 -2.5t-52.5 -10t-40.5 -24t-19.5 -42.5l-99 -508h212l-17 -80h-211z" />
<glyph unicode="&#xd1;" horiz-adv-x="1363" d="M1095 1518q36 0 63.5 22t60.5 84l47 -12q-75 -185 -216 -185q-51 0 -120 54q-63 45 -102 45t-66.5 -23.5t-53.5 -75.5l-47 11q41 93 88.5 137.5t112.5 44.5q67 0 136 -57q50 -45 97 -45zM1407 1141l-213 -1098q-13 -63 -53 -63q-48 0 -70 49l-510 903q-40 67 -55 67 q-19 0 -39 -100l-139 -719q-4 -22 -4 -31q0 -37 22 -61.5t66 -28.5l51 -4q13 -1 12 -16l-4 -39l-4 -4q-184 4 -213 4q-41 0 -225 -4l-4 4l4 37q2 17 28 18l52 4q56 5 88.5 39.5t42.5 81.5l184 946q-2 44 -33.5 90t-75.5 50q-13 2 -21 5.5t-7 10.5l4 39l6 4h270l498 -909 q54 -95 66 -107q7 -6 12 -6q8 0 12.5 13t11.5 49l152 776q3 15 3 31q0 83 -87 90l-49 4q-9 1 -17.5 5.5t-7.5 10.5l6 39l4 4q184 -4 226 -4q29 0 213 4l4 -4l-4 -39q-1 -7 -7.5 -11.5t-11.5 -4.5l-55 -4q-55 -4 -87 -37.5t-42 -83.5z" />
<glyph unicode="&#xd2;" horiz-adv-x="1368" d="M1032 1464q0 -13 -9.5 -26t-29.5 -13q-23 0 -82 25l-288 129l178 92l209 -172q22 -19 22 -35zM893 1278q-70 0 -144 -35.5t-146 -106t-131.5 -191.5t-88.5 -275q-18 -92 -18 -171q0 -209 105 -329.5t261 -120.5q173 0 316 158.5t196 427.5q21 112 21 205 q0 213 -100 325.5t-271 112.5zM1432 674q-40 -204 -146 -361t-264 -245t-344 -88q-223 0 -361 134.5t-138 365.5q0 69 16 155q39 199 146.5 361.5t263 257t327.5 94.5q227 0 371 -143t144 -380q0 -71 -15 -151z" />
<glyph unicode="&#xd3;" horiz-adv-x="1368" d="M780 1425q-24 0 -24 23q0 24 43 51l288 172l134 -92l-347 -129q-77 -25 -94 -25zM893 1278q-70 0 -144 -35.5t-146 -106t-131.5 -191.5t-88.5 -275q-18 -92 -18 -171q0 -209 105 -329.5t261 -120.5q173 0 316 158.5t196 427.5q21 112 21 205q0 213 -100 325.5t-271 112.5 zM1432 674q-40 -204 -146 -361t-264 -245t-344 -88q-223 0 -361 134.5t-138 365.5q0 69 16 155q39 199 146.5 361.5t263 257t327.5 94.5q227 0 371 -143t144 -380q0 -71 -15 -151z" />
<glyph unicode="&#xd4;" horiz-adv-x="1368" d="M1026 1661q61 -105 162 -193l-43 -43q-117 60 -189 127q-121 -76 -247 -127l-19 43q118 77 248 193h88zM893 1278q-70 0 -144 -35.5t-146 -106t-131.5 -191.5t-88.5 -275q-18 -92 -18 -171q0 -209 105 -329.5t261 -120.5q173 0 316 158.5t196 427.5q21 112 21 205 q0 213 -100 325.5t-271 112.5zM1432 674q-40 -204 -146 -361t-264 -245t-344 -88q-223 0 -361 134.5t-138 365.5q0 69 16 155q39 199 146.5 361.5t263 257t327.5 94.5q227 0 371 -143t144 -380q0 -71 -15 -151z" />
<glyph unicode="&#xd5;" horiz-adv-x="1368" d="M1089 1518q36 0 63.5 22t60.5 84l47 -12q-75 -185 -216 -185q-51 0 -120 54q-63 45 -102 45t-66.5 -23.5t-53.5 -75.5l-47 11q41 93 88.5 137.5t112.5 44.5q67 0 136 -57q50 -45 97 -45zM893 1278q-70 0 -144 -35.5t-146 -106t-131.5 -191.5t-88.5 -275q-18 -92 -18 -171 q0 -209 105 -329.5t261 -120.5q173 0 316 158.5t196 427.5q21 112 21 205q0 213 -100 325.5t-271 112.5zM1432 674q-40 -204 -146 -361t-264 -245t-344 -88q-223 0 -361 134.5t-138 365.5q0 69 16 155q39 199 146.5 361.5t263 257t327.5 94.5q227 0 371 -143t144 -380 q0 -71 -15 -151z" />
<glyph unicode="&#xd6;" horiz-adv-x="1368" d="M428 1446q0 40 29 69t69 29t69.5 -29t29.5 -69t-29.5 -69t-69.5 -29t-69 29t-29 69zM1266 1446q0 40 29 69t69 29t69 -29t29 -69t-29 -69t-69 -29t-69 29t-29 69zM893 1278q-70 0 -144 -35.5t-146 -106t-131.5 -191.5t-88.5 -275q-18 -92 -18 -171q0 -209 105 -329.5 t261 -120.5q173 0 316 158.5t196 427.5q21 112 21 205q0 213 -100 325.5t-271 112.5zM1432 674q-40 -204 -146 -361t-264 -245t-344 -88q-223 0 -361 134.5t-138 365.5q0 69 16 155q39 199 146.5 361.5t263 257t327.5 94.5q227 0 371 -143t144 -380q0 -71 -15 -151z" />
<glyph unicode="&#xd7;" horiz-adv-x="1079" d="M694 471l205 -250l-84 -71l-205 249l-295 -249l-59 71l295 250l-207 252l84 72l207 -252l297 252l57 -72z" />
<glyph unicode="&#xd8;" horiz-adv-x="1368" d="M1489 1372l51 -51l-179 -188q85 -128 85 -308q0 -77 -14 -151q-40 -204 -146 -361t-264 -245t-344 -88q-190 0 -321 100l-160 -168l-54 51l159 167q-123 134 -123 350q0 69 16 155q39 199 146.5 361.5t263 257t327.5 94.5q240 0 384 -157zM893 1278q-70 0 -144 -35.5 t-146 -106t-131.5 -191.5t-88.5 -275q-18 -92 -18 -171q0 -140 53 -248l797 835q-45 95 -128 143.5t-194 48.5zM1244 1010l-786 -824q105 -137 273 -137q173 0 316 158.5t196 427.5q21 112 21 205q0 99 -20 170z" />
<glyph unicode="&#xd9;" horiz-adv-x="1298" d="M1202 1464q0 -13 -9.5 -26t-29.5 -13q-23 0 -82 25l-288 129l178 92l209 -172q22 -19 22 -35zM627 -20q-51 0 -98.5 8.5t-99 33.5t-89 63.5t-62 104t-24.5 150.5q0 69 14 143l135 688q3 15 3 27q0 31 -22 45.5t-71 18.5l-51 4q-15 0 -12 16l6 39l6 4q184 -4 248 -4 q68 0 252 4l4 -4l-8 -39q-3 -16 -19 -16l-51 -4q-60 -4 -89 -25.5t-38 -65.5l-121 -620q-25 -137 -25 -200q0 -112 56 -185q82 -103 213 -103q70 0 128.5 16.5t101 43t78 67.5t58.5 82t42.5 95.5t30.5 98.5t22 101l117 600q3 17 3 29q0 32 -21 47t-70 19l-54 4q-5 0 -9 4.5 t-3 11.5l8 39l4 4q184 -4 215 -4q33 0 217 4l4 -4l-8 -39q-3 -16 -18 -16l-51 -4q-61 -4 -90 -27.5t-37 -67.5l-111 -563q-22 -116 -52 -205.5t-78.5 -171t-113.5 -134t-158.5 -83t-211.5 -30.5z" />
<glyph unicode="&#xda;" horiz-adv-x="1298" d="M788 1425q-24 0 -24 23q0 24 43 51l289 172l133 -92l-346 -129q-77 -25 -95 -25zM627 -20q-51 0 -98.5 8.5t-99 33.5t-89 63.5t-62 104t-24.5 150.5q0 69 14 143l135 688q3 15 3 27q0 31 -22 45.5t-71 18.5l-51 4q-15 0 -12 16l6 39l6 4q184 -4 248 -4q68 0 252 4l4 -4 l-8 -39q-3 -16 -19 -16l-51 -4q-60 -4 -89 -25.5t-38 -65.5l-121 -620q-25 -137 -25 -200q0 -112 56 -185q82 -103 213 -103q70 0 128.5 16.5t101 43t78 67.5t58.5 82t42.5 95.5t30.5 98.5t22 101l117 600q3 17 3 29q0 32 -21 47t-70 19l-54 4q-5 0 -9 4.5t-3 11.5l8 39l4 4 q184 -4 215 -4q33 0 217 4l4 -4l-8 -39q-3 -16 -18 -16l-51 -4q-61 -4 -90 -27.5t-37 -67.5l-111 -563q-22 -116 -52 -205.5t-78.5 -171t-113.5 -134t-158.5 -83t-211.5 -30.5z" />
<glyph unicode="&#xdb;" horiz-adv-x="1298" d="M1075 1661q61 -105 162 -193l-43 -43q-114 59 -188 127q-120 -75 -248 -127l-19 43q118 77 248 193h88zM627 -20q-51 0 -98.5 8.5t-99 33.5t-89 63.5t-62 104t-24.5 150.5q0 69 14 143l135 688q3 15 3 27q0 31 -22 45.5t-71 18.5l-51 4q-15 0 -12 16l6 39l6 4 q184 -4 248 -4q68 0 252 4l4 -4l-8 -39q-3 -16 -19 -16l-51 -4q-60 -4 -89 -25.5t-38 -65.5l-121 -620q-25 -137 -25 -200q0 -112 56 -185q82 -103 213 -103q70 0 128.5 16.5t101 43t78 67.5t58.5 82t42.5 95.5t30.5 98.5t22 101l117 600q3 17 3 29q0 32 -21 47t-70 19 l-54 4q-5 0 -9 4.5t-3 11.5l8 39l4 4q184 -4 215 -4q33 0 217 4l4 -4l-8 -39q-3 -16 -18 -16l-51 -4q-61 -4 -90 -27.5t-37 -67.5l-111 -563q-22 -116 -52 -205.5t-78.5 -171t-113.5 -134t-158.5 -83t-211.5 -30.5z" />
<glyph unicode="&#xdc;" horiz-adv-x="1298" d="M625 -20q-35 0 -69 4.5t-71.5 15t-70.5 29.5t-63.5 45.5t-51.5 66t-34 87.5t-12.5 113.5t15.5 141.5l131 670q10 55 -24 81.5t-92 31.5q-8 0 -12 5.5t-3 12.5l8 37l5 4q144 -4 229 -4q66 0 164 4q21 0 16 -31q-3 -14 -10 -19t-21 -9q-51 -12 -74 -45.5t-32 -83.5 l-115 -586q-12 -66 -17 -104t-7 -94.5t12.5 -102t44.5 -84.5q79 -103 213 -103q69 0 127 16.5t100.5 43t78 67.5t59 82t43 95.5t31 99t22.5 100.5l104 539q27 143 -51 160q-30 6 -24 26q5 33 36 33q98 -4 125 -4q51 0 199 4l2 -4l-6 -37q-3 -10 -14 -13t-39 -5 q-57 -4 -90 -43t-44 -90l-102 -529q-22 -116 -51.5 -205.5t-78.5 -171t-114 -134t-159 -83t-213 -30.5zM709 1448q0 40 28 68t68 28t68 -28t28 -68t-28 -68t-68 -28t-68 28t-28 68zM1004 1448q0 40 28 68t68 28t68 -28t28 -68t-28 -68t-68 -28t-68 28t-28 68z" />
<glyph unicode="&#xdd;" horiz-adv-x="1130" d="M831 1425q-24 0 -24 23q0 24 43 51l289 172l133 -92l-346 -129q-77 -25 -95 -25zM688 156q-9 -46 11 -68t79 -27l70 -6q4 -8 1.5 -30.5t-7.5 -28.5q-180 4 -260 4q-62 0 -246 -4q-6 14 -4 33.5t8 25.5l63 6q61 6 90 28.5t37 66.5l72 374q7 37 7 52q0 18 -7 36l-188 502 q-32 85 -53.5 110t-71.5 32l-31 4q-5 8 -6.5 29.5t2.5 29.5q114 -4 213 -4q59 0 219 4q3 -6 1.5 -29t-5.5 -30l-68 -6q-48 -4 -54.5 -22t11.5 -58l174 -494h9l323 494q31 44 29 60t-39 20l-66 6q-3 6 -1 29.5t6 29.5q156 -4 186 -4q46 0 164 4q4 -7 0.5 -29t-8.5 -30l-54 -4 q-26 -2 -45.5 -9t-37 -24t-27.5 -29.5t-31 -42.5l-358 -522q-18 -29 -29 -86z" />
<glyph unicode="&#xde;" horiz-adv-x="1026" d="M543 981l-117 -596q27 -10 137 -10q46 0 88 8.5t86 31t79 58t64 94.5t44 135q17 73 9 125.5t-25.5 87t-50.5 54t-65.5 27.5t-70.5 8q-30 0 -88.5 -7t-89.5 -16zM422 1178q9 44 -12 61.5t-80 22.5l-51 4q-16 0 -13 16l8 39l5 2q169 -2 247 -2l254 2l2 -2l-6 -39 q-3 -16 -18 -16l-56 -4q-60 -4 -86.5 -22.5t-35.5 -61.5l-21 -115q70 4 176 4q88 0 155.5 -16.5t107.5 -46t66 -65t34.5 -78.5t8 -81t-8.5 -78q-10 -49 -33.5 -100t-68.5 -104t-103.5 -94t-145 -67t-186.5 -26q-104 0 -145 15l-35 -179q-9 -46 11 -64.5t77 -23.5l53 -4 q5 0 9.5 -4.5t3.5 -11.5l-9 -39l-4 -4q-170 4 -248 4l-254 -4l-4 4l9 39q3 16 18 16l53 4q61 4 88.5 24t36.5 64z" />
<glyph unicode="&#xdf;" horiz-adv-x="1112" d="M526 766q-24 -107 -58.5 -279t-57 -276t-53.5 -226.5t-66.5 -210t-77.5 -147.5q-82 -114 -209 -114q-94 0 -133 30t-39 68q0 26 18 45.5t53 19.5q56 0 87 -50q10 -17 15.5 -24.5t16 -14.5t23.5 -7q27 0 56 25.5t47 64.5q14 29 29 78.5t26 95t25.5 119t21.5 113t20.5 118 t16.5 95.5q7 37 24 135t33 183t33 169q0 16 -4.5 19.5t-20.5 3.5h-84q-16 0 -16 14q0 20 14.5 43t46.5 23q80 0 109 98q123 453 491 453q129 0 192.5 -56t63.5 -133q0 -60 -27 -118t-77 -109t-100 -90.5t-115 -81.5v-4q46 -36 73.5 -59.5t68 -65.5t63 -78.5t40 -88 t17.5 -104.5q0 -74 -31 -154.5t-83.5 -149.5t-132.5 -113.5t-169 -44.5q-172 0 -172 135t84 135q25 0 41.5 -11.5t16.5 -29.5q0 -31 -11 -52.5t-22.5 -36t-11.5 -28.5q0 -16 7.5 -26t24 -13.5t28 -4.5t32.5 -1q48 0 97.5 56.5t81.5 143t32 167.5q0 209 -205 397l6 27 q24 16 50.5 36t70.5 62t77 85t58 102.5t25 117.5q0 123 -125 123q-44 0 -82.5 -14.5t-66.5 -37t-52.5 -60.5t-41 -73t-33 -87.5t-26 -91t-22.5 -95.5z" />
<glyph unicode="&#xe0;" horiz-adv-x="995" d="M764 1374l91 -258q7 -24 2 -49q-2 -8 -12.5 -15.5t-22.5 -7.5q-17 0 -51 41l-188 224l8 22q74 47 143 47q14 0 30 -4zM840 887q18 -5 40.5 -5.5t56.5 0.5t46 1l-141 -637q-21 -102 -21 -115q0 -16 8.5 -22.5t16.5 -6.5q36 0 115 109q13 0 22.5 -5.5t13 -10.5t11.5 -17 q-90 -198 -263 -198q-83 0 -83 92q0 45 20 112l27 86l-4 4q-199 -294 -347 -294q-198 0 -198 276q0 116 50 235.5t125.5 207.5t167.5 144t173 56q54 0 164 -12zM737 449q23 58 41 145t24 145l7 58q-61 39 -127 39q-67 0 -134.5 -55t-115.5 -137t-78 -178t-30 -177 q0 -197 90 -197q50 0 149 109.5t174 247.5z" />
<glyph unicode="&#xe1;" horiz-adv-x="995" d="M754 1364q14 4 29 4q63 0 103 -47l2 -23l-281 -223q-47 -39 -69 -39q-11 0 -18.5 8.5t-5.5 18.5q2 11 7 20.5t9 14t19 22.5zM840 887q18 -5 40.5 -5.5t56.5 0.5t46 1l-141 -637q-21 -102 -21 -115q0 -16 8.5 -22.5t16.5 -6.5q36 0 115 109q13 0 22.5 -5.5t13 -10.5 t11.5 -17q-90 -198 -263 -198q-83 0 -83 92q0 45 20 112l27 86l-4 4q-199 -294 -347 -294q-198 0 -198 276q0 116 50 235.5t125.5 207.5t167.5 144t173 56q54 0 164 -12zM737 449q23 58 41 145t24 145l7 58q-61 39 -127 39q-67 0 -134.5 -55t-115.5 -137t-78 -178t-30 -177 q0 -197 90 -197q50 0 149 109.5t174 247.5z" />
<glyph unicode="&#xe2;" horiz-adv-x="995" d="M782 1337q46 -110 153 -264l-49 -29q-117 101 -179 185q-114 -97 -257 -185l-35 29q184 168 265 264h102zM840 887q18 -5 40.5 -5.5t56.5 0.5t46 1l-141 -637q-21 -102 -21 -115q0 -16 8.5 -22.5t16.5 -6.5q36 0 115 109q13 0 22.5 -5.5t13 -10.5t11.5 -17 q-90 -198 -263 -198q-83 0 -83 92q0 45 20 112l27 86l-4 4q-199 -294 -347 -294q-198 0 -198 276q0 116 50 235.5t125.5 207.5t167.5 144t173 56q54 0 164 -12zM737 449q23 58 41 145t24 145l7 58q-61 39 -127 39q-67 0 -134.5 -55t-115.5 -137t-78 -178t-30 -177 q0 -197 90 -197q50 0 149 109.5t174 247.5z" />
<glyph unicode="&#xe3;" horiz-adv-x="995" d="M810 1157q36 0 64 22.5t61 84.5l46 -13q-75 -184 -215 -184q-53 0 -121 53q-63 45 -101 45q-39 0 -66.5 -23t-53.5 -75l-48 10q41 93 89 138t112 45q66 0 136 -58q50 -45 97 -45zM840 887q18 -5 40.5 -5.5t56.5 0.5t46 1l-141 -637q-21 -102 -21 -115q0 -16 8.5 -22.5 t16.5 -6.5q36 0 115 109q13 0 22.5 -5.5t13 -10.5t11.5 -17q-90 -198 -263 -198q-83 0 -83 92q0 45 20 112l27 86l-4 4q-199 -294 -347 -294q-198 0 -198 276q0 116 50 235.5t125.5 207.5t167.5 144t173 56q54 0 164 -12zM737 449q23 58 41 145t24 145l7 58q-61 39 -127 39 q-67 0 -134.5 -55t-115.5 -137t-78 -178t-30 -177q0 -197 90 -197q50 0 149 109.5t174 247.5z" />
<glyph unicode="&#xe4;" horiz-adv-x="995" d="M469 1174q0 38 28 66t66 28t66 -28t28 -66t-28 -66.5t-66 -28.5t-66 28.5t-28 66.5zM797 1174q0 38 28 66t66 28t66 -28t28 -66t-28 -66.5t-66 -28.5t-66 28.5t-28 66.5zM840 887q18 -5 40.5 -5.5t56.5 0.5t46 1l-141 -637q-21 -102 -21 -115q0 -16 8.5 -22.5t16.5 -6.5 q36 0 115 109q13 0 22.5 -5.5t13 -10.5t11.5 -17q-90 -198 -263 -198q-83 0 -83 92q0 45 20 112l27 86l-4 4q-199 -294 -347 -294q-198 0 -198 276q0 116 50 235.5t125.5 207.5t167.5 144t173 56q54 0 164 -12zM737 449q23 58 41 145t24 145l7 58q-61 39 -127 39 q-67 0 -134.5 -55t-115.5 -137t-78 -178t-30 -177q0 -197 90 -197q50 0 149 109.5t174 247.5z" />
<glyph unicode="&#xe5;" horiz-adv-x="995" d="M723 1329q-46 0 -81 -33.5t-44 -81.5q-9 -45 12.5 -79.5t66.5 -34.5t80.5 34.5t45.5 79.5q10 48 -12.5 81.5t-67.5 33.5zM522 1214q14 70 78 120t135 50q72 0 115 -49.5t28 -120.5q-14 -69 -76.5 -119.5t-135.5 -50.5q-71 0 -114.5 50t-29.5 120zM840 887 q18 -5 40.5 -5.5t56.5 0.5t46 1l-141 -637q-21 -102 -21 -115q0 -16 8.5 -22.5t16.5 -6.5q36 0 115 109q13 0 22.5 -5.5t13 -10.5t11.5 -17q-90 -198 -263 -198q-83 0 -83 92q0 45 20 112l27 86l-4 4q-199 -294 -347 -294q-198 0 -198 276q0 116 50 235.5t125.5 207.5 t167.5 144t173 56q54 0 164 -12zM737 449q23 58 41 145t24 145l7 58q-61 39 -127 39q-67 0 -134.5 -55t-115.5 -137t-78 -178t-30 -177q0 -197 90 -197q50 0 149 109.5t174 247.5z" />
<glyph unicode="&#xe6;" horiz-adv-x="1406" d="M883 518q68 4 113 8t103 12.5t95 21.5t71.5 33t51 49.5t16.5 68.5q0 47 -38 82.5t-101 35.5q-101 0 -184.5 -87.5t-126.5 -223.5zM713 440q-37 -3 -72.5 -8t-90.5 -16t-99.5 -30t-86.5 -45.5t-66 -67.5t-24 -91q0 -116 152 -116q134 0 213 141q31 57 74 233zM754 684 q0 46 -15 79t-38.5 48t-43.5 21t-39 6q-29 0 -60 -6t-63.5 -18.5t-53 -38t-20.5 -60.5q0 -7 1.5 -15t1.5 -13q0 -37 -29.5 -63t-70.5 -26q-34 0 -50 17.5t-16 43.5q0 95 119.5 167.5t261.5 72.5q28 0 55 -3.5t69.5 -16t76 -44t49.5 -79.5q66 69 150.5 106t172.5 37 q75 0 132 -17.5t88 -46t46 -58.5t15 -60q0 -45 -20 -82t-52 -63.5t-82 -47t-101 -33t-119.5 -22.5t-126 -14.5t-130.5 -8.5q-12 -59 -12 -112q0 -117 57 -185.5t152 -68.5q79 0 139.5 27.5t124.5 85.5l29 -21q-66 -87 -157 -139.5t-189 -52.5q-66 0 -117.5 14t-83.5 38.5 t-49.5 44t-32.5 44.5q-60 -63 -148 -102t-172 -39q-138 0 -209 49.5t-71 136.5q0 57 21.5 105t56 81.5t86 60.5t102.5 43t115.5 28t115 18t109.5 10q25 122 25 172z" />
<glyph unicode="&#xe7;" horiz-adv-x="796" d="M433 -188q-49 0 -95 -13l-9 13l104 168h-5q-61 0 -113 26.5t-84 71.5q-61 85 -61 227q0 134 45 250.5t123 199.5q61 65 147 104.5t152 39.5q64 0 109 -13.5t68 -32t35.5 -48.5t14.5 -51t2 -52q0 -38 -32 -65t-74 -27q-25 0 -40 20t-15 46q0 25 10 43q10 17 10 39 q0 31 -16.5 50t-33.5 23.5t-36 4.5q-124 0 -212.5 -133t-88.5 -353q0 -86 12 -128t39 -75q36 -47 103 -47q76 0 139 40.5t131 116.5q14 0 27.5 -10t17.5 -25q-137 -190 -297 -232l-69 -119q25 6 55 6q55 0 88.5 -27t33.5 -73q0 -79 -77 -128.5t-176 -49.5q-47 0 -76 7.5 t-68 26.5q7 34 31 54q33 -13 45 -17t30 -8t38 -4q55 0 89 28.5t34 75.5q0 50 -55 50z" />
<glyph unicode="&#xe8;" horiz-adv-x="821" d="M688 1374l91 -258q7 -24 2 -49q-2 -8 -12.5 -15.5t-22.5 -7.5q-17 0 -51 41l-188 224l9 22q74 47 142 47q14 0 30 -4zM727 758q0 44 -22 61t-78 17q-184 0 -271 -350q66 8 125 25.5t117.5 48t93.5 82t35 116.5zM342 408q-2 -16 -2 -70q0 -131 40.5 -183.5t115.5 -52.5 q76 0 126.5 25.5t135.5 112.5q33 0 47 -33q-176 -227 -383 -227q-122 0 -187 87t-65 224q0 81 17.5 163.5t57.5 163t97 142.5t143 100.5t189 38.5q52 0 92 -16t61 -40.5t31 -49t10 -45.5q0 -67 -21 -107q-80 -150 -505 -233z" />
<glyph unicode="&#xe9;" horiz-adv-x="821" d="M764 1364q14 4 30 4q63 0 103 -47l1 -23l-281 -223q-47 -39 -69 -39q-11 0 -18.5 8.5t-5.5 18.5q1 5 2 9t3.5 8t3.5 6.5t5 7.5t6 7t7.5 9t8.5 10zM727 758q0 44 -22 61t-78 17q-184 0 -271 -350q66 8 125 25.5t117.5 48t93.5 82t35 116.5zM342 408q-2 -16 -2 -70 q0 -131 40.5 -183.5t115.5 -52.5q76 0 126.5 25.5t135.5 112.5q33 0 47 -33q-176 -227 -383 -227q-122 0 -187 87t-65 224q0 81 17.5 163.5t57.5 163t97 142.5t143 100.5t189 38.5q52 0 92 -16t61 -40.5t31 -49t10 -45.5q0 -67 -21 -107q-80 -150 -505 -233z" />
<glyph unicode="&#xea;" horiz-adv-x="821" d="M716 1337q44 -106 154 -264l-49 -29q-120 104 -180 185q-114 -97 -257 -185l-35 29q184 168 265 264h102zM727 758q0 44 -22 61t-78 17q-184 0 -271 -350q66 8 125 25.5t117.5 48t93.5 82t35 116.5zM342 408q-2 -16 -2 -70q0 -131 40.5 -183.5t115.5 -52.5 q76 0 126.5 25.5t135.5 112.5q33 0 47 -33q-176 -227 -383 -227q-122 0 -187 87t-65 224q0 81 17.5 163.5t57.5 163t97 142.5t143 100.5t189 38.5q52 0 92 -16t61 -40.5t31 -49t10 -45.5q0 -67 -21 -107q-80 -150 -505 -233z" />
<glyph unicode="&#xeb;" horiz-adv-x="821" d="M397 1174q0 38 28.5 66t66.5 28t66 -28t28 -66t-28 -66.5t-66 -28.5t-66.5 28.5t-28.5 66.5zM725 1174q0 38 28 66t66 28t66 -28t28 -66t-28 -66.5t-66 -28.5t-66 28.5t-28 66.5zM727 758q0 44 -22 61t-78 17q-184 0 -271 -350q66 8 125 25.5t117.5 48t93.5 82t35 116.5z M342 408q-2 -16 -2 -70q0 -131 40.5 -183.5t115.5 -52.5q76 0 126.5 25.5t135.5 112.5q33 0 47 -33q-176 -227 -383 -227q-122 0 -187 87t-65 224q0 81 17.5 163.5t57.5 163t97 142.5t143 100.5t189 38.5q52 0 92 -16t61 -40.5t31 -49t10 -45.5q0 -67 -21 -107 q-80 -150 -505 -233z" />
<glyph unicode="&#xec;" horiz-adv-x="565" d="M436 1374l91 -258q7 -24 2 -49q-2 -8 -12.5 -15.5t-22.5 -7.5q-17 0 -51 41l-188 224l9 22q74 47 143 47q13 0 29 -4zM502 656l-92 -402q-23 -100 -23 -117q0 -35 21 -35q16 0 55.5 29.5t77.5 73.5q35 0 47 -35q-148 -190 -285 -190q-84 0 -84 67q0 24 35 189l96 421 q19 77 19 105q0 16 -9.5 28t-27.5 13l-82 6q-22 34 -2 57q22 3 68.5 9t71.5 9t58 6t56 3q42 0 42 -43q0 -16 -6 -44t-18 -76t-18 -74z" />
<glyph unicode="&#xed;" horiz-adv-x="565" d="M625 1393q14 4 29 4q63 0 103 -47l2 -23l-281 -223q-47 -39 -69 -39q-11 0 -18.5 8.5t-5.5 18.5q2 11 7 20.5t9 14t19 22.5zM502 656l-92 -402q-23 -100 -23 -117q0 -35 21 -35q16 0 55.5 29.5t77.5 73.5q35 0 47 -35q-148 -190 -285 -190q-84 0 -84 67q0 24 35 189 l96 421q19 77 19 105q0 16 -9.5 28t-27.5 13l-82 6q-22 34 -2 57q22 3 68.5 9t71.5 9t58 6t56 3q42 0 42 -43q0 -16 -6 -44t-18 -76t-18 -74z" />
<glyph unicode="&#xee;" horiz-adv-x="565" d="M575 1337q46 -110 153 -264l-49 -29q-117 101 -179 185q-114 -97 -257 -185l-35 29q184 168 265 264h102zM502 656l-92 -402q-23 -100 -23 -117q0 -35 21 -35q16 0 55.5 29.5t77.5 73.5q35 0 47 -35q-148 -190 -285 -190q-84 0 -84 67q0 24 35 189l96 421q19 77 19 105 q0 16 -9.5 28t-27.5 13l-82 6q-22 34 -2 57q22 3 68.5 9t71.5 9t58 6t56 3q42 0 42 -43q0 -16 -6 -44t-18 -76t-18 -74z" />
<glyph unicode="&#xef;" horiz-adv-x="565" d="M236 1174q0 38 28 66t66 28t66 -28t28 -66t-28 -66.5t-66 -28.5t-66 28.5t-28 66.5zM563 1174q0 38 28 66t66 28t66.5 -28t28.5 -66t-28.5 -66.5t-66.5 -28.5t-66 28.5t-28 66.5zM502 656l-92 -402q-23 -100 -23 -117q0 -35 21 -35q16 0 55.5 29.5t77.5 73.5q35 0 47 -35 q-148 -190 -285 -190q-84 0 -84 67q0 24 35 189l96 421q19 77 19 105q0 16 -9.5 28t-27.5 13l-82 6q-22 34 -2 57q22 3 68.5 9t71.5 9t58 6t56 3q42 0 42 -43q0 -16 -6 -44t-18 -76t-18 -74z" />
<glyph unicode="&#xf0;" horiz-adv-x="978" d="M168 426q24 102 71 185.5t103.5 136.5t121.5 89.5t124 52t112 15.5q89 0 152 -28q-30 161 -115 307l-258 -150l-28 66l247 143l-24 35q-50 64 -111 119l41 43q105 -65 184 -144l252 146l29 -66l-229 -135l28 -35q170 -226 170 -504q0 -107 -26 -217 q-29 -125 -88.5 -224.5t-136 -161t-162.5 -93t-174 -31.5q-99 0 -168 47t-99 119.5t-30 163.5q0 49 14 121zM504 55q32 0 64.5 9.5t73 37t75.5 70t68 116.5t55 169q28 128 28 245q0 6 -1 17t-1 16q-26 46 -73.5 72.5t-110.5 26.5q-60 0 -112.5 -24t-89.5 -62t-67 -89 t-48 -99t-29 -99q-19 -78 -19 -139q0 -120 51 -193.5t136 -73.5z" />
<glyph unicode="&#xf1;" horiz-adv-x="1060" d="M894 1167q36 0 63.5 22.5t60.5 84.5l47 -12q-75 -185 -215 -185q-53 0 -121 53q-64 46 -101 46q-39 0 -67 -23.5t-54 -75.5l-47 10q41 93 89 138t112 45q66 0 136 -58q50 -45 97 -45zM887 254q-23 -102 -23 -117q0 -35 21 -35q16 0 55.5 29.5t77.5 73.5q35 0 47 -35 q-148 -190 -291 -190q-84 0 -84 67q0 45 35 189l78 327q26 108 26 139q0 44 -17.5 59t-53.5 15q-94 0 -316 -289l-78 -340q-3 -14 -7.5 -39t-7.5 -39.5t-9.5 -33.5t-14.5 -29.5t-22 -18t-33 -7.5q-88 0 -88 55q0 9 4 26.5t11.5 45.5t10.5 40l116 510q18 85 18 105 q0 16 -9.5 28t-27.5 13l-82 6q-22 34 -2 57q185 27 258 27q42 0 42 -43q0 -26 -12 -84t-31 -110l-7 -19l2 -2q134 157 216 210.5t167 53.5q135 0 135 -164q0 -38 -26 -155z" />
<glyph unicode="&#xf2;" horiz-adv-x="915" d="M330 348q0 -146 46.5 -219.5t100.5 -73.5q61 0 118.5 31t98.5 94q49 76 68.5 181t19.5 192q0 126 -31 188q-23 46 -51.5 68t-72.5 22q-77 0 -137 -48.5t-93.5 -124.5t-50 -156t-16.5 -154zM160 332q0 76 19 153.5t60.5 152t99 132.5t142 93.5t183.5 35.5q73 0 126.5 -21 t84 -53t48.5 -78.5t23.5 -88t5.5 -91.5q0 -177 -90 -328.5t-227 -220.5q-76 -38 -189 -38q-74 0 -129 27t-84 64.5t-46.5 90t-22 91t-4.5 79.5zM729 1374l91 -258q7 -24 2 -49q-2 -8 -12.5 -15.5t-22.5 -7.5q-17 0 -51 41l-188 224l9 22q74 47 142 47q14 0 30 -4z" />
<glyph unicode="&#xf3;" horiz-adv-x="915" d="M330 348q0 -146 46.5 -219.5t100.5 -73.5q61 0 118.5 31t98.5 94q49 76 68.5 181t19.5 192q0 126 -31 188q-23 46 -51.5 68t-72.5 22q-77 0 -137 -48.5t-93.5 -124.5t-50 -156t-16.5 -154zM160 332q0 76 19 153.5t60.5 152t99 132.5t142 93.5t183.5 35.5q73 0 126.5 -21 t84 -53t48.5 -78.5t23.5 -88t5.5 -91.5q0 -177 -90 -328.5t-227 -220.5q-76 -38 -189 -38q-74 0 -129 27t-84 64.5t-46.5 90t-22 91t-4.5 79.5zM700 1364q14 4 30 4q63 0 103 -47l2 -23l-281 -223q-47 -39 -70 -39q-11 0 -18 8.5t-5 18.5q2 11 7 20.5t9 14t19 22.5z" />
<glyph unicode="&#xf4;" horiz-adv-x="915" d="M330 348q0 -146 46.5 -219.5t100.5 -73.5q61 0 118.5 31t98.5 94q49 76 68.5 181t19.5 192q0 126 -31 188q-23 46 -51.5 68t-72.5 22q-77 0 -137 -48.5t-93.5 -124.5t-50 -156t-16.5 -154zM160 332q0 76 19 153.5t60.5 152t99 132.5t142 93.5t183.5 35.5q73 0 126.5 -21 t84 -53t48.5 -78.5t23.5 -88t5.5 -91.5q0 -177 -90 -328.5t-227 -220.5q-76 -38 -189 -38q-74 0 -129 27t-84 64.5t-46.5 90t-22 91t-4.5 79.5zM741 1337q46 -110 153 -264l-49 -29q-117 101 -179 185q-114 -97 -257 -185l-35 29q184 168 265 264h102z" />
<glyph unicode="&#xf5;" horiz-adv-x="915" d="M330 348q0 -146 46.5 -219.5t100.5 -73.5q61 0 118.5 31t98.5 94q49 76 68.5 181t19.5 192q0 126 -31 188q-23 46 -51.5 68t-72.5 22q-77 0 -137 -48.5t-93.5 -124.5t-50 -156t-16.5 -154zM160 332q0 76 19 153.5t60.5 152t99 132.5t142 93.5t183.5 35.5q73 0 126.5 -21 t84 -53t48.5 -78.5t23.5 -88t5.5 -91.5q0 -177 -90 -328.5t-227 -220.5q-76 -38 -189 -38q-74 0 -129 27t-84 64.5t-46.5 90t-22 91t-4.5 79.5zM759 1167q36 0 63.5 22.5t60.5 84.5l47 -12q-75 -185 -216 -185q-52 0 -120 53q-64 46 -101 46q-39 0 -67 -23.5t-54 -75.5 l-47 10q41 93 89 138t112 45q66 0 136 -58q50 -45 97 -45z" />
<glyph unicode="&#xf6;" horiz-adv-x="915" d="M389 1174q0 38 28 66t66 28t66.5 -28t28.5 -66t-28.5 -66.5t-66.5 -28.5t-66 28.5t-28 66.5zM717 1174q0 38 28 66t66 28t66 -28t28 -66t-28 -66.5t-66 -28.5t-66 28.5t-28 66.5zM330 348q0 -146 46.5 -219.5t100.5 -73.5q61 0 118.5 31t98.5 94q49 76 68.5 181t19.5 192 q0 126 -31 188q-23 46 -51.5 68t-72.5 22q-77 0 -137 -48.5t-93.5 -124.5t-50 -156t-16.5 -154zM160 332q0 76 19 153.5t60.5 152t99 132.5t142 93.5t183.5 35.5q73 0 126.5 -21t84 -53t48.5 -78.5t23.5 -88t5.5 -91.5q0 -177 -90 -328.5t-227 -220.5q-76 -38 -189 -38 q-74 0 -129 27t-84 64.5t-46.5 90t-22 91t-4.5 79.5z" />
<glyph unicode="&#xf7;" horiz-adv-x="1079" d="M471 147q0 47 38.5 85t88.5 38q35 0 57.5 -21.5t22.5 -55.5q0 -50 -40 -86.5t-87 -36.5q-35 0 -57.5 21.5t-22.5 55.5zM618 813q0 48 38.5 86.5t88.5 38.5q35 0 57.5 -23t22.5 -57q0 -49 -40.5 -86t-86.5 -37q-36 0 -58 22t-22 56zM1071 549l-22 -100h-811l24 100h809z " />
<glyph unicode="&#xf8;" horiz-adv-x="915" d="M963 977l67 -49l-122 -150q44 -79 44 -211q0 -177 -90 -328.5t-227 -220.5q-76 -38 -189 -38q-93 0 -154 39l-95 -117l-68 55l99 121q-68 91 -68 254q0 76 19 153.5t60.5 152t99 132.5t142 93.5t183.5 35.5q118 0 189 -56zM780 620l-402 -494q43 -71 99 -71 q61 0 118.5 31t98.5 94q49 76 68.5 181t19.5 192q0 44 -2 67zM758 726l-3.5 7t-3.5 8q-23 46 -51.5 68t-72.5 22q-77 0 -137 -48.5t-93.5 -124.5t-50 -156t-16.5 -154q0 -70 13 -129z" />
<glyph unicode="&#xf9;" horiz-adv-x="1067" d="M1036 721l-114 -467q-23 -102 -23 -117q0 -35 21 -35q16 0 55.5 29.5t77.5 73.5q35 0 47 -35q-148 -190 -285 -190q-43 0 -59.5 17.5t-16.5 49.5q0 61 35 189l23 79l-6 4q-61 -90 -103.5 -144.5t-93.5 -103t-101.5 -70t-109.5 -21.5t-98 40.5t-39 122.5q0 62 20 138 l90 344q27 102 27 116q0 35 -21 35q-17 0 -60.5 -30t-80.5 -72q-35 0 -47 35q70 90 152.5 140t156.5 50q42 0 58 -17.5t16 -50.5q0 -17 -6.5 -47t-19 -76t-17.5 -65l-88 -334q-18 -71 -18 -131q0 -76 61 -76q71 0 149 94.5t205 309.5l60 225q4 16 9.5 46.5t10 47.5t13 36.5 t24 28.5t37.5 9q47 0 66.5 -13.5t19.5 -41.5q0 -14 -12.5 -63t-14.5 -60zM743 1374l91 -258q8 -26 3 -49q-2 -8 -13 -15.5t-23 -7.5q-17 0 -51 41l-188 224l9 22q74 47 143 47q13 0 29 -4z" />
<glyph unicode="&#xfa;" horiz-adv-x="1067" d="M1036 721l-114 -467q-23 -102 -23 -117q0 -35 21 -35q16 0 55.5 29.5t77.5 73.5q35 0 47 -35q-148 -190 -285 -190q-43 0 -59.5 17.5t-16.5 49.5q0 61 35 189l23 79l-6 4q-61 -90 -103.5 -144.5t-93.5 -103t-101.5 -70t-109.5 -21.5t-98 40.5t-39 122.5q0 62 20 138 l90 344q27 102 27 116q0 35 -21 35q-17 0 -60.5 -30t-80.5 -72q-35 0 -47 35q70 90 152.5 140t156.5 50q42 0 58 -17.5t16 -50.5q0 -17 -6.5 -47t-19 -76t-17.5 -65l-88 -334q-18 -71 -18 -131q0 -76 61 -76q71 0 149 94.5t205 309.5l60 225q4 16 9.5 46.5t10 47.5t13 36.5 t24 28.5t37.5 9q47 0 66.5 -13.5t19.5 -41.5q0 -14 -12.5 -63t-14.5 -60zM870 1364q14 4 30 4q63 0 103 -47l2 -23l-281 -223q-47 -39 -70 -39q-11 0 -18 8.5t-5 18.5q2 11 7 20.5t9 14t19 22.5z" />
<glyph unicode="&#xfb;" horiz-adv-x="1067" d="M1036 721l-114 -467q-23 -102 -23 -117q0 -35 21 -35q16 0 55.5 29.5t77.5 73.5q35 0 47 -35q-148 -190 -285 -190q-43 0 -59.5 17.5t-16.5 49.5q0 61 35 189l23 79l-6 4q-61 -90 -103.5 -144.5t-93.5 -103t-101.5 -70t-109.5 -21.5t-98 40.5t-39 122.5q0 62 20 138 l90 344q27 102 27 116q0 35 -21 35q-17 0 -60.5 -30t-80.5 -72q-35 0 -47 35q70 90 152.5 140t156.5 50q42 0 58 -17.5t16 -50.5q0 -17 -6.5 -47t-19 -76t-17.5 -65l-88 -334q-18 -71 -18 -131q0 -76 61 -76q71 0 149 94.5t205 309.5l60 225q4 16 9.5 46.5t10 47.5t13 36.5 t24 28.5t37.5 9q47 0 66.5 -13.5t19.5 -41.5q0 -14 -12.5 -63t-14.5 -60zM839 1337q44 -106 154 -264l-49 -29q-120 104 -180 185q-114 -97 -257 -185l-35 29q184 168 265 264h102z" />
<glyph unicode="&#xfc;" horiz-adv-x="1067" d="M487 1174q0 38 28.5 66t66.5 28t66 -28t28 -66t-28 -66.5t-66 -28.5t-66.5 28.5t-28.5 66.5zM815 1174q0 38 28 66t66 28t66.5 -28t28.5 -66t-28.5 -66.5t-66.5 -28.5t-66 28.5t-28 66.5zM1036 721l-114 -467q-23 -102 -23 -117q0 -35 21 -35q16 0 55.5 29.5t77.5 73.5 q35 0 47 -35q-148 -190 -285 -190q-43 0 -59.5 17.5t-16.5 49.5q0 61 35 189l23 79l-6 4q-61 -90 -103.5 -144.5t-93.5 -103t-101.5 -70t-109.5 -21.5t-98 40.5t-39 122.5q0 62 20 138l90 344q27 102 27 116q0 35 -21 35q-17 0 -60.5 -30t-80.5 -72q-35 0 -47 35 q70 90 152.5 140t156.5 50q42 0 58 -17.5t16 -50.5q0 -17 -6.5 -47t-19 -76t-17.5 -65l-88 -334q-18 -71 -18 -131q0 -76 61 -76q71 0 149 94.5t205 309.5l60 225q4 16 9.5 46.5t10 47.5t13 36.5t24 28.5t37.5 9q47 0 66.5 -13.5t19.5 -41.5q0 -14 -12.5 -63t-14.5 -60z" />
<glyph unicode="&#xfd;" horiz-adv-x="1030" d="M722 0l-93 -143q-98 -151 -210 -243.5t-194 -92.5q-22 0 -48.5 6.5t-51.5 27.5t-25 52q0 45 30 74.5t65 29.5q12 0 36.5 -9.5t34.5 -18.5q13 -11 36 -24t36 -13q23 0 81 64.5t118 162.5q18 40 -18.5 323.5t-82.5 436.5q-18 62 -32 86q-14 23 -57 23q-42 0 -134 -44 q-21 21 -27 63q60 44 148.5 91t122.5 47q38 0 61 -34t45 -117q42 -174 60 -326t28 -360l14 -6q24 34 63 96t66 107l28 45q155 242 155 354q0 58 -43 123q-11 16 -11 42q0 76 95 76q107 0 107 -97q0 -92 -55 -218q-20 -47 -74 -140.5t-105.5 -176t-106.5 -169t-62 -98.5z M877 1366q14 4 29 4q63 0 103 -47l2 -23l-281 -223q-47 -39 -70 -39q-11 0 -18 8.5t-5 18.5q2 11 7 20.5t9 14t19 22.5z" />
<glyph unicode="&#xfe;" horiz-adv-x="1024" d="M109 -330l223 969q-99 -80 -158 -162l-39 27q59 100 217 225l101 424q14 63 14 102q0 32 -10.5 45t-32.5 13l-64 4q-10 0 -10 10l6 49q63 4 154.5 21.5t132.5 32.5q25 0 25 -21q-22 -82 -52 -215l-81 -367q126 72 264 72q124 0 199 -85t75 -222q0 -69 -25 -151 t-74 -163.5t-113.5 -148t-153 -108t-183.5 -41.5q-105 0 -172 67l-90 -377q-2 -18 -3 -30t6.5 -21.5t12.5 -14.5t16.5 -9t18.5 -5.5t17 -3.5l39 -6q12 -2 12 -16v-41l-4 -4q-139 4 -219 4q-33 0 -86 -3t-90 -6l-37 -3l-4 4v39q0 12 20 16l39 6q49 7 74 29t35 65zM905 559 q0 42 -8 81t-26.5 77.5t-54.5 62t-85 23.5q-114 0 -217 -55l-141 -611q53 -86 155 -86q80 0 146.5 37.5t108 95t70 128t40.5 133t12 114.5z" />
<glyph unicode="&#xff;" horiz-adv-x="1030" d="M485 1174q0 38 28.5 66t66.5 28t66 -28t28 -66t-28 -66.5t-66 -28.5t-66.5 28.5t-28.5 66.5zM813 1174q0 38 28 66t66 28t66 -28t28 -66t-28 -66.5t-66 -28.5t-66 28.5t-28 66.5zM722 0l-93 -143q-98 -151 -210 -243.5t-194 -92.5q-22 0 -48.5 6.5t-51.5 27.5t-25 52 q0 45 30 74.5t65 29.5q12 0 36.5 -9.5t34.5 -18.5q13 -11 36 -24t36 -13q23 0 81 64.5t118 162.5q18 40 -18.5 323.5t-82.5 436.5q-18 62 -32 86q-14 23 -57 23q-42 0 -134 -44q-21 21 -27 63q60 44 148.5 91t122.5 47q38 0 61 -34t45 -117q42 -174 60 -326t28 -360l14 -6 q24 34 63 96t66 107l28 45q155 242 155 354q0 58 -43 123q-11 16 -11 42q0 76 95 76q107 0 107 -97q0 -92 -55 -218q-20 -47 -74 -140.5t-105.5 -176t-106.5 -169t-62 -98.5z" />
<glyph unicode="&#x100;" horiz-adv-x="1366" d="M629 580h342l-84 546h-4l-297 -520q-5 -8 -5 -12q0 -14 48 -14zM330 162q-15 -25 -15 -48q0 -49 74 -55l55 -4q15 0 13 -16l-4 -39l-7 -4q-144 4 -256 4q-34 0 -182 -4l-2 4l6 39q3 16 19 16q71 5 118.5 35t100.5 119l645 1065q25 42 42 58t38 16q20 0 28 -14.5t13 -47.5 l188 -1110q9 -60 36.5 -86.5t86.5 -32.5l21 -2q18 0 16 -16l-4 -39l-4 -4q-144 4 -232 4q-112 0 -260 -4l-2 4l4 39q1 16 17 16l57 4q100 7 100 69q0 5 -2 19l-51 347h-409q-35 0 -50 -7t-26 -28zM1191 1552h-500q-13 0 -18 9.5t-2 21.5q4 20 22 39.5t35 19.5h502 q14 0 19.5 -8.5t3.5 -19.5q-4 -20 -23.5 -41t-38.5 -21z" />
<glyph unicode="&#x101;" horiz-adv-x="995" d="M840 887q18 -5 40.5 -5.5t56.5 0.5t46 1l-141 -637q-21 -102 -21 -115q0 -16 8.5 -22.5t16.5 -6.5q36 0 115 109q13 0 22.5 -5.5t13 -10.5t11.5 -17q-90 -198 -263 -198q-83 0 -83 92q0 45 20 112l27 86l-4 4q-199 -294 -347 -294q-198 0 -198 276q0 116 50 235.5 t125.5 207.5t167.5 144t173 56q54 0 164 -12zM737 449q23 58 41 145t24 145l7 58q-61 39 -127 39q-67 0 -134.5 -55t-115.5 -137t-78 -178t-30 -177q0 -197 90 -197q50 0 149 109.5t174 247.5zM945 1104h-500q-13 0 -18 9.5t-2 21.5q4 20 22 39.5t35 19.5h502q14 0 19.5 -9 t3.5 -20q-4 -20 -23.5 -40.5t-38.5 -20.5z" />
<glyph unicode="&#x102;" horiz-adv-x="1366" d="M629 580h342l-84 546h-4l-297 -520q-5 -8 -5 -12q0 -14 48 -14zM330 162q-15 -25 -15 -48q0 -49 74 -55l55 -4q15 0 13 -16l-4 -39l-7 -4q-144 4 -256 4q-34 0 -182 -4l-2 4l6 39q3 16 19 16q71 5 118.5 35t100.5 119l645 1065q25 42 42 58t38 16q20 0 28 -14.5t13 -47.5 l188 -1110q9 -60 36.5 -86.5t86.5 -32.5l21 -2q18 0 16 -16l-4 -39l-4 -4q-144 4 -232 4q-112 0 -260 -4l-2 4l4 39q1 16 17 16l57 4q100 7 100 69q0 5 -2 19l-51 347h-409q-35 0 -50 -7t-26 -28zM1001 1415q-118 0 -177.5 58t-59.5 151v23h57q0 -7 1.5 -16.5t12.5 -30.5 t30 -37t59.5 -28.5t95.5 -12.5q81 0 152 35t92 90h55q-25 -108 -120 -170t-198 -62z" />
<glyph unicode="&#x103;" horiz-adv-x="995" d="M840 887q18 -5 40.5 -5.5t56.5 0.5t46 1l-141 -637q-21 -102 -21 -115q0 -16 8.5 -22.5t16.5 -6.5q36 0 115 109q13 0 22.5 -5.5t13 -10.5t11.5 -17q-90 -198 -263 -198q-83 0 -83 92q0 45 20 112l27 86l-4 4q-199 -294 -347 -294q-198 0 -198 276q0 116 50 235.5 t125.5 207.5t167.5 144t173 56q54 0 164 -12zM737 449q23 58 41 145t24 145l7 58q-61 39 -127 39q-67 0 -134.5 -55t-115.5 -137t-78 -178t-30 -177q0 -197 90 -197q50 0 149 109.5t174 247.5zM482 1325q0 -82 50.5 -133t133.5 -51t154.5 49t104.5 135l50 -25 q-43 -126 -139.5 -201t-193.5 -75q-108 0 -166.5 73t-53.5 203z" />
<glyph unicode="&#x104;" horiz-adv-x="1423" d="M633 580h364l-104 546l-303 -510q-6 -12 -6 -18q0 -18 49 -18zM1405 -2q-122 0 -215.5 -87t-93.5 -175q0 -43 26 -69.5t74 -26.5q75 0 156 71l26 -14q-44 -67 -115.5 -102t-132.5 -35q-75 0 -119 36.5t-44 102.5q0 83 69.5 167.5t177.5 135.5h-43l-274 -4l-2 4l6 39 q3 16 19 16h57q48 0 77 17t29 51q0 14 -2 22l-67 353h-430q-36 0 -53.5 -8t-28.5 -27l-189 -318q-16 -28 -16 -47q0 -43 86 -43h59q15 0 15 -16l-8 -39l-5 -4q-200 4 -251 4l-185 -4l-4 4l8 39q3 16 19 16h24q60 0 97.5 26.5t70.5 82.5l676 1120q43 70 70 70q25 0 37.5 -15 t19.5 -55l223 -1110q12 -62 41.5 -90.5t89.5 -28.5h23q6 0 11 -5t5 -11l-6 -39l-6 -4h-2z" />
<glyph unicode="&#x105;" horiz-adv-x="995" d="M682 180l33 111l-4 4q-103 -152 -190 -236t-163 -84q-198 0 -198 281q0 116 50 236.5t125.5 209.5t167.5 146t173 57q60 0 170 -12q41 -10 143 -10l-139 -641q-25 -98 -25 -125q0 -11 6.5 -18.5t11.5 -9t9 -1.5q6 0 14 4l17 10q25 16 94 99l39 -23q-40 -54 -66 -84 t-59 -59q-215 -190 -215 -287q0 -36 29 -63t77 -27q42 0 73.5 17t78.5 57l29 -15q-115 -139 -242 -139q-76 0 -123 36.5t-47 102.5q0 121 164 265q-49 18 -49 86q0 57 16 112zM737 449q23 58 42.5 146.5t27.5 148.5l8 59q-61 39 -133 39q-67 0 -134.5 -56t-115.5 -139 t-78 -180t-30 -178q0 -201 90 -201q49 0 148.5 111t174.5 250z" />
<glyph unicode="&#x106;" horiz-adv-x="1261" d="M692 -20q-130 0 -230 41.5t-160 113.5t-90 162.5t-30 196.5q0 74 15 151q38 196 158.5 359t282 253.5t323.5 90.5q105 0 183 -22t132 -45.5t96 -25.5q-15 -135 -18 -317l-60 -8q-31 342 -370 342q-49 0 -109 -20.5t-128 -67.5t-128 -113t-110.5 -167t-73.5 -220 q-17 -90 -17 -173q0 -92 20.5 -171t61.5 -142t109.5 -99t157.5 -36q137 0 254.5 52.5t244.5 171.5q29 0 39 -31q-125 -135 -267 -205.5t-286 -70.5zM817 1427q-24 0 -24 23q0 24 43 51l288 172l133 -92l-346 -129q-77 -25 -94 -25z" />
<glyph unicode="&#x107;" horiz-adv-x="796" d="M428 -20q-61 0 -113 26.5t-84 71.5q-61 85 -61 227q0 134 45 250.5t123 199.5q61 65 147 104.5t152 39.5q64 0 109 -13.5t68 -32t35.5 -48.5t14.5 -51t2 -52q0 -38 -32 -65t-74 -27q-25 0 -40 20t-15 46q0 25 10 43q10 17 10 39q0 31 -16.5 50t-33.5 23.5t-36 4.5 q-124 0 -212.5 -133t-88.5 -353q0 -86 12 -128t39 -75q36 -47 103 -47q76 0 139 40.5t131 116.5q14 0 27.5 -10t17.5 -25q-78 -110 -176 -176t-203 -66zM786 1374q14 4 30 4q63 0 103 -47l2 -22l-281 -224q-45 -38 -70 -38q-11 0 -18 8t-5 18q2 11 7 20.5t9 14t19 22.5z" />
<glyph unicode="&#x108;" horiz-adv-x="1261" d="M692 -20q-130 0 -230 41.5t-160 113.5t-90 162.5t-30 196.5q0 74 15 151q38 196 158.5 359t282 253.5t323.5 90.5q105 0 183 -22t132 -45.5t96 -25.5q-15 -135 -18 -317l-60 -8q-31 342 -370 342q-49 0 -109 -20.5t-128 -67.5t-128 -113t-110.5 -167t-73.5 -220 q-17 -90 -17 -173q0 -92 20.5 -171t61.5 -142t109.5 -99t157.5 -36q137 0 254.5 52.5t244.5 171.5q29 0 39 -31q-125 -135 -267 -205.5t-286 -70.5zM1077 1651q61 -105 162 -193l-43 -43q-114 59 -188 127q-120 -75 -248 -127l-19 43q118 77 248 193h88z" />
<glyph unicode="&#x109;" horiz-adv-x="796" d="M428 -20q-61 0 -113 26.5t-84 71.5q-61 85 -61 227q0 134 45 250.5t123 199.5q61 65 147 104.5t152 39.5q64 0 109 -13.5t68 -32t35.5 -48.5t14.5 -51t2 -52q0 -38 -32 -65t-74 -27q-25 0 -40 20t-15 46q0 25 10 43q10 17 10 39q0 31 -16.5 50t-33.5 23.5t-36 4.5 q-124 0 -212.5 -133t-88.5 -353q0 -86 12 -128t39 -75q36 -47 103 -47q76 0 139 40.5t131 116.5q14 0 27.5 -10t17.5 -25q-78 -110 -176 -176t-203 -66zM717 1323q46 -110 153 -264l-49 -29q-122 106 -180 184q-112 -95 -256 -184l-35 29q180 164 264 264h103z" />
<glyph unicode="&#x10a;" horiz-adv-x="1261" d="M692 -20q-130 0 -230 41.5t-160 113.5t-90 162.5t-30 196.5q0 74 15 151q38 196 158.5 359t282 253.5t323.5 90.5q105 0 183 -22t132 -45.5t96 -25.5q-15 -135 -18 -317l-60 -8q-31 342 -370 342q-49 0 -109 -20.5t-128 -67.5t-128 -113t-110.5 -167t-73.5 -220 q-17 -90 -17 -173q0 -92 20.5 -171t61.5 -142t109.5 -99t157.5 -36q137 0 254.5 52.5t244.5 171.5q29 0 39 -31q-125 -135 -267 -205.5t-286 -70.5zM899 1534q8 40 43.5 69t75.5 29t63 -29t15 -69t-43 -69t-75 -29t-63.5 29t-15.5 69z" />
<glyph unicode="&#x10b;" horiz-adv-x="796" d="M428 -20q-61 0 -113 26.5t-84 71.5q-61 85 -61 227q0 134 45 250.5t123 199.5q61 65 147 104.5t152 39.5q64 0 109 -13.5t68 -32t35.5 -48.5t14.5 -51t2 -52q0 -38 -32 -65t-74 -27q-25 0 -40 20t-15 46q0 25 10 43q10 17 10 39q0 31 -16.5 50t-33.5 23.5t-36 4.5 q-124 0 -212.5 -133t-88.5 -353q0 -86 12 -128t39 -75q36 -47 103 -47q76 0 139 40.5t131 116.5q14 0 27.5 -10t17.5 -25q-78 -110 -176 -176t-203 -66zM547 1169q8 40 43.5 69.5t75.5 29.5t63 -29.5t15 -69.5t-43.5 -69t-75.5 -29t-63 29t-15 69z" />
<glyph unicode="&#x10c;" horiz-adv-x="1261" d="M692 -20q-130 0 -230 41.5t-160 113.5t-90 162.5t-30 196.5q0 74 15 151q38 196 158.5 359t282 253.5t323.5 90.5q105 0 183 -22t132 -45.5t96 -25.5q-15 -135 -18 -317l-60 -8q-31 342 -370 342q-49 0 -109 -20.5t-128 -67.5t-128 -113t-110.5 -167t-73.5 -220 q-17 -90 -17 -173q0 -92 20.5 -171t61.5 -142t109.5 -99t157.5 -36q137 0 254.5 52.5t244.5 171.5q29 0 39 -31q-125 -135 -267 -205.5t-286 -70.5zM930 1427q-52 93 -162 195l41 41q107 -50 190 -125q128 79 248 125l21 -41q-121 -80 -250 -195h-88z" />
<glyph unicode="&#x10d;" horiz-adv-x="796" d="M428 -20q-61 0 -113 26.5t-84 71.5q-61 85 -61 227q0 134 45 250.5t123 199.5q61 65 147 104.5t152 39.5q64 0 109 -13.5t68 -32t35.5 -48.5t14.5 -51t2 -52q0 -38 -32 -65t-74 -27q-25 0 -40 20t-15 46q0 25 10 43q10 17 10 39q0 31 -16.5 50t-33.5 23.5t-36 4.5 q-124 0 -212.5 -133t-88.5 -353q0 -86 12 -128t39 -75q36 -47 103 -47q76 0 139 40.5t131 116.5q14 0 27.5 -10t17.5 -25q-78 -110 -176 -176t-203 -66zM568 1028q-53 126 -153 266l47 27q119 -103 179 -184q94 80 259 184l33 -27q-163 -148 -262 -266h-103z" />
<glyph unicode="&#x10e;" horiz-adv-x="1366" d="M39 37q4 18 18 18l60 4q54 3 83 24t38 69l198 1019q5 23 5 37q0 30 -19.5 40t-71.5 14l-53 4q-17 0 -14 16l6 39l6 4q184 -4 248 -4q34 0 143.5 2t177.5 2q245 0 401 -158.5t156 -397.5q0 -65 -14 -138q-28 -145 -90.5 -259t-140 -183t-173.5 -114t-184 -62t-178 -17 q-117 0 -224.5 2t-129.5 2q-66 0 -250 -4l-4 4zM395 150q-3 -15 -3 -27q0 -23 16.5 -34.5t59.5 -17t126 -5.5q88 0 163.5 13.5t151.5 49t134 92.5t104.5 149t69.5 212q18 92 18 184q0 80 -14.5 149.5t-49 133t-86 108.5t-130.5 71.5t-179 26.5q-41 0 -67.5 -2.5t-52.5 -10 t-40.5 -24t-19.5 -42.5zM844 1427q-52 93 -162 195l41 41q107 -50 190 -125q128 79 248 125l21 -41q-121 -80 -250 -195h-88z" />
<glyph unicode="&#x10f;" horiz-adv-x="1081" d="M707 397q94 174 94 250q0 60 -37.5 119t-91.5 59q-68 0 -132.5 -50.5t-109.5 -127t-72.5 -168t-27.5 -172.5q0 -233 80 -233q58 0 138.5 90t158.5 233zM707 238l-7 4q-94 -137 -170.5 -199.5t-154.5 -62.5q-64 0 -108 29t-64.5 77t-28.5 93t-8 95q0 116 47.5 232.5 t120 201.5t162 138t170.5 53q56 0 98.5 -32t62.5 -81h2l76 367q15 75 15 102q0 32 -10.5 45t-32.5 13l-64 4q-10 0 -10 10l6 49q63 4 154.5 21.5t132.5 32.5q24 0 24 -21q-20 -82 -51 -215l-217 -948q-21 -102 -21 -115q0 -16 8.5 -22.5t16.5 -6.5q36 0 115 109 q13 0 22.5 -5.5t13 -10.5t11.5 -17q-90 -198 -262 -198q-47 0 -65.5 27.5t-18.5 64.5q0 30 20 112zM1302 1430q56 0 80 -45.5t12 -104.5q-14 -67 -83.5 -136.5t-169.5 -80.5l-3 35q62 12 105.5 56t52.5 85q4 20 -2 31.5t-18 11.5q-96 0 -79 78q6 27 34 48.5t71 21.5z" />
<glyph unicode="&#x110;" horiz-adv-x="1366" d="M39 37q4 18 18 18l60 4q54 3 83 24t38 69l85 436h-163l16 82h163l97 501q5 23 5 37q0 30 -19.5 40t-71.5 14l-53 4q-17 0 -14 16l6 39l6 4q184 -4 248 -4q34 0 143.5 2t177.5 2q245 0 401 -158.5t156 -397.5q0 -65 -14 -138q-28 -145 -90.5 -259t-140 -183t-173.5 -114 t-184 -62t-178 -17q-117 0 -224.5 2t-129.5 2q-66 0 -250 -4l-4 4zM395 150q-3 -15 -3 -27q0 -23 16.5 -34.5t59.5 -17t126 -5.5q88 0 163.5 13.5t151.5 49t134 92.5t104.5 149t69.5 212q18 92 18 184q0 80 -14.5 149.5t-49 133t-86 108.5t-130.5 71.5t-179 26.5 q-41 0 -67.5 -2.5t-52.5 -10t-40.5 -24t-19.5 -42.5l-99 -506h322l-16 -82h-322z" />
<glyph unicode="&#x111;" horiz-adv-x="1001" d="M1198 1171l-18 -79h-134l-194 -846q-21 -102 -21 -115q0 -16 8.5 -22.5t16.5 -6.5q36 0 115 109q13 0 22.5 -5.5t13 -10.5t11.5 -17q-90 -198 -262 -198q-47 0 -65.5 27.5t-18.5 64.5q0 30 20 112l15 54l-7 4q-94 -137 -170.5 -199.5t-154.5 -62.5q-64 0 -108 29 t-64.5 77t-28.5 93t-8 95q0 116 47.5 232.5t120 201.5t162 138t170.5 53q56 0 98.5 -32t62.5 -81h2l64 306h-275l19 79h272q11 57 11 84q0 32 -10.5 45t-32.5 13l-64 4q-10 0 -10 10l6 49q63 4 154.5 21.5t132.5 32.5q24 0 24 -21q-20 -82 -51 -215l-5 -23h134zM707 397 q94 174 94 250q0 60 -37.5 119t-91.5 59q-68 0 -132.5 -50.5t-109.5 -127t-72.5 -168t-27.5 -172.5q0 -233 80 -233q58 0 138.5 90t158.5 233z" />
<glyph unicode="&#x112;" horiz-adv-x="1077" d="M1133 1323q0 -18 -6 -130t-11 -167l-57 -10q-5 48 -11 78t-18.5 60.5t-31.5 47t-50 27t-74 10.5h-204q-72 0 -86 -70l-82 -430h250q49 0 74.5 20.5t39.5 65.5l15 52q4 16 18 16h43l6 -8q-33 -119 -43 -185q-17 -88 -26 -178l-11 -6h-43q-7 0 -9.5 5.5t-0.5 10.5l4 52 q1 6 1 17q0 34 -19.5 47.5t-65.5 13.5h-250l-100 -515q-2 -16 -2 -21q0 -26 15.5 -36t45.5 -10h267q193 0 317 268l59 -10q-6 -14 -139 -342q-156 4 -250 4h-422q-65 0 -249 -4l-4 4l8 41q5 14 18 14l60 4q57 4 83 24t35 64l199 1022q3 17 3 29q0 31 -20.5 45.5t-66.5 18.5 l-57 4q-18 0 -13 14l9 41l4 4q184 -4 247 -4h498q47 0 94 8q9 0 9 -6zM1064 1501h-500q-13 0 -18 9.5t-2 21.5q4 20 22 39.5t35 19.5h502q14 0 19.5 -8.5t3.5 -19.5q-4 -20 -23.5 -41t-38.5 -21z" />
<glyph unicode="&#x113;" horiz-adv-x="821" d="M727 758q0 44 -22 61t-78 17q-184 0 -271 -350q66 8 125 25.5t117.5 48t93.5 82t35 116.5zM342 408q-2 -16 -2 -70q0 -131 40.5 -183.5t115.5 -52.5q76 0 126.5 25.5t135.5 112.5q33 0 47 -33q-176 -227 -383 -227q-122 0 -187 87t-65 224q0 81 17.5 163.5t57.5 163 t97 142.5t143 100.5t189 38.5q52 0 92 -16t61 -40.5t31 -49t10 -45.5q0 -67 -21 -107q-80 -150 -505 -233zM912 1104h-499q-13 0 -18 9.5t-3 21.5q4 20 22 39.5t35 19.5h502q14 0 19.5 -9t3.5 -20q-4 -20 -23.5 -40.5t-38.5 -20.5z" />
<glyph unicode="&#x114;" horiz-adv-x="1077" d="M1133 1323q0 -18 -6 -130t-11 -167l-57 -10q-5 48 -11 78t-18.5 60.5t-31.5 47t-50 27t-74 10.5h-204q-72 0 -86 -70l-82 -430h250q49 0 74.5 20.5t39.5 65.5l15 52q4 16 18 16h43l6 -8q-33 -119 -43 -185q-17 -88 -26 -178l-11 -6h-43q-7 0 -9.5 5.5t-0.5 10.5l4 52 q1 6 1 17q0 34 -19.5 47.5t-65.5 13.5h-250l-100 -515q-2 -16 -2 -21q0 -26 15.5 -36t45.5 -10h267q193 0 317 268l59 -10q-6 -14 -139 -342q-156 4 -250 4h-422q-65 0 -249 -4l-4 4l8 41q5 14 18 14l60 4q57 4 83 24t35 64l199 1022q3 17 3 29q0 31 -20.5 45.5t-66.5 18.5 l-57 4q-18 0 -13 14l9 41l4 4q184 -4 247 -4h498q47 0 94 8q9 0 9 -6zM842 1413q-118 0 -178 58t-60 151v23h58q0 -7 1.5 -16.5t12.5 -30.5t30 -37t59 -28.5t95 -12.5q81 0 152 35t92 90h55q-25 -108 -119.5 -170t-197.5 -62z" />
<glyph unicode="&#x115;" horiz-adv-x="821" d="M727 758q0 44 -22 61t-78 17q-184 0 -271 -350q66 8 125 25.5t117.5 48t93.5 82t35 116.5zM342 408q-2 -16 -2 -70q0 -131 40.5 -183.5t115.5 -52.5q76 0 126.5 25.5t135.5 112.5q33 0 47 -33q-176 -227 -383 -227q-122 0 -187 87t-65 224q0 81 17.5 163.5t57.5 163 t97 142.5t143 100.5t189 38.5q52 0 92 -16t61 -40.5t31 -49t10 -45.5q0 -67 -21 -107q-80 -150 -505 -233zM503 1327q0 -82 50 -133t133 -51t154.5 49t104.5 135l51 -24q-43 -126 -140 -201.5t-193 -75.5q-108 0 -166.5 73.5t-53.5 203.5z" />
<glyph unicode="&#x116;" horiz-adv-x="1077" d="M1133 1323q0 -18 -6 -130t-11 -167l-57 -10q-5 48 -11 78t-18.5 60.5t-31.5 47t-50 27t-74 10.5h-204q-72 0 -86 -70l-82 -430h250q49 0 74.5 20.5t39.5 65.5l15 52q4 16 18 16h43l6 -8q-33 -119 -43 -185q-17 -88 -26 -178l-11 -6h-43q-7 0 -9.5 5.5t-0.5 10.5l4 52 q1 6 1 17q0 34 -19.5 47.5t-65.5 13.5h-250l-100 -515q-2 -16 -2 -21q0 -26 15.5 -36t45.5 -10h267q193 0 317 268l59 -10q-6 -14 -139 -342q-156 4 -250 4h-422q-65 0 -249 -4l-4 4l8 41q5 14 18 14l60 4q57 4 83 24t35 64l199 1022q3 17 3 29q0 31 -20.5 45.5t-66.5 18.5 l-57 4q-18 0 -13 14l9 41l4 4q184 -4 247 -4h498q47 0 94 8q9 0 9 -6zM742 1516q8 40 43 69t75 29t63 -29t15 -69t-43 -69.5t-75 -29.5t-63 29.5t-15 69.5z" />
<glyph unicode="&#x117;" horiz-adv-x="821" d="M608 1178q0 40 29.5 69t69.5 29t69 -29t29 -69t-29 -69.5t-69 -29.5t-69.5 29.5t-29.5 69.5zM727 758q0 44 -22 61t-78 17q-184 0 -271 -350q66 8 125 25.5t117.5 48t93.5 82t35 116.5zM342 408q-2 -16 -2 -70q0 -131 40.5 -183.5t115.5 -52.5q76 0 126.5 25.5 t135.5 112.5q33 0 47 -33q-176 -227 -383 -227q-122 0 -187 87t-65 224q0 81 17.5 163.5t57.5 163t97 142.5t143 100.5t189 38.5q52 0 92 -16t61 -40.5t31 -49t10 -45.5q0 -67 -21 -107q-80 -150 -505 -233z" />
<glyph unicode="&#x118;" horiz-adv-x="1077" d="M827 -459q-84 0 -137 46.5t-53 127.5q0 73 56 152.5t146 130.5q-92 2 -141 2h-422q-65 0 -249 -4l-4 4l8 41q5 14 18 14l60 4q57 4 83 24t35 64l199 1022q3 17 3 29q0 31 -20.5 45.5t-66.5 18.5l-57 4q-18 0 -13 14l9 41l4 4q184 -4 247 -4h498q47 0 94 8q9 0 9 -6 q0 -18 -6 -130t-11 -167l-57 -10q-5 48 -11 78t-18.5 60.5t-31.5 47t-50 27t-74 10.5h-204q-72 0 -86 -70l-82 -430h250q49 0 74.5 20.5t39.5 65.5l15 52q4 16 18 16h43l6 -8q-33 -119 -43 -185q-17 -88 -26 -178l-11 -6h-43q-7 0 -9.5 5.5t-0.5 10.5l4 52q1 6 1 17 q0 34 -19.5 47.5t-65.5 13.5h-250l-100 -515q-2 -16 -2 -21q0 -26 15.5 -36t45.5 -10h267q193 0 317 268l59 -10q-30 -72 -118 -291q8 2 24 4l43 -51q-77 0 -143 -43.5t-99.5 -102t-33.5 -112.5q0 -51 32.5 -86t86.5 -35q42 0 75 19t68 55l31 -17q-34 -67 -99 -102t-127 -35 z" />
<glyph unicode="&#x119;" horiz-adv-x="821" d="M695 -222q-113 -133 -253 -133q-82 0 -123.5 36.5t-25.5 115.5q18 88 141 183h-12q-122 0 -187 87t-65 224q0 81 17.5 163.5t57.5 163t97 142.5t143 100.5t189 38.5q52 0 92 -16t61 -40.5t31 -49t10 -45.5q0 -67 -21 -107q-80 -150 -505 -233q-2 -16 -2 -70 q0 -131 40.5 -183.5t115.5 -52.5q76 0 126.5 25.5t135.5 112.5q33 0 47 -33q-109 -141 -226 -193q-70 -54 -107 -99t-48 -96q-9 -43 10 -69.5t73 -26.5q28 0 55.5 11.5t45.5 25t52 41.5q27 0 35 -23zM727 758q0 44 -22 61t-78 17q-184 0 -271 -350q66 8 125 25.5t117.5 48 t93.5 82t35 116.5z" />
<glyph unicode="&#x11a;" horiz-adv-x="1077" d="M1133 1323q0 -18 -6 -130t-11 -167l-57 -10q-5 48 -11 78t-18.5 60.5t-31.5 47t-50 27t-74 10.5h-204q-72 0 -86 -70l-82 -430h250q49 0 74.5 20.5t39.5 65.5l15 52q4 16 18 16h43l6 -8q-33 -119 -43 -185q-17 -88 -26 -178l-11 -6h-43q-7 0 -9.5 5.5t-0.5 10.5l4 52 q1 6 1 17q0 34 -19.5 47.5t-65.5 13.5h-250l-100 -515q-2 -16 -2 -21q0 -26 15.5 -36t45.5 -10h267q193 0 317 268l59 -10q-6 -14 -139 -342q-156 4 -250 4h-422q-65 0 -249 -4l-4 4l8 41q5 14 18 14l60 4q57 4 83 24t35 64l199 1022q3 17 3 29q0 31 -20.5 45.5t-66.5 18.5 l-57 4q-18 0 -13 14l9 41l4 4q184 -4 247 -4h498q47 0 94 8q9 0 9 -6zM797 1427q-52 93 -162 195l41 41q107 -50 190 -125q128 79 248 125l21 -41q-121 -80 -250 -195h-88z" />
<glyph unicode="&#x11b;" horiz-adv-x="821" d="M727 758q0 44 -22 61t-78 17q-184 0 -271 -350q66 8 125 25.5t117.5 48t93.5 82t35 116.5zM342 408q-2 -16 -2 -70q0 -131 40.5 -183.5t115.5 -52.5q76 0 126.5 25.5t135.5 112.5q33 0 47 -33q-176 -227 -383 -227q-122 0 -187 87t-65 224q0 81 17.5 163.5t57.5 163 t97 142.5t143 100.5t189 38.5q52 0 92 -16t61 -40.5t31 -49t10 -45.5q0 -67 -21 -107q-80 -150 -505 -233zM589 1026q-53 126 -153 266l46 27q122 -106 180 -184q94 80 259 184l33 -27q-167 -152 -263 -266h-102z" />
<glyph unicode="&#x11c;" horiz-adv-x="1359" d="M997 1348q81 0 148.5 -14.5t103.5 -32t79 -32t81 -14.5q-18 -189 -18 -315l-62 -12q-5 57 -17.5 103.5t-39 93t-66.5 77.5t-103.5 50.5t-146.5 19.5q-203 0 -372.5 -168.5t-221.5 -433.5q-11 -61 -11 -122q0 -94 26 -180t76.5 -157.5t135.5 -114.5t193 -43 q83 0 166.5 25.5t141.5 73.5l61 313q3 15 3 26q0 30 -22 43t-73 17l-49 4q-16 0 -13 16l11 54l4 4q184 -4 248 -4t182 4l4 -4l-10 -54q-2 -12 -21 -16q-48 -5 -72 -22.5t-32 -67.5l-47 -238q-5 -32 20 -57q-125 -94 -260 -142t-301 -48q-253 0 -402.5 146.5t-149.5 371.5 q0 66 13 131q32 164 116.5 302t197 227.5t242 139.5t257.5 50zM1092 1649q62 -106 161 -193l-43 -43q-114 59 -188 127q-120 -75 -248 -127l-18 43q118 77 248 193h88z" />
<glyph unicode="&#x11d;" horiz-adv-x="976" d="M330 -6q-32 -23 -51.5 -39t-54.5 -49t-53.5 -68t-18.5 -69q0 -87 86.5 -138t253.5 -51q125 0 187 47t62 113q0 53 -37.5 91t-125.5 79q-47 21 -131 49t-117 35zM850 596q0 -149 -87.5 -237.5t-223.5 -88.5q-82 0 -140 35q-2 -3 -9.5 -18t-11 -21.5t-9.5 -20.5t-9 -23 t-5.5 -20.5t-2.5 -21.5q0 -28 15.5 -48t49.5 -34t66 -22.5t88.5 -22t94.5 -24.5q208 -62 208 -234q0 -282 -466 -282q-54 0 -105 5.5t-105 20t-93.5 37t-65 60t-25.5 85.5q0 44 27 89t72 83.5t88 67.5t90 55q-53 31 -53 99q0 50 34 114.5t76 108.5q-94 113 -94 242 q0 64 18 119.5t55 101t100 72t146 26.5q128 0 201 -86q94 86 203 86q34 0 57 -21t23 -49q0 -29 -18 -48t-46 -19q-35 0 -57 35q-12 20 -31 20q-12 0 -43.5 -15.5t-52.5 -35.5q41 -58 41 -170zM698 596q0 108 -34.5 175t-98.5 67q-49 0 -81.5 -19t-49 -57t-22.5 -80.5 t-6 -103.5q0 -246 143 -246q149 0 149 264zM739 1321q46 -110 153 -264l-49 -29q-119 103 -179 184q-110 -93 -257 -184l-35 29q184 168 265 264h102z" />
<glyph unicode="&#x11e;" horiz-adv-x="1359" d="M997 1348q81 0 148.5 -14.5t103.5 -32t79 -32t81 -14.5q-18 -189 -18 -315l-62 -12q-5 57 -17.5 103.5t-39 93t-66.5 77.5t-103.5 50.5t-146.5 19.5q-203 0 -372.5 -168.5t-221.5 -433.5q-11 -61 -11 -122q0 -94 26 -180t76.5 -157.5t135.5 -114.5t193 -43 q83 0 166.5 25.5t141.5 73.5l61 313q3 15 3 26q0 30 -22 43t-73 17l-49 4q-16 0 -13 16l11 54l4 4q184 -4 248 -4t182 4l4 -4l-10 -54q-2 -12 -21 -16q-48 -5 -72 -22.5t-32 -67.5l-47 -238q-5 -32 20 -57q-125 -94 -260 -142t-301 -48q-253 0 -402.5 146.5t-149.5 371.5 q0 66 13 131q32 164 116.5 302t197 227.5t242 139.5t257.5 50zM1030 1419q-118 0 -177.5 58t-59.5 151v23h57q0 -7 1.5 -16.5t12.5 -30.5t30 -37t59.5 -28.5t95.5 -12.5q81 0 151.5 35t91.5 90h56q-25 -108 -120 -170t-198 -62z" />
<glyph unicode="&#x11f;" horiz-adv-x="976" d="M330 -6q-32 -23 -51.5 -39t-54.5 -49t-53.5 -68t-18.5 -69q0 -87 86.5 -138t253.5 -51q125 0 187 47t62 113q0 53 -37.5 91t-125.5 79q-47 21 -131 49t-117 35zM850 596q0 -149 -87.5 -237.5t-223.5 -88.5q-82 0 -140 35q-2 -3 -9.5 -18t-11 -21.5t-9.5 -20.5t-9 -23 t-5.5 -20.5t-2.5 -21.5q0 -28 15.5 -48t49.5 -34t66 -22.5t88.5 -22t94.5 -24.5q208 -62 208 -234q0 -282 -466 -282q-54 0 -105 5.5t-105 20t-93.5 37t-65 60t-25.5 85.5q0 44 27 89t72 83.5t88 67.5t90 55q-53 31 -53 99q0 50 34 114.5t76 108.5q-94 113 -94 242 q0 64 18 119.5t55 101t100 72t146 26.5q128 0 201 -86q94 86 203 86q34 0 57 -21t23 -49q0 -29 -18 -48t-46 -19q-35 0 -57 35q-12 20 -31 20q-12 0 -43.5 -15.5t-52.5 -35.5q41 -58 41 -170zM698 596q0 108 -34.5 175t-98.5 67q-49 0 -81.5 -19t-49 -57t-22.5 -80.5 t-6 -103.5q0 -246 143 -246q149 0 149 264zM462 1319q0 -82 50.5 -133t133.5 -51q82 0 153.5 48.5t104.5 135.5l51 -25q-43 -126 -139.5 -201t-193.5 -75q-108 0 -166.5 73t-53.5 203z" />
<glyph unicode="&#x120;" horiz-adv-x="1359" d="M997 1348q81 0 148.5 -14.5t103.5 -32t79 -32t81 -14.5q-18 -189 -18 -315l-62 -12q-5 57 -17.5 103.5t-39 93t-66.5 77.5t-103.5 50.5t-146.5 19.5q-203 0 -372.5 -168.5t-221.5 -433.5q-11 -61 -11 -122q0 -94 26 -180t76.5 -157.5t135.5 -114.5t193 -43 q83 0 166.5 25.5t141.5 73.5l61 313q3 15 3 26q0 30 -22 43t-73 17l-49 4q-16 0 -13 16l11 54l4 4q184 -4 248 -4t182 4l4 -4l-10 -54q-2 -12 -21 -16q-48 -5 -72 -22.5t-32 -67.5l-47 -238q-5 -32 20 -57q-125 -94 -260 -142t-301 -48q-253 0 -402.5 146.5t-149.5 371.5 q0 66 13 131q32 164 116.5 302t197 227.5t242 139.5t257.5 50zM936 1542q8 40 43.5 69t75.5 29t63 -29t15 -69t-43 -69t-75 -29t-63.5 29t-15.5 69z" />
<glyph unicode="&#x121;" horiz-adv-x="976" d="M330 -6q-32 -23 -51.5 -39t-54.5 -49t-53.5 -68t-18.5 -69q0 -87 86.5 -138t253.5 -51q125 0 187 47t62 113q0 53 -37.5 91t-125.5 79q-47 21 -131 49t-117 35zM850 596q0 -149 -87.5 -237.5t-223.5 -88.5q-82 0 -140 35q-2 -3 -9.5 -18t-11 -21.5t-9.5 -20.5t-9 -23 t-5.5 -20.5t-2.5 -21.5q0 -28 15.5 -48t49.5 -34t66 -22.5t88.5 -22t94.5 -24.5q208 -62 208 -234q0 -282 -466 -282q-54 0 -105 5.5t-105 20t-93.5 37t-65 60t-25.5 85.5q0 44 27 89t72 83.5t88 67.5t90 55q-53 31 -53 99q0 50 34 114.5t76 108.5q-94 113 -94 242 q0 64 18 119.5t55 101t100 72t146 26.5q128 0 201 -86q94 86 203 86q34 0 57 -21t23 -49q0 -29 -18 -48t-46 -19q-35 0 -57 35q-12 20 -31 20q-12 0 -43.5 -15.5t-52.5 -35.5q41 -58 41 -170zM698 596q0 108 -34.5 175t-98.5 67q-49 0 -81.5 -19t-49 -57t-22.5 -80.5 t-6 -103.5q0 -246 143 -246q149 0 149 264zM567 1167q0 40 29.5 69.5t69.5 29.5t69 -29.5t29 -69.5t-29 -69t-69 -29t-69.5 29t-29.5 69z" />
<glyph unicode="&#x122;" horiz-adv-x="1359" d="M997 1348q81 0 148.5 -14.5t103.5 -32t79 -32t81 -14.5q-18 -189 -18 -315l-62 -12q-5 57 -17.5 103.5t-39 93t-66.5 77.5t-103.5 50.5t-146.5 19.5q-203 0 -372.5 -168.5t-221.5 -433.5q-11 -61 -11 -122q0 -94 26 -180t76.5 -157.5t135.5 -114.5t193 -43 q83 0 166.5 25.5t141.5 73.5l61 313q3 15 3 26q0 30 -22 43t-73 17l-49 4q-16 0 -13 16l11 54l4 4q184 -4 248 -4t182 4l4 -4l-10 -54q-2 -12 -21 -16q-48 -5 -72 -22.5t-32 -67.5l-47 -238q-5 -32 20 -57q-125 -94 -260 -142t-301 -48q-253 0 -402.5 146.5t-149.5 371.5 q0 66 13 131q32 164 116.5 302t197 227.5t242 139.5t257.5 50zM751 -127q58 0 83 -48t8 -128q-18 -87 -89 -137.5t-169 -65.5q-14 17 -7 49q75 16 122.5 47.5t53.5 61.5q6 28 -8 39t-45 14q-33 6 -54.5 24.5t-14.5 55.5q8 37 42 62.5t78 25.5z" />
<glyph unicode="&#x123;" horiz-adv-x="976" d="M330 -6q-32 -23 -51.5 -39t-54.5 -49t-53.5 -68t-18.5 -69q0 -87 86.5 -138t253.5 -51q125 0 187 47t62 113q0 53 -37.5 91t-125.5 79q-47 21 -131 49t-117 35zM850 596q0 -149 -87.5 -237.5t-223.5 -88.5q-82 0 -140 35q-2 -3 -9.5 -18t-11 -21.5t-9.5 -20.5t-9 -23 t-5.5 -20.5t-2.5 -21.5q0 -28 15.5 -48t49.5 -34t66 -22.5t88.5 -22t94.5 -24.5q208 -62 208 -234q0 -282 -466 -282q-54 0 -105 5.5t-105 20t-93.5 37t-65 60t-25.5 85.5q0 44 27 89t72 83.5t88 67.5t90 55q-53 31 -53 99q0 50 34 114.5t76 108.5q-94 113 -94 242 q0 64 18 119.5t55 101t100 72t146 26.5q128 0 201 -86q94 86 203 86q34 0 57 -21t23 -49q0 -29 -18 -48t-46 -19q-35 0 -57 35q-12 20 -31 20q-12 0 -43.5 -15.5t-52.5 -35.5q41 -58 41 -170zM698 596q0 108 -34.5 175t-98.5 67q-49 0 -81.5 -19t-49 -57t-22.5 -80.5 t-6 -103.5q0 -246 143 -246q149 0 149 264zM633 1047q-57 0 -82.5 45t-13.5 104q16 77 74 135q74 74 188 88q9 -10 2 -41q-84 -17 -130.5 -56.5t-55.5 -80.5q-2 -10 -2 -16t1 -9t6.5 -3.5t10.5 -0.5t16.5 1t21.5 1q55 0 74 -25.5t12 -58.5q-6 -29 -39.5 -56t-82.5 -27z" />
<glyph unicode="&#x124;" horiz-adv-x="1378" d="M1100 1645q61 -105 162 -193l-43 -43q-117 60 -189 127q-120 -75 -248 -127l-18 43q118 77 248 193h88zM1235 1165q9 46 -11 68t-79 27l-70 6q-4 8 -1.5 30.5t7.5 28.5q180 -4 260 -4q62 0 246 4q6 -14 4 -33.5t-8 -25.5l-63 -6q-61 -6 -89.5 -28.5t-37.5 -66.5 l-199 -1009q-9 -47 11 -68.5t79 -26.5l70 -6q4 -8 1.5 -30.5t-7.5 -28.5q-180 4 -261 4q-61 0 -245 -4q-6 14 -4 33.5t8 25.5l63 6q61 6 90 28t37 67l99 501h-641l-99 -501q-9 -47 11 -68.5t79 -26.5l70 -6q4 -8 1.5 -30.5t-7.5 -28.5q-180 4 -260 4q-62 0 -246 -4 q-6 14 -4 33.5t8 25.5l64 6q61 6 90 28t37 67l198 1009q9 46 -11 68t-79 27l-70 6q-4 8 -1 30t8 29q180 -4 260 -4q61 0 245 4q6 -14 4 -33.5t-8 -25.5l-63 -6q-61 -6 -89.5 -28.5t-37.5 -66.5l-83 -422h641z" />
<glyph unicode="&#x125;" horiz-adv-x="1062" d="M360 147q-3 -14 -7.5 -39t-7.5 -39.5t-9.5 -33.5t-14.5 -29.5t-22 -18t-33 -7.5q-46 0 -65 14t-19 41q0 9 4 26.5t11.5 45.5t10.5 40l224 1006q14 63 14 102q0 32 -10.5 45t-32.5 13l-63 4q-10 0 -10 10l6 49q63 4 154.5 21.5t132.5 32.5q24 0 24 -21q-21 -82 -51 -215 l-124 -556q131 153 221 207t179 54q136 0 136 -164q0 -33 -27 -155l-78 -326q-22 -97 -22 -117q0 -35 20 -35q16 0 55.5 29.5t77.5 73.5q35 0 47 -35q-148 -190 -284 -190q-84 0 -84 67q0 45 35 189l77 327q21 92 21 137q0 44 -18 60t-54 16q-54 0 -145 -79.5t-191 -209.5z M883 1704q62 -106 161 -193l-43 -43q-114 59 -188 127q-120 -75 -248 -127l-18 43q118 77 248 193h88z" />
<glyph unicode="&#x126;" horiz-adv-x="1378" d="M1235 1165q9 46 -11 68t-79 27l-70 6q-4 8 -1.5 30.5t7.5 28.5q180 -4 260 -4q62 0 246 4q6 -14 4 -33.5t-8 -25.5l-63 -6q-61 -6 -89.5 -28.5t-37.5 -66.5l-10 -47h180l-15 -69h-178l-176 -893q-9 -47 11 -68.5t79 -26.5l70 -6q4 -8 1.5 -30.5t-7.5 -28.5q-180 4 -261 4 q-61 0 -245 -4q-6 14 -4 33.5t8 25.5l63 6q61 6 90 28t37 67l99 501h-641l-99 -501q-9 -47 11 -68.5t79 -26.5l70 -6q4 -8 1.5 -30.5t-7.5 -28.5q-180 4 -260 4q-62 0 -246 -4q-6 14 -4 33.5t8 25.5l64 6q61 6 90 28t37 67l175 893h-73l14 69h73l9 47q9 46 -11 68t-79 27 l-70 6q-4 8 -1 30t8 29q180 -4 260 -4q61 0 245 4q6 -14 4 -33.5t-8 -25.5l-63 -6q-61 -6 -89.5 -28.5t-37.5 -66.5l-9 -47h641zM1152 743l60 306h-641l-60 -306h641z" />
<glyph unicode="&#x127;" horiz-adv-x="1062" d="M360 147q-3 -14 -7.5 -39t-7.5 -39.5t-9.5 -33.5t-14.5 -29.5t-22 -18t-33 -7.5q-46 0 -65 14t-19 41q0 9 4 26.5t11.5 45.5t10.5 40l209 938h-124l18 80h124q11 54 11 90q0 32 -10.5 45t-32.5 13l-63 4q-10 0 -10 10l6 49q63 4 154.5 21.5t132.5 32.5q24 0 24 -21 q-21 -82 -51 -215l-6 -29h321l-18 -80h-321l-100 -447q131 153 221 207t179 54q136 0 136 -164q0 -33 -27 -155l-78 -326q-22 -97 -22 -117q0 -35 20 -35q16 0 55.5 29.5t77.5 73.5q35 0 47 -35q-148 -190 -284 -190q-84 0 -84 67q0 45 35 189l77 327q21 92 21 137 q0 44 -18 60t-54 16q-54 0 -145 -79.5t-191 -209.5z" />
<glyph unicode="&#x128;" horiz-adv-x="573" d="M436 1165q9 46 -11 68t-79 27l-70 6q-4 8 -1 30t8 29q180 -4 260 -4q61 0 245 4q6 -14 4 -33.5t-8 -25.5l-63 -6q-61 -6 -89.5 -28.5t-37.5 -66.5l-199 -1009q-9 -47 11 -68.5t79 -26.5l70 -6q4 -8 1.5 -30.5t-7.5 -28.5q-180 4 -260 4q-62 0 -246 -4q-6 14 -4 33.5 t8 25.5l64 6q61 6 90 28t37 67zM694 1518q36 0 63.5 22t60.5 84l46 -12q-75 -185 -215 -185q-51 0 -120 54q-63 45 -102 45t-66.5 -23.5t-53.5 -75.5l-47 11q41 93 88.5 137.5t112.5 44.5q66 0 135 -57q50 -45 98 -45z" />
<glyph unicode="&#x129;" horiz-adv-x="565" d="M502 656l-92 -402q-23 -100 -23 -117q0 -35 21 -35q16 0 55.5 29.5t77.5 73.5q35 0 47 -35q-148 -190 -285 -190q-84 0 -84 67q0 24 35 189l96 421q19 77 19 105q0 16 -9.5 28t-27.5 13l-82 6q-22 34 -2 57q22 3 68.5 9t71.5 9t58 6t56 3q42 0 42 -43q0 -16 -6 -44 t-18 -76t-18 -74zM609 1167q32 0 56.5 22.5t54.5 84.5l42 -12q-68 -185 -194 -185q-48 0 -108 53q-58 46 -91 46q-35 0 -59.5 -23t-48.5 -76l-43 10q37 93 80 138t101 45q37 0 64 -15t58 -43q45 -45 88 -45z" />
<glyph unicode="&#x12a;" horiz-adv-x="573" d="M436 1165q9 46 -11 68t-79 27l-70 6q-4 8 -1 30t8 29q180 -4 260 -4q61 0 245 4q6 -14 4 -33.5t-8 -25.5l-63 -6q-61 -6 -89.5 -28.5t-37.5 -66.5l-199 -1009q-9 -47 11 -68.5t79 -26.5l70 -6q4 -8 1.5 -30.5t-7.5 -28.5q-180 4 -260 4q-62 0 -246 -4q-6 14 -4 33.5 t8 25.5l64 6q61 6 90 28t37 67zM847 1567h-500q-13 0 -18 9t-2 21q4 20 22 40t35 20h502q14 0 19 -9t3 -20q-4 -20 -23 -40.5t-38 -20.5z" />
<glyph unicode="&#x12b;" horiz-adv-x="565" d="M502 656l-92 -402q-23 -100 -23 -117q0 -35 21 -35q16 0 55.5 29.5t77.5 73.5q35 0 47 -35q-148 -190 -285 -190q-84 0 -84 67q0 24 35 189l96 421q19 77 19 105q0 16 -9.5 28t-27.5 13l-82 6q-22 34 -2 57q22 3 68.5 9t71.5 9t58 6t56 3q42 0 42 -43q0 -16 -6 -44 t-18 -76t-18 -74zM711 1167h-449q-12 0 -16.5 9.5t-1.5 21.5q4 20 20.5 39.5t30.5 19.5h451q12 0 17.5 -9t3.5 -19q-4 -20 -21.5 -41t-34.5 -21z" />
<glyph unicode="&#x12c;" horiz-adv-x="573" d="M436 1165q9 46 -11 68t-79 27l-70 6q-4 8 -1 30t8 29q180 -4 260 -4q61 0 245 4q6 -14 4 -33.5t-8 -25.5l-63 -6q-61 -6 -89.5 -28.5t-37.5 -66.5l-199 -1009q-9 -47 11 -68.5t79 -26.5l70 -6q4 -8 1.5 -30.5t-7.5 -28.5q-180 4 -260 4q-62 0 -246 -4q-6 14 -4 33.5 t8 25.5l64 6q61 6 90 28t37 67zM612 1417q-118 0 -177.5 58t-59.5 151v23h57q0 -7 1.5 -16.5t12.5 -30.5t30 -37t59.5 -28.5t95.5 -12.5q81 0 151.5 35t91.5 90h56q-25 -108 -120 -170t-198 -62z" />
<glyph unicode="&#x12d;" horiz-adv-x="565" d="M502 656l-92 -402q-23 -100 -23 -117q0 -35 21 -35q16 0 55.5 29.5t77.5 73.5q35 0 47 -35q-148 -190 -285 -190q-84 0 -84 67q0 24 35 189l96 421q19 77 19 105q0 16 -9.5 28t-27.5 13l-82 6q-22 34 -2 57q22 3 68.5 9t71.5 9t58 6t56 3q42 0 42 -43q0 -16 -6 -44 t-18 -76t-18 -74zM332 1331q0 -82 45 -133t120 -51t139.5 48.5t93.5 135.5l45 -24q-39 -126 -125.5 -201.5t-173.5 -75.5q-97 0 -149.5 73.5t-48.5 203.5z" />
<glyph unicode="&#x12e;" horiz-adv-x="573" d="M352 -461q-84 0 -137 46.5t-53 127.5q0 75 57.5 155.5t150.5 130.5q-14 0 -41 0.5t-40 0.5q-62 0 -246 -4q-6 14 -4 33.5t8 25.5l64 6q61 6 90 28t37 67l198 1009q9 46 -11 68t-79 27l-70 6q-4 8 -1 30t8 29q180 -4 260 -4q61 0 245 4q6 -14 4 -33.5t-8 -25.5l-63 -6 q-61 -6 -89.5 -28.5t-37.5 -66.5l-199 -1009q-9 -47 11 -68.5t79 -26.5l70 -6q7 -11 -2 -48l8 -9h-11l-1 -2h-17q-104 -12 -175.5 -94t-71.5 -162q0 -51 32 -86t86 -35q77 0 144 74l31 -17q-34 -67 -99 -102t-127 -35z" />
<glyph unicode="&#x12f;" horiz-adv-x="565" d="M412 1167q0 40 29 69.5t69 29.5t69 -29.5t29 -69.5t-29 -69t-69 -29t-69 29t-29 69zM502 656l-92 -402q-23 -100 -23 -117q0 -35 21 -35q16 0 55.5 29.5t77.5 73.5q35 0 47 -35q-52 -67 -102 -110q9 -4 -15 -25q-215 -190 -215 -287q0 -36 29 -63t77 -27q42 0 73.5 17 t78.5 57l29 -15q-115 -139 -244 -139q-74 0 -121 36.5t-47 102.5q0 34 12 67.5t39.5 70t49 60.5t61.5 65q-74 4 -74 67q0 24 35 189l96 421q19 77 19 105q0 16 -9.5 28t-27.5 13l-82 6q-22 34 -2 57q22 3 68.5 9t71.5 9t58 6t56 3q42 0 42 -43q0 -16 -6 -44t-18 -76t-18 -74 z" />
<glyph unicode="&#x130;" horiz-adv-x="573" d="M436 1165q9 46 -11 68t-79 27l-70 6q-4 8 -1 30t8 29q180 -4 260 -4q61 0 245 4q6 -14 4 -33.5t-8 -25.5l-63 -6q-61 -6 -89.5 -28.5t-37.5 -66.5l-199 -1009q-9 -47 11 -68.5t79 -26.5l70 -6q4 -8 1.5 -30.5t-7.5 -28.5q-180 4 -260 4q-62 0 -246 -4q-6 14 -4 33.5 t8 25.5l64 6q61 6 90 28t37 67zM488 1536q8 40 43 69t75 29t63 -29t15 -69t-43 -69t-75 -29t-63 29t-15 69z" />
<glyph unicode="&#x131;" horiz-adv-x="565" d="M502 656l-92 -402q-23 -100 -23 -117q0 -35 21 -35q17 0 56 29.5t77 73.5q35 0 47 -35q-148 -190 -285 -190q-84 0 -84 67q0 24 35 189l96 421q19 77 19 105q0 16 -9.5 28t-27.5 13l-82 6q-22 34 -2 57q22 3 68.5 9t71.5 9t58 6t56 3q42 0 42 -43q0 -16 -6 -44t-18 -76 t-18 -74z" />
<glyph unicode="&#x132;" horiz-adv-x="1230" d="M436 1165q9 46 -11 68t-79 27l-70 6q-4 8 -1 30t8 29q180 -4 260 -4q61 0 245 4q6 -14 4 -33.5t-8 -25.5l-63 -6q-61 -6 -89.5 -28.5t-37.5 -66.5l-199 -1009q-9 -47 11 -68.5t79 -26.5l70 -6q4 -8 1.5 -30.5t-7.5 -28.5q-180 4 -260 4q-62 0 -246 -4q-6 14 -4 33.5 t8 25.5l64 6q61 6 90 28t37 67zM1278 1071l-170 -860q-17 -85 -44.5 -157t-53.5 -117t-65.5 -88.5t-62.5 -63.5t-63 -51q-65 -51 -121 -68.5t-127 -17.5q-38 0 -83 26.5t-45 70.5q0 37 34 65t60 28q67 0 94 -61q19 -37 59 -37q22 0 43.5 8t50 35t54 71.5t52.5 125t48 186.5 l178 905q13 67 13 97q0 56 -34.5 75t-125.5 23q-9 14 -7 33t11 26q188 -4 264 -4q41 0 229 4q9 -14 7 -33t-11 -26q-48 -2 -73.5 -8.5t-48.5 -27t-36 -57t-26 -102.5z" />
<glyph unicode="&#x133;" horiz-adv-x="1032" d="M252 236l96 421q19 90 19 105q0 16 -9.5 28t-27.5 13l-82 6q-22 34 -2 57q22 3 68.5 9t71.5 9t58 6t56 3q42 0 42 -43q0 -16 -6 -44t-18 -77t-18 -73l-92 -402q-16 -64 -9.5 -101.5t25.5 -52t53 -14.5q25 0 52 15t59 50t58.5 68t66 94.5t64 101.5t69.5 115l28 127 q17 81 17 105q0 16 -9.5 28t-27.5 13l-82 6q-22 34 -2 57q185 27 254 27q42 0 42 -43q0 -16 -39 -194l-38 -177q-25 -118 -46 -206.5t-48 -185t-54 -165t-62 -133t-72.5 -104t-85 -63t-101.5 -23.5q-72 0 -120 25.5t-48 72.5q0 30 18.5 46.5t41.5 16.5q34 0 57 -14t32.5 -30 t23.5 -30t32 -14q37 0 79.5 48t72.5 165q20 80 50 232.5t44 217.5q-43 -63 -70 -100.5t-64 -84t-66 -73t-64.5 -51.5t-71.5 -35.5t-76 -10.5q-87 0 -128 62t-11 194zM420 1167q0 40 29 69.5t69 29.5t69 -29.5t29 -69.5t-29 -69t-69 -29t-69 29t-29 69zM934 1167 q0 40 29 69.5t69 29.5t69 -29.5t29 -69.5t-29 -69t-69 -29t-69 29t-29 69z" />
<glyph unicode="&#x134;" horiz-adv-x="751" d="M690 1649q57 -99 162 -193l-41 -43q-109 54 -190 127q-112 -72 -248 -127l-19 43q118 77 248 193h88zM795 1188q-13 -79 -35.5 -247t-22.5 -204q0 -32 19 -41t75 -14l-6 -51l-108 -10l-60 -359q-24 -144 -72 -256.5t-101 -175.5t-115 -103.5t-108.5 -53.5t-86.5 -13 q-72 0 -127 34.5t-55 84.5q0 23 15.5 41t39.5 18q66 0 96 -61q21 -43 60 -43q47 0 86 23.5t75.5 77.5t67 150t53.5 232l68 401l-252 19v41l264 14l4 25q27 158 52 247t75 197l-2 8q-12 -6 -32 -6q-49 0 -109 25q-25 10 -79 36.5t-90.5 38t-76.5 11.5q-32 0 -54 -18t-22 -39 q0 -7 17 -22t34 -36t17 -43q0 -63 -70 -63q-37 0 -56 24.5t-19 65.5q0 33 15 68.5t45.5 69.5t85.5 55.5t126 21.5q15 0 30.5 -2t35 -7t32.5 -8t37 -12.5t34 -13t37 -16t32.5 -14.5t35.5 -16l29 -14q7 47 38.5 89t78.5 42q74 0 74 -57q0 -60 -125 -141z" />
<glyph unicode="&#x135;" horiz-adv-x="530" d="M515 656l-38 -177q-25 -118 -46 -206.5t-48 -185t-54 -165t-62 -133t-72.5 -104t-85 -63t-101.5 -23.5q-72 0 -120 25.5t-48 72.5q0 30 18.5 46.5t41.5 16.5q34 0 57 -14t32.5 -30t23.5 -30t32 -14q37 0 79.5 48t72.5 165q21 81 51.5 238t48.5 237l65 297q17 81 17 105 q0 16 -9.5 28t-27.5 13l-82 6q-22 34 -2 57q185 27 254 27q42 0 42 -43q0 -16 -39 -194zM557 1319q46 -110 153 -264l-49 -29q-122 106 -180 184q-112 -95 -256 -184l-35 29q180 164 264 264h103z" />
<glyph unicode="&#x136;" horiz-adv-x="1304" d="M436 1165q9 46 -11 68t-79 27l-70 6q-4 8 -1 30t8 29q180 -4 260 -4q61 0 245 4q6 -14 4 -33.5t-8 -25.5l-63 -6q-61 -6 -89.5 -28.5t-37.5 -66.5l-90 -454q92 5 174 80l401 360q60 57 60 82q0 23 -47 29l-39 4q-16 0 -13 16l7 39l6 4q184 -4 227 -4q9 0 193 4l6 -4 l-9 -39q-3 -16 -24 -16q-51 -6 -83.5 -14t-83.5 -35t-103 -74l-336 -309q-86 -79 -92 -101q-3 -26 14 -51l328 -532q26 -45 58.5 -66t76.5 -27l12 -2q16 -4 14 -16l-6 -39l-8 -4q-184 4 -203 4q-57 0 -139 -4l-2 4l2 12q8 34 8 59q0 43 -20 79l-242 405q-44 78 -152 78l5 25 l-99 -502q-9 -47 11 -68.5t79 -26.5l70 -6q4 -8 1.5 -30.5t-7.5 -28.5q-180 4 -260 4q-62 0 -246 -4q-6 14 -4 33.5t8 25.5l64 6q61 6 90 28t37 67zM710 -80q58 0 83 -48t8 -128q-18 -87 -89 -137.5t-169 -65.5q-14 17 -7 49q75 16 122.5 47.5t53.5 61.5q6 28 -8 39t-45 14 q-33 6 -54.5 24.5t-14.5 55.5q8 37 42 62.5t78 25.5z" />
<glyph unicode="&#x137;" horiz-adv-x="995" d="M182 147l226 1006q14 63 14 102q0 32 -10.5 45t-32.5 13l-64 4q-10 0 -10 10l6 49q63 4 154.5 21.5t132.5 32.5q25 0 25 -21q-21 -82 -52 -215l-147 -637q48 0 121 63l82 70q111 99 200 154t138 55q100 0 100 -72q0 -43 -33.5 -72.5t-60.5 -29.5q-37 0 -64 14.5t-51 14.5 q-56 0 -197 -127l-106 -95v-8q25 -7 41 -15t29.5 -24t20.5 -28t22 -43q11 -22 45.5 -104.5t66.5 -145.5q1 -3 6.5 -13.5t7 -13.5t6 -11.5t7 -11.5l7.5 -9t8.5 -8.5t8.5 -5.5t11 -4t12 -1q17 0 46 27t60 71q16 0 24.5 -6t21.5 -20q-102 -178 -207 -178q-61 0 -105.5 48 t-96.5 162q-19 42 -50 135t-51 128q-18 33 -41 33q-26 0 -45 -7l-74 -332q-3 -13 -7 -38.5t-7 -39.5t-9.5 -33.5t-15 -30t-22.5 -18t-33 -7.5q-46 0 -65 14t-19 41q0 9 4 26.5t11.5 45.5t10.5 40zM538 -74q58 0 83 -48t8 -128q-18 -87 -89 -137.5t-169 -65.5q-14 17 -7 50 q75 16 122.5 47t53.5 61q6 28 -8 39t-45 14q-33 6 -54.5 24.5t-14.5 55.5q8 37 42 62.5t78 25.5z" />
<glyph unicode="&#x138;" horiz-adv-x="1036" d="M325 659q19 90 19 103q0 16 -9.5 28t-27.5 13l-82 6q-22 34 -2 57q216 27 258 27t42 -43q0 -16 -7 -45t-19 -74.5t-19 -74.5l-38 -162q29 0 51 15.5t50 46.5l135 134q100 98 184 153.5t133 55.5q101 0 101 -72q0 -43 -34 -72.5t-61 -29.5q-37 0 -63.5 14.5t-50.5 14.5 q-32 0 -69 -26t-107 -101l-105 -111l203 -352q12 -20 22 -41.5t13.5 -29.5t10 -13.5t17.5 -5.5q19 0 50.5 23t54.5 59q26 0 51 -29q-77 -147 -217 -147q-44 0 -68.5 25.5t-75.5 110.5q-6 11 -10 17l-155 262q-3 8 -15 16.5t-25 8.5q-10 0 -17 -3.5t-10 -7t-8.5 -13 t-8.5 -13.5l-54 -236q-3 -14 -8.5 -45t-10 -47.5t-13.5 -36.5t-24.5 -29t-37.5 -9q-46 0 -64.5 14t-18.5 41q0 9 4 26.5t11.5 45.5t10.5 40z" />
<glyph unicode="&#x139;" horiz-adv-x="1062" d="M240 156l196 1009q9 46 -11 68t-79 27l-70 6q-4 8 -1 30t8 29q180 -4 260 -4q61 0 245 4q6 -14 4 -33.5t-8 -25.5l-63 -6q-62 -6 -90.5 -28t-36.5 -67l-193 -983q-2 -10 -2 -27q0 -35 19.5 -55t56.5 -20h225q180 0 301 268q15 4 32 -0.5t26 -13.5q-83 -205 -119 -338 q-180 4 -233 4h-416q-62 0 -246 -4q-6 14 -4 33.5t8 25.5l64 6q61 6 90 28.5t37 66.5zM408 1427q-25 0 -25 23q0 24 43 51l289 172l133 -92l-346 -129q-77 -25 -94 -25z" />
<glyph unicode="&#x13a;" horiz-adv-x="544" d="M418 1485q-25 0 -25 22q0 25 43 52l289 172l133 -93l-346 -129q-74 -24 -94 -24zM586 1194l-209 -934q-25 -114 -25 -129q0 -29 25 -29q20 0 64 33t87 86q31 0 45 -35q-124 -206 -297 -206q-86 0 -86 90q0 46 29 174l203 909q14 63 14 102q0 32 -10.5 45t-32.5 13l-63 4 q-11 0 -11 10l7 49q63 4 154 21.5t132 32.5q25 0 25 -21q-21 -82 -51 -215z" />
<glyph unicode="&#x13b;" horiz-adv-x="1062" d="M240 156l196 1009q9 46 -11 68t-79 27l-70 6q-4 8 -1 30t8 29q180 -4 260 -4q61 0 245 4q6 -14 4 -33.5t-8 -25.5l-63 -6q-62 -6 -90.5 -28t-36.5 -67l-193 -983q-2 -10 -2 -27q0 -35 19.5 -55t56.5 -20h225q180 0 301 268q15 4 32 -0.5t26 -13.5q-83 -205 -119 -338 q-180 4 -233 4h-416q-62 0 -246 -4q-6 14 -4 33.5t8 25.5l64 6q61 6 90 28.5t37 66.5zM530 -88q58 0 83 -48t8 -128q-18 -87 -89.5 -137.5t-169.5 -65.5q-13 16 -6 49q75 16 122.5 47.5t53.5 61.5q6 28 -8 39t-45 14q-83 15 -70 80q8 37 42.5 62.5t78.5 25.5z" />
<glyph unicode="&#x13c;" horiz-adv-x="544" d="M300 -102q58 0 83.5 -48.5t8.5 -128.5q-18 -87 -89 -137t-170 -65q-13 16 -6 49q75 16 122 47t53 61q6 28 -7.5 39.5t-44.5 14.5q-83 15 -70 80q8 37 42 62.5t78 25.5zM586 1194l-209 -934q-25 -114 -25 -129q0 -29 25 -29q20 0 64 33t87 86q31 0 45 -35 q-124 -206 -297 -206q-86 0 -86 90q0 46 29 174l203 909q14 63 14 102q0 32 -10.5 45t-32.5 13l-63 4q-11 0 -11 10l7 49q63 4 154 21.5t132 32.5q25 0 25 -21q-21 -82 -51 -215z" />
<glyph unicode="&#x13d;" horiz-adv-x="1062" d="M240 156l196 1009q9 46 -11 68t-79 27l-70 6q-4 8 -1 30t8 29q180 -4 260 -4q61 0 245 4q6 -14 4 -33.5t-8 -25.5l-63 -6q-62 -6 -90.5 -28t-36.5 -67l-193 -983q-2 -10 -2 -27q0 -35 19.5 -55t56.5 -20h225q180 0 301 268q15 4 32 -0.5t26 -13.5q-83 -205 -119 -338 q-180 4 -233 4h-416q-62 0 -246 -4q-6 14 -4 33.5t8 25.5l64 6q61 6 90 28.5t37 66.5zM1091 1430q56 0 80 -45.5t12 -104.5q-14 -67 -83.5 -136.5t-169.5 -80.5l-3 35q62 12 105.5 56t52.5 85q4 20 -2 31.5t-18 11.5q-95 0 -78 78q6 28 33.5 49t70.5 21z" />
<glyph unicode="&#x13e;" horiz-adv-x="593" d="M586 1194l-209 -934q-25 -114 -25 -129q0 -29 25 -29q20 0 64 33t87 86q31 0 45 -35q-124 -206 -297 -206q-86 0 -86 90q0 46 29 174l203 909q14 63 14 102q0 32 -10.5 45t-32.5 13l-63 4q-11 0 -11 10l7 49q63 4 154 21.5t132 32.5q25 0 25 -21q-21 -82 -51 -215z M814 1430q56 0 80.5 -45.5t12.5 -104.5q-14 -67 -83.5 -136.5t-169.5 -80.5l-3 35q62 12 105 56t52 85q4 20 -2 31.5t-18 11.5q-95 0 -78 78q6 28 33.5 49t70.5 21z" />
<glyph unicode="&#x13f;" horiz-adv-x="1062" d="M240 156l196 1009q9 46 -11 68t-79 27l-70 6q-4 8 -1 30t8 29q180 -4 260 -4q61 0 245 4q6 -14 4 -33.5t-8 -25.5l-63 -6q-62 -6 -90.5 -28t-36.5 -67l-193 -983q-2 -10 -2 -27q0 -35 19.5 -55t56.5 -20h225q180 0 301 268q15 4 32 -0.5t26 -13.5q-83 -205 -119 -338 q-180 4 -233 4h-416q-62 0 -246 -4q-6 14 -4 33.5t8 25.5l64 6q61 6 90 28.5t37 66.5zM807 567q-43 0 -77 34t-34 77t34 76.5t77 33.5t77 -33.5t34 -76.5t-34 -77t-77 -34z" />
<glyph unicode="&#x140;" horiz-adv-x="653" d="M555 737q0 39 29.5 70t68.5 31q38 0 68.5 -30.5t30.5 -70.5q0 -39 -29 -67.5t-70 -28.5q-43 0 -70.5 29t-27.5 67zM586 1194l-209 -934q-25 -114 -25 -129q0 -29 25 -29q20 0 64 33t87 86q31 0 45 -35q-124 -206 -297 -206q-86 0 -86 90q0 46 29 174l203 909 q14 63 14 102q0 32 -10.5 45t-32.5 13l-63 4q-11 0 -11 10l7 49q63 4 154 21.5t132 32.5q25 0 25 -21q-21 -82 -51 -215z" />
<glyph unicode="&#x141;" horiz-adv-x="1062" d="M805 920l22 -62l-327 -174l-99 -502q-2 -10 -2 -27q0 -35 19.5 -55t56.5 -20h225q180 0 301 268q15 4 32 -0.5t26 -13.5q-83 -205 -119 -338q-180 4 -233 4h-416q-62 0 -246 -4q-6 14 -4 33.5t8 25.5l64 6q61 6 90 28.5t37 66.5l84 435l-172 -91l-23 63l212 112l95 490 q9 46 -11 68t-79 27l-70 6q-4 8 -1 30t8 29q180 -4 260 -4q61 0 245 4q6 -14 4 -33.5t-8 -25.5l-63 -6q-62 -6 -90.5 -28t-36.5 -67l-78 -398z" />
<glyph unicode="&#x142;" horiz-adv-x="544" d="M657 897l19 -61l-194 -107l-105 -469q-25 -114 -25 -129q0 -29 25 -29q20 0 64 33t87 86q31 0 45 -35q-124 -206 -297 -206q-86 0 -86 90q0 46 29 174l87 389l-146 -80l-19 59l183 101l98 440q14 63 14 102q0 32 -10.5 45t-32.5 13l-63 4q-11 0 -11 10l7 49 q63 4 154 21.5t132 32.5q25 0 25 -21q-21 -82 -51 -215l-86 -384z" />
<glyph unicode="&#x143;" horiz-adv-x="1363" d="M1407 1141l-213 -1098q-13 -63 -53 -63q-48 0 -70 49l-510 903q-40 67 -55 67q-19 0 -39 -100l-139 -719q-4 -22 -4 -31q0 -37 22 -61.5t66 -28.5l51 -4q13 -1 12 -16l-4 -39l-4 -4q-184 4 -213 4q-41 0 -225 -4l-4 4l4 37q2 17 28 18l52 4q56 5 88.5 39.5t42.5 81.5 l184 946q-2 44 -33.5 90t-75.5 50q-13 2 -21 5.5t-7 10.5l4 39l6 4h270l498 -909q54 -95 66 -107q7 -6 12 -6q8 0 12.5 13t11.5 49l152 776q3 15 3 31q0 83 -87 90l-49 4q-9 1 -17.5 5.5t-7.5 10.5l6 39l4 4q184 -4 226 -4q29 0 213 4l4 -4l-4 -39q-1 -7 -7.5 -11.5 t-11.5 -4.5l-55 -4q-55 -4 -87 -37.5t-42 -83.5zM848 1430q-25 0 -25 22q0 24 43 51l289 172l133 -92l-346 -129q-74 -24 -94 -24z" />
<glyph unicode="&#x144;" horiz-adv-x="1060" d="M887 254q-23 -102 -23 -117q0 -35 21 -35q16 0 55.5 29.5t77.5 73.5q35 0 47 -35q-148 -190 -291 -190q-84 0 -84 67q0 45 35 189l78 327q26 108 26 139q0 44 -17.5 59t-53.5 15q-94 0 -316 -289l-78 -340q-3 -14 -7.5 -39t-7.5 -39.5t-9.5 -33.5t-14.5 -29.5t-22 -18 t-33 -7.5q-88 0 -88 55q0 9 4 26.5t11.5 45.5t10.5 40l116 510q18 85 18 105q0 16 -9.5 28t-27.5 13l-82 6q-22 34 -2 57q185 27 258 27q42 0 42 -43q0 -26 -12 -84t-31 -110l-7 -19l2 -2q134 157 216 210.5t167 53.5q135 0 135 -164q0 -38 -26 -155zM899 1374q14 4 30 4 q63 0 103 -47l1 -22l-281 -224q-45 -38 -69 -38q-11 0 -18 8t-5 18q2 11 7 20.5t9 14t19 22.5z" />
<glyph unicode="&#x145;" horiz-adv-x="1363" d="M1407 1141l-213 -1098q-13 -63 -53 -63q-48 0 -70 49l-510 903q-40 67 -55 67q-19 0 -39 -100l-139 -719q-4 -22 -4 -31q0 -37 22 -61.5t66 -28.5l51 -4q13 -1 12 -16l-4 -39l-4 -4q-184 4 -213 4q-41 0 -225 -4l-4 4l4 37q2 17 28 18l52 4q56 5 88.5 39.5t42.5 81.5 l184 946q-2 44 -33.5 90t-75.5 50q-13 2 -21 5.5t-7 10.5l4 39l6 4h270l498 -909q54 -95 66 -107q7 -6 12 -6q8 0 12.5 13t11.5 49l152 776q3 15 3 31q0 83 -87 90l-49 4q-9 1 -17.5 5.5t-7.5 10.5l6 39l4 4q184 -4 226 -4q29 0 213 4l4 -4l-4 -39q-1 -7 -7.5 -11.5 t-11.5 -4.5l-55 -4q-55 -4 -87 -37.5t-42 -83.5zM821 -78q58 0 83 -48t8 -128q-18 -87 -89.5 -137.5t-169.5 -65.5q-13 16 -6 49q75 16 122.5 47.5t53.5 61.5q6 28 -8 39t-45 14q-83 15 -70 80q8 37 42.5 62.5t78.5 25.5z" />
<glyph unicode="&#x146;" horiz-adv-x="1060" d="M887 254q-23 -102 -23 -117q0 -35 21 -35q16 0 55.5 29.5t77.5 73.5q35 0 47 -35q-148 -190 -291 -190q-84 0 -84 67q0 45 35 189l78 327q26 108 26 139q0 44 -17.5 59t-53.5 15q-94 0 -316 -289l-78 -340q-3 -14 -7.5 -39t-7.5 -39.5t-9.5 -33.5t-14.5 -29.5t-22 -18 t-33 -7.5q-88 0 -88 55q0 9 4 26.5t11.5 45.5t10.5 40l116 510q18 85 18 105q0 16 -9.5 28t-27.5 13l-82 6q-22 34 -2 57q185 27 258 27q42 0 42 -43q0 -26 -12 -84t-31 -110l-7 -19l2 -2q134 157 216 210.5t167 53.5q135 0 135 -164q0 -38 -26 -155zM528 -84q58 0 83 -48 t8 -128q-18 -87 -89.5 -137.5t-169.5 -65.5q-13 16 -6 49q75 16 122.5 47.5t53.5 61.5q6 28 -8 39t-45 14q-83 15 -70 80q8 37 42.5 62.5t78.5 25.5z" />
<glyph unicode="&#x147;" horiz-adv-x="1363" d="M1407 1141l-213 -1098q-13 -63 -53 -63q-48 0 -70 49l-510 903q-40 67 -55 67q-19 0 -39 -100l-139 -719q-4 -22 -4 -31q0 -37 22 -61.5t66 -28.5l51 -4q13 -1 12 -16l-4 -39l-4 -4q-184 4 -213 4q-41 0 -225 -4l-4 4l4 37q2 17 28 18l52 4q56 5 88.5 39.5t42.5 81.5 l184 946q-2 44 -33.5 90t-75.5 50q-13 2 -21 5.5t-7 10.5l4 39l6 4h270l498 -909q54 -95 66 -107q7 -6 12 -6q8 0 12.5 13t11.5 49l152 776q3 15 3 31q0 83 -87 90l-49 4q-9 1 -17.5 5.5t-7.5 10.5l6 39l4 4q184 -4 226 -4q29 0 213 4l4 -4l-4 -39q-1 -7 -7.5 -11.5 t-11.5 -4.5l-55 -4q-55 -4 -87 -37.5t-42 -83.5zM946 1427q-52 93 -162 195l41 41q109 -51 191 -125q128 79 248 125l20 -41q-121 -80 -250 -195h-88z" />
<glyph unicode="&#x148;" horiz-adv-x="1060" d="M887 254q-23 -102 -23 -117q0 -35 21 -35q16 0 55.5 29.5t77.5 73.5q35 0 47 -35q-148 -190 -291 -190q-84 0 -84 67q0 45 35 189l78 327q26 108 26 139q0 44 -17.5 59t-53.5 15q-94 0 -316 -289l-78 -340q-3 -14 -7.5 -39t-7.5 -39.5t-9.5 -33.5t-14.5 -29.5t-22 -18 t-33 -7.5q-88 0 -88 55q0 9 4 26.5t11.5 45.5t10.5 40l116 510q18 85 18 105q0 16 -9.5 28t-27.5 13l-82 6q-22 34 -2 57q185 27 258 27q42 0 42 -43q0 -26 -12 -84t-31 -110l-7 -19l2 -2q134 157 216 210.5t167 53.5q135 0 135 -164q0 -38 -26 -155zM679 1030 q-53 126 -153 266l46 27q122 -106 180 -184q94 80 259 184l33 -27q-167 -152 -263 -266h-102z" />
<glyph unicode="&#x149;" horiz-adv-x="1118" d="M913 254q-22 -97 -22 -117q0 -35 20 -35q16 0 55.5 29.5t77.5 73.5q36 0 48 -35q-148 -190 -291 -190q-84 0 -84 67q0 45 35 189l77 327q27 112 27 139q0 44 -18 59t-54 15q-52 0 -130 -75t-185 -214l-78 -340q-3 -14 -7.5 -39t-7.5 -39.5t-9.5 -33.5t-14.5 -29.5 t-22 -18t-33 -7.5q-88 0 -88 55q0 9 4 26.5t11.5 45.5t10.5 40l115 510q19 90 19 105q0 16 -9.5 28t-27.5 13l-82 6q-22 34 -2 57q185 27 258 27q42 0 42 -43q0 -26 -12.5 -83.5t-31.5 -110.5l-6 -19l2 -2q134 157 216 210.5t167 53.5q135 0 135 -164q0 -33 -27 -155z M419 1430q56 0 80.5 -45.5t12.5 -104.5q-14 -67 -84 -136.5t-170 -80.5l-3 35q62 12 105.5 56t52.5 85q4 20 -2 31.5t-18 11.5q-95 0 -78 78q6 28 33.5 49t70.5 21z" />
<glyph unicode="&#x14a;" horiz-adv-x="1363" d="M1225 199q-38 -190 -102.5 -300t-168.5 -184q-105 -80 -239 -80q-40 0 -77 30.5t-28 80.5q7 31 36 52.5t54 21.5q66 0 91 -56q9 -18 19 -27t30 -9q25 0 46.5 13t48 48.5t53 109.5t52.5 183l-479 850q-40 67 -55 67q-19 0 -39 -100l-139 -719q-10 -50 10 -83.5t74 -37.5 l51 -4q15 0 12 -16l-8 -39l-4 -4q-139 4 -217 4l-221 -4l-5 4l9 37q3 16 28 18l52 4q56 4 88.5 38.5t42.5 82.5l184 946q-2 44 -33.5 90t-75.5 50q-13 2 -21 5.5t-7 10.5l6 37l6 4h268l498 -907q37 -66 52.5 -89.5t25.5 -23.5q8 0 12.5 13t11.5 49l152 776q9 48 -9.5 82.5 t-74.5 38.5l-49 4q-9 0 -17.5 4.5t-7.5 11.5l8 39l9 2q145 -2 217 -2l219 2l2 -2l-6 -39q-1 -7 -7.5 -11.5t-11.5 -4.5l-55 -4q-55 -4 -87 -37.5t-42 -83.5z" />
<glyph unicode="&#x14b;" horiz-adv-x="1060" d="M624 -348q29 46 71 158.5t75 242.5q36 141 57.5 287.5t21.5 248.5q0 189 -91 189q-93 0 -316 -291l-78 -340q-3 -14 -7.5 -39t-7.5 -39.5t-9.5 -33.5t-14.5 -29.5t-22 -18t-33 -7.5q-88 0 -88 55q0 9 4 26.5t11.5 45.5t10.5 40l116 510q18 85 18 105q0 16 -9.5 28 t-27.5 13l-82 6q-22 34 -2 57q216 27 258 27t42 -43q0 -12 -4.5 -35t-10 -44t-15.5 -57.5t-15 -57.5l-5 -19l2 -2q134 157 216 210.5t167 53.5q71 0 113 -69t42 -208q0 -99 -23.5 -257t-68.5 -308q-73 -244 -190 -405q-38 -53 -106.5 -91t-130.5 -38q-97 0 -143.5 27.5 t-46.5 66.5q0 30 18.5 52t57.5 22q27 0 54 -18t42 -39q2 -3 5 -8l4.5 -7.5t4.5 -6.5t5 -6t5 -5.5t6 -5t7 -3t9 -2t10 -0.5q23 0 50 17.5t44 44.5z" />
<glyph unicode="&#x14c;" horiz-adv-x="1368" d="M893 1278q-70 0 -144 -35.5t-146 -106t-131.5 -191.5t-88.5 -275q-18 -92 -18 -171q0 -209 105 -329.5t261 -120.5q173 0 316 158.5t196 427.5q21 112 21 205q0 213 -100 325.5t-271 112.5zM1432 674q-40 -204 -146 -361t-264 -245t-344 -88q-223 0 -361 134.5 t-138 365.5q0 69 16 155q39 199 146.5 361.5t263 257t327.5 94.5q227 0 371 -143t144 -380q0 -71 -15 -151zM1183 1567h-500q-13 0 -18 9t-2 21q4 20 22 40t35 20h501q14 0 19.5 -9t3.5 -20q-4 -20 -23 -40.5t-38 -20.5z" />
<glyph unicode="&#x14d;" horiz-adv-x="915" d="M330 348q0 -146 46.5 -219.5t100.5 -73.5q61 0 118.5 31t98.5 94q49 76 68.5 181t19.5 192q0 126 -31 188q-23 46 -51.5 68t-72.5 22q-77 0 -137 -48.5t-93.5 -124.5t-50 -156t-16.5 -154zM160 332q0 76 19 153.5t60.5 152t99 132.5t142 93.5t183.5 35.5q73 0 126.5 -21 t84 -53t48.5 -78.5t23.5 -88t5.5 -91.5q0 -177 -90 -328.5t-227 -220.5q-76 -38 -189 -38q-74 0 -129 27t-84 64.5t-46.5 90t-22 91t-4.5 79.5zM900 1167h-500q-13 0 -18 9.5t-2 21.5q4 20 22 39.5t35 19.5h502q14 0 19.5 -8.5t3.5 -19.5q-4 -20 -23.5 -41t-38.5 -21z" />
<glyph unicode="&#x14e;" horiz-adv-x="1368" d="M893 1278q-70 0 -144 -35.5t-146 -106t-131.5 -191.5t-88.5 -275q-18 -92 -18 -171q0 -209 105 -329.5t261 -120.5q173 0 316 158.5t196 427.5q21 112 21 205q0 213 -100 325.5t-271 112.5zM1432 674q-40 -204 -146 -361t-264 -245t-344 -88q-223 0 -361 134.5 t-138 365.5q0 69 16 155q39 199 146.5 361.5t263 257t327.5 94.5q227 0 371 -143t144 -380q0 -71 -15 -151zM963 1417q-118 0 -178 58t-60 151v23h57q0 -7 1.5 -16.5t12.5 -30.5t30 -37t59.5 -28.5t95.5 -12.5q81 0 152 35t92 90h55q-25 -108 -119.5 -170t-197.5 -62z" />
<glyph unicode="&#x14f;" horiz-adv-x="915" d="M330 348q0 -146 46.5 -219.5t100.5 -73.5q61 0 118.5 31t98.5 94q49 76 68.5 181t19.5 192q0 126 -31 188q-23 46 -51.5 68t-72.5 22q-77 0 -137 -48.5t-93.5 -124.5t-50 -156t-16.5 -154zM160 332q0 76 19 153.5t60.5 152t99 132.5t142 93.5t183.5 35.5q73 0 126.5 -21 t84 -53t48.5 -78.5t23.5 -88t5.5 -91.5q0 -177 -90 -328.5t-227 -220.5q-76 -38 -189 -38q-74 0 -129 27t-84 64.5t-46.5 90t-22 91t-4.5 79.5zM490 1321q0 -82 50.5 -133t133.5 -51t154.5 49t104.5 135l50 -25q-43 -126 -139.5 -201t-193.5 -75q-108 0 -166.5 73t-53.5 203 z" />
<glyph unicode="&#x150;" horiz-adv-x="1368" d="M893 1278q-70 0 -144 -35.5t-146 -106t-131.5 -191.5t-88.5 -275q-18 -92 -18 -171q0 -209 105 -329.5t261 -120.5q173 0 316 158.5t196 427.5q21 112 21 205q0 213 -100 325.5t-271 112.5zM1432 674q-40 -204 -146 -361t-264 -245t-344 -88q-223 0 -361 134.5 t-138 365.5q0 69 16 155q39 199 146.5 361.5t263 257t327.5 94.5q227 0 371 -143t144 -380q0 -71 -15 -151zM1036 1710q24 0 44 -17.5t20 -43.5q0 -35 -27 -56l-233 -176q-12 -4 -17 -4q-9 0 -15.5 7t-6.5 16q0 10 4 14l172 236q18 24 59 24zM1337 1581l-239 -172 q-6 -4 -17 -4q-8 0 -15 5.5t-7 14.5q0 13 4 17l182 233q22 25 51 25q34 0 51 -18.5t17 -45.5q0 -40 -27 -55z" />
<glyph unicode="&#x151;" horiz-adv-x="915" d="M330 348q0 -146 46.5 -219.5t100.5 -73.5q61 0 118.5 31t98.5 94q49 76 68.5 181t19.5 192q0 126 -31 188q-23 46 -51.5 68t-72.5 22q-77 0 -137 -48.5t-93.5 -124.5t-50 -156t-16.5 -154zM160 332q0 76 19 153.5t60.5 152t99 132.5t142 93.5t183.5 35.5q73 0 126.5 -21 t84 -53t48.5 -78.5t23.5 -88t5.5 -91.5q0 -177 -90 -328.5t-227 -220.5q-76 -38 -189 -38q-74 0 -129 27t-84 64.5t-46.5 90t-22 91t-4.5 79.5zM1011 1251q-4 -25 -22 -39l-280 -225q-5 -4 -13 -4q-9 0 -17 8t-6 19q0 4 4 8l217 285q19 24 54 24q32 0 50.5 -23.5t12.5 -52.5 zM743 1264q-4 -20 -17 -33l-259 -248q-7 -6 -18 -6q-10 0 -17.5 8t-5.5 19q0 3 3 6l192 299q19 28 59 28q33 0 51.5 -21t11.5 -52z" />
<glyph unicode="&#x152;" horiz-adv-x="1665" d="M672 66h24q59 0 84 18.5t33 62.5l201 1029q9 46 -9.5 60.5t-76.5 14.5h-70q-75 0 -142 -30t-130.5 -95t-114.5 -181t-82 -275q-28 -159 -19 -273.5t53.5 -187.5t107 -108t141.5 -35zM662 -4q-180 1 -296.5 88t-155.5 234t-3 333q37 188 128.5 338t238.5 242t325 92 q135 -2 223 -2h154h504l-27 -285l-55 -6q3 76 -34.5 142.5t-107.5 66.5h-301q-37 0 -57 -14.5t-27 -50.5l-81 -424h206q49 0 72.5 21t44.5 69l27 61q4 17 16 17h43q3 0 4.5 -3t-0.5 -6q-7 -27 -26 -92t-27 -102q-8 -43 -15 -116t-8 -81l-4 -6h-45q-14 0 -14 14l2 64 q-2 47 -19 68.5t-65 21.5h-207l-102 -533q-7 -39 7.5 -53t49.5 -14h309q90 0 153.5 67.5t111.5 190.5l51 -10l-115 -328h-676z" />
<glyph unicode="&#x153;" horiz-adv-x="1443" d="M332 350q0 -75 11 -131.5t26.5 -87.5t38 -50t41.5 -24.5t40 -5.5q66 0 118 40t82 98.5t49.5 131t26.5 130.5t7 104q0 47 -1.5 77.5t-10 71t-23.5 64.5t-44.5 41.5t-71.5 17.5q-68 0 -120.5 -32.5t-83.5 -82t-51 -115.5t-27 -126t-7 -121zM160 334q0 76 18.5 153.5 t58.5 151.5t97 132t140.5 93t182.5 35q209 0 262 -173q137 173 361 173q52 0 92 -16t61 -40.5t31.5 -49t10.5 -45.5q0 -20 -0.5 -29t-4.5 -33t-12.5 -38.5t-26.5 -39t-43 -42t-65.5 -41t-92 -42t-123.5 -38.5t-159 -37q-2 -16 -2 -70q0 -131 40.5 -183.5t115.5 -52.5 q76 0 126.5 25.5t135.5 112.5q33 0 47 -33q-176 -227 -383 -227q-88 0 -146.5 46.5t-85.5 126.5q-67 -82 -153.5 -127.5t-183.5 -45.5q-66 0 -119.5 26.5t-86 66.5t-54.5 89.5t-30.5 92.5t-8.5 79zM1333 758q0 44 -22 61t-78 17q-184 0 -271 -350q66 8 125 25.5t117.5 48 t93.5 82t35 116.5z" />
<glyph unicode="&#x154;" horiz-adv-x="1136" d="M780 1270q-98 0 -137 -23t-47 -71l-100 -510h98q77 0 136.5 13.5t114.5 46.5t92.5 96.5t55.5 156.5q10 55 10 89q0 59 -19.5 100.5t-53.5 62.5t-70.5 30t-79.5 9zM793 1339q112 0 189.5 -20t129.5 -82q64 -78 64 -179q0 -28 -9 -77q-12 -61 -42 -116t-66 -92t-79 -68 t-77 -47.5t-65 -26.5l163 -430q32 -80 65 -119t93 -39l-6 -49q-32 -14 -86 -14q-151 0 -225 182l-140 356q-11 27 -29 42t-64.5 25.5t-125.5 10.5l-88 -449q-3 -15 -3 -26q0 -30 21.5 -44t71.5 -18l52 -4q15 0 12 -16l-6 -39l-6 -4q-184 4 -250 4t-250 -4l-4 4l8 39 q3 16 18 16l52 4q62 4 89.5 24.5t35.5 63.5l200 1029q2 14 2 19q0 34 -21.5 49.5t-49.5 17.5l-76 4q-13 0 -10 12l8 43l6 4q184 -4 248 -4q43 0 136 9t114 9zM653 1430q-24 0 -24 22q0 24 43 51l289 172l133 -92l-346 -129q-74 -24 -95 -24z" />
<glyph unicode="&#x155;" horiz-adv-x="731" d="M453 584l8 -2q68 145 151.5 231t159.5 86q52 0 79.5 -29.5t27.5 -66.5q0 -44 -26.5 -79.5t-66.5 -35.5q-31 0 -69 43q-21 25 -43 25q-57 0 -260 -369l-60 -240q-4 -14 -9 -39.5t-8.5 -40t-10 -33.5t-14.5 -29t-21.5 -17.5t-30.5 -7.5q-78 0 -78 55q0 14 4 31.5t11 41 t11 39.5l114 510q14 57 14 105q0 16 -9.5 28t-27.5 13l-82 6q-22 34 -2 57q26 3 68.5 9t67.5 9.5t56 6t54 2.5q20 0 32 -13.5t12 -37.5q0 -32 -35 -186zM788 1374q14 4 30 4q63 0 103 -47l2 -22l-281 -224q-45 -38 -70 -38q-11 0 -18 8t-5 18q2 11 7 20.5t9 14t19 22.5z" />
<glyph unicode="&#x156;" horiz-adv-x="1136" d="M780 1270q-98 0 -137 -23t-47 -71l-100 -510h98q77 0 136.5 13.5t114.5 46.5t92.5 96.5t55.5 156.5q10 55 10 89q0 59 -19.5 100.5t-53.5 62.5t-70.5 30t-79.5 9zM793 1339q112 0 189.5 -20t129.5 -82q64 -78 64 -179q0 -28 -9 -77q-12 -61 -42 -116t-66 -92t-79 -68 t-77 -47.5t-65 -26.5l163 -430q32 -80 65 -119t93 -39l-6 -49q-32 -14 -86 -14q-151 0 -225 182l-140 356q-11 27 -29 42t-64.5 25.5t-125.5 10.5l-88 -449q-3 -15 -3 -26q0 -30 21.5 -44t71.5 -18l52 -4q15 0 12 -16l-6 -39l-6 -4q-184 4 -250 4t-250 -4l-4 4l8 39 q3 16 18 16l52 4q62 4 89.5 24.5t35.5 63.5l200 1029q2 14 2 19q0 34 -21.5 49.5t-49.5 17.5l-76 4q-13 0 -10 12l8 43l6 4q184 -4 248 -4q43 0 136 9t114 9zM700 -88q58 0 83 -48t8 -128q-18 -87 -89.5 -137.5t-169.5 -65.5q-13 16 -6 49q75 16 122.5 47.5t53.5 61.5 q6 28 -8 39t-45 14q-83 15 -70 80q8 37 42.5 62.5t78.5 25.5z" />
<glyph unicode="&#x157;" horiz-adv-x="731" d="M453 584l8 -2q68 145 151.5 231t159.5 86q52 0 79.5 -29.5t27.5 -66.5q0 -44 -26.5 -79.5t-66.5 -35.5q-31 0 -69 43q-21 25 -43 25q-57 0 -260 -369l-60 -240q-4 -14 -9 -39.5t-8.5 -40t-10 -33.5t-14.5 -29t-21.5 -17.5t-30.5 -7.5q-78 0 -78 55q0 14 4 31.5t11 41 t11 39.5l114 510q14 57 14 105q0 16 -9.5 28t-27.5 13l-82 6q-22 34 -2 57q26 3 68.5 9t67.5 9.5t56 6t54 2.5q20 0 32 -13.5t12 -37.5q0 -32 -35 -186zM243 -84q58 0 83 -48t8 -128q-18 -87 -89 -137.5t-169 -65.5q-14 17 -7 49q75 16 122.5 47.5t53.5 61.5q6 28 -7.5 39 t-44.5 14q-83 15 -70 80q8 37 42 62.5t78 25.5z" />
<glyph unicode="&#x158;" horiz-adv-x="1136" d="M780 1270q-98 0 -137 -23t-47 -71l-100 -510h98q77 0 136.5 13.5t114.5 46.5t92.5 96.5t55.5 156.5q10 55 10 89q0 59 -19.5 100.5t-53.5 62.5t-70.5 30t-79.5 9zM793 1339q112 0 189.5 -20t129.5 -82q64 -78 64 -179q0 -28 -9 -77q-12 -61 -42 -116t-66 -92t-79 -68 t-77 -47.5t-65 -26.5l163 -430q32 -80 65 -119t93 -39l-6 -49q-32 -14 -86 -14q-151 0 -225 182l-140 356q-11 27 -29 42t-64.5 25.5t-125.5 10.5l-88 -449q-3 -15 -3 -26q0 -30 21.5 -44t71.5 -18l52 -4q15 0 12 -16l-6 -39l-6 -4q-184 4 -250 4t-250 -4l-4 4l8 39 q3 16 18 16l52 4q62 4 89.5 24.5t35.5 63.5l200 1029q2 14 2 19q0 34 -21.5 49.5t-49.5 17.5l-76 4q-13 0 -10 12l8 43l6 4q184 -4 248 -4q43 0 136 9t114 9zM748 1427q-52 93 -162 195l41 41q107 -50 190 -125q128 79 248 125l20 -41q-118 -77 -249 -195h-88z" />
<glyph unicode="&#x159;" horiz-adv-x="731" d="M453 584l8 -2q68 145 151.5 231t159.5 86q52 0 79.5 -29.5t27.5 -66.5q0 -44 -26.5 -79.5t-66.5 -35.5q-31 0 -69 43q-21 25 -43 25q-57 0 -260 -369l-60 -240q-4 -14 -9 -39.5t-8.5 -40t-10 -33.5t-14.5 -29t-21.5 -17.5t-30.5 -7.5q-78 0 -78 55q0 14 4 31.5t11 41 t11 39.5l114 510q14 57 14 105q0 16 -9.5 28t-27.5 13l-82 6q-22 34 -2 57q26 3 68.5 9t67.5 9.5t56 6t54 2.5q20 0 32 -13.5t12 -37.5q0 -32 -35 -186zM574 1030q-53 126 -153 266l47 27q122 -106 180 -184q97 82 258 184l34 -27q-167 -152 -263 -266h-103z" />
<glyph unicode="&#x15a;" horiz-adv-x="929" d="M1010 1282q-2 -37 -9.5 -122.5t-7.5 -141.5l-63 4q-4 47 -10 79.5t-21.5 68.5t-38.5 57.5t-63 36t-95 14.5q-97 0 -169 -58t-91 -151q-4 -20 -4 -42q0 -40 16.5 -78t40 -64.5t55.5 -51t56 -38.5t49 -25q59 -27 102.5 -54.5t86.5 -68t66 -95t23 -119.5q0 -39 -7 -77 q-31 -156 -173 -266t-313 -110q-89 0 -185.5 15t-150.5 15q19 125 27 328l62 6q3 -291 278 -291q237 0 283 232q8 45 8 76q0 85 -45 140t-125 95q-50 25 -87 47t-80 55t-70.5 67.5t-46 81.5t-18.5 99q0 34 7 68q20 103 94 181.5t164 115.5t180 37q62 0 105 -8t61.5 -18.5 t47 -22.5t61.5 -17zM592 1430q-25 0 -25 22q0 24 43 51l289 172l133 -92l-346 -129q-74 -24 -94 -24z" />
<glyph unicode="&#x15b;" horiz-adv-x="722" d="M662 1374q14 4 29 4q63 0 103 -47l2 -22l-281 -224q-45 -38 -70 -38q-11 0 -18 8t-5 18q2 11 7 20.5t9 14t19 22.5zM356 -20q-103 6 -169 53t-66 106q0 24 18.5 48t57.5 24q42 0 66.5 -33.5t29.5 -75.5q4 -32 24.5 -43.5t63.5 -11.5q76 0 125 36.5t49 115.5 q0 99 -125 184q-178 120 -178 260q0 100 80 178t207 78q92 0 162.5 -53t70.5 -111q0 -29 -17.5 -49t-56.5 -20q-37 0 -63 32.5t-31 73.5q-8 59 -92 59q-62 0 -95.5 -43t-33.5 -102q0 -39 18.5 -69t63.5 -60q135 -90 189.5 -164.5t54.5 -150.5q0 -116 -87 -189t-235 -73h-31z " />
<glyph unicode="&#x15c;" horiz-adv-x="929" d="M1010 1282q-2 -37 -9.5 -122.5t-7.5 -141.5l-63 4q-4 47 -10 79.5t-21.5 68.5t-38.5 57.5t-63 36t-95 14.5q-97 0 -169 -58t-91 -151q-4 -20 -4 -42q0 -40 16.5 -78t40 -64.5t55.5 -51t56 -38.5t49 -25q59 -27 102.5 -54.5t86.5 -68t66 -95t23 -119.5q0 -39 -7 -77 q-31 -156 -173 -266t-313 -110q-89 0 -185.5 15t-150.5 15q19 125 27 328l62 6q3 -291 278 -291q237 0 283 232q8 45 8 76q0 85 -45 140t-125 95q-50 25 -87 47t-80 55t-70.5 67.5t-46 81.5t-18.5 99q0 34 7 68q20 103 94 181.5t164 115.5t180 37q62 0 105 -8t61.5 -18.5 t47 -22.5t61.5 -17zM815 1663q61 -105 162 -193l-43 -43q-117 60 -189 127q-121 -76 -247 -127l-19 43q118 77 248 193h88z" />
<glyph unicode="&#x15d;" horiz-adv-x="722" d="M659 1323q46 -110 153 -264l-49 -29q-119 103 -179 184q-110 -93 -257 -184l-35 29q184 168 265 264h102zM356 -20q-103 6 -169 53t-66 106q0 24 18.5 48t57.5 24q42 0 66.5 -33.5t29.5 -75.5q4 -32 24.5 -43.5t63.5 -11.5q76 0 125 36.5t49 115.5q0 99 -125 184 q-178 120 -178 260q0 100 80 178t207 78q92 0 162.5 -53t70.5 -111q0 -29 -17.5 -49t-56.5 -20q-37 0 -63 32.5t-31 73.5q-8 59 -92 59q-62 0 -95.5 -43t-33.5 -102q0 -39 18.5 -69t63.5 -60q135 -90 189.5 -164.5t54.5 -150.5q0 -116 -87 -189t-235 -73h-31z" />
<glyph unicode="&#x15e;" horiz-adv-x="929" d="M1010 1282q-2 -37 -9.5 -122.5t-7.5 -141.5l-63 4q-4 47 -10 79.5t-21.5 68.5t-38.5 57.5t-63 36t-95 14.5q-97 0 -169 -58t-91 -151q-4 -20 -4 -42q0 -40 16.5 -78t40 -64.5t55.5 -51t56 -38.5t49 -25q59 -27 102.5 -54.5t86.5 -68t66 -95t23 -119.5q0 -39 -7 -77 q-27 -136 -140.5 -239t-261.5 -130l-75 -118q24 6 53 6q53 0 87 -24.5t34 -71.5q0 -76 -75.5 -126t-180.5 -50q-74 0 -146 35l29 36q59 -20 115 -20q57 0 101 27.5t44 74.5q0 24 -20.5 39t-51.5 15q-37 0 -94 -13l-10 13l115 170h-9q-89 0 -185.5 15t-150.5 15 q19 125 27 328l62 6q3 -291 278 -291q237 0 283 232q8 45 8 76q0 85 -45 140t-125 95q-50 25 -87 47t-80 55t-70.5 67.5t-46 81.5t-18.5 99q0 34 7 68q20 103 94 181.5t164 115.5t180 37q62 0 105 -8t61.5 -18.5t47 -22.5t61.5 -17z" />
<glyph unicode="&#x15f;" horiz-adv-x="722" d="M342 -184q-37 0 -94 -13l-10 13l111 164q-100 7 -164 54t-64 105q0 24 18.5 48t57.5 24q42 0 66.5 -33.5t29.5 -75.5q4 -32 24.5 -43.5t63.5 -11.5q76 0 125 36.5t49 115.5q0 99 -125 184q-178 120 -178 260q0 100 80 178t207 78q92 0 162.5 -53t70.5 -111 q0 -29 -17.5 -49t-56.5 -20q-37 0 -63 32.5t-31 73.5q-8 59 -92 59q-62 0 -95.5 -43t-33.5 -102q0 -39 18.5 -69t63.5 -60q135 -90 189.5 -164.5t54.5 -150.5q0 -109 -78 -181t-212 -80l-67 -106q24 6 54 6q53 0 86.5 -24.5t33.5 -71.5q0 -76 -75.5 -126t-180.5 -50 q-73 0 -145 35l29 37q40 -14 59.5 -17.5t54.5 -3.5q57 0 101.5 27.5t44.5 74.5q0 24 -20.5 39t-51.5 15z" />
<glyph unicode="&#x160;" horiz-adv-x="929" d="M1010 1282q-2 -37 -9.5 -122.5t-7.5 -141.5l-63 4q-4 47 -10 79.5t-21.5 68.5t-38.5 57.5t-63 36t-95 14.5q-97 0 -169 -58t-91 -151q-4 -20 -4 -42q0 -40 16.5 -78t40 -64.5t55.5 -51t56 -38.5t49 -25q59 -27 102.5 -54.5t86.5 -68t66 -95t23 -119.5q0 -39 -7 -77 q-31 -156 -173 -266t-313 -110q-89 0 -185.5 15t-150.5 15q19 125 27 328l62 6q3 -291 278 -291q237 0 283 232q8 45 8 76q0 85 -45 140t-125 95q-50 25 -87 47t-80 55t-70.5 67.5t-46 81.5t-18.5 99q0 34 7 68q20 103 94 181.5t164 115.5t180 37q62 0 105 -8t61.5 -18.5 t47 -22.5t61.5 -17zM688 1427q-52 93 -162 195l41 41q109 -51 191 -125q128 79 248 125l20 -41q-121 -80 -250 -195h-88z" />
<glyph unicode="&#x161;" horiz-adv-x="722" d="M511 1028q-53 126 -153 266l46 27q122 -106 180 -184q94 80 259 184l33 -27q-167 -152 -263 -266h-102zM356 -20q-103 6 -169 53t-66 106q0 24 18.5 48t57.5 24q42 0 66.5 -33.5t29.5 -75.5q4 -32 24.5 -43.5t63.5 -11.5q76 0 125 36.5t49 115.5q0 99 -125 184 q-178 120 -178 260q0 100 80 178t207 78q92 0 162.5 -53t70.5 -111q0 -29 -17.5 -49t-56.5 -20q-37 0 -63 32.5t-31 73.5q-8 59 -92 59q-62 0 -95.5 -43t-33.5 -102q0 -39 18.5 -69t63.5 -60q135 -90 189.5 -164.5t54.5 -150.5q0 -116 -87 -189t-235 -73h-31z" />
<glyph unicode="&#x162;" horiz-adv-x="1114" d="M469 1321h684q32 0 57.5 4t56 11.5t54.5 11.5q-8 -134 22 -287q-24 -10 -61 -10q-28 108 -62 149t-110 41h-111q-54 0 -77 -17.5t-33 -68.5l-195 -999q-9 -47 11 -68.5t79 -26.5l70 -6q4 -8 1.5 -30.5t-7.5 -28.5q-33 1 -96 2.5t-91 1.5l-61 -96q24 6 53 6q53 0 87 -24.5 t34 -71.5q0 -76 -75.5 -126t-180.5 -50q-76 0 -145 34l28 37q59 -20 115 -20q57 0 101.5 27.5t44.5 74.5q0 24 -20.5 38.5t-51.5 14.5q-42 0 -94 -12l-11 12l106 156h-3q-62 0 -246 -4q-6 14 -4 33.5t8 25.5l64 6q61 6 89.5 28.5t37.5 66.5l194 1005q8 46 -7.5 63t-74.5 17 h-141q-82 0 -128.5 -37t-90.5 -138q-40 0 -62 14q71 172 97 268q9 -1 61.5 -14t83.5 -13z" />
<glyph unicode="&#x163;" horiz-adv-x="628" d="M381 879l27 102q4 17 9.5 46t10 46.5t12.5 37t22.5 29t35.5 9.5q47 0 64.5 -13.5t17.5 -41.5q0 -11 -4.5 -31.5t-12.5 -51.5t-10 -40l-21 -92h203q16 -12 8 -42t-28 -38h-201l-121 -539q-22 -95 -22 -129q0 -16 9 -22.5t17 -6.5q27 0 62 26t102 101q36 0 45 -39 q-40 -72 -104 -125t-129 -74l-74 -116q24 6 53 6q53 0 87 -24.5t34 -71.5q0 -76 -75.5 -126t-180.5 -50q-73 0 -145 35l28 37q40 -14 60 -17.5t55 -3.5q57 0 101 27.5t44 74.5q0 24 -20 39t-51 15q-37 0 -94 -13l-11 13l112 164q-44 2 -65.5 23.5t-21.5 70.5q0 40 29 168 l124 557h-143q-12 0 -12 4q0 11 8 35q8 31 57 34z" />
<glyph unicode="&#x164;" horiz-adv-x="1114" d="M469 1321h684q32 0 57.5 4t56 11.5t54.5 11.5q-8 -134 22 -287q-24 -10 -61 -10q-28 108 -62 149t-110 41h-111q-54 0 -77 -17.5t-33 -68.5l-195 -999q-9 -47 11 -68.5t79 -26.5l70 -6q4 -8 1.5 -30.5t-7.5 -28.5q-180 4 -260 4q-62 0 -246 -4q-6 14 -4 33.5t8 25.5l64 6 q61 6 89.5 28.5t37.5 66.5l194 1005q8 46 -7.5 63t-74.5 17h-141q-82 0 -128.5 -37t-90.5 -138q-40 0 -62 14q71 172 97 268q9 -1 61.5 -14t83.5 -13zM811 1427q-52 93 -162 195l41 41q109 -51 191 -125q130 80 247 125l21 -41q-121 -80 -250 -195h-88z" />
<glyph unicode="&#x165;" horiz-adv-x="641" d="M381 879l27 102q4 17 9.5 46t10 46.5t12.5 37t22.5 29t35.5 9.5q47 0 64.5 -13.5t17.5 -41.5q0 -11 -4.5 -31.5t-12.5 -51.5t-10 -40l-21 -92h203q16 -12 8 -42t-28 -38h-201l-121 -539q-22 -95 -22 -129q0 -16 9 -22.5t17 -6.5q27 0 62 26t102 101q36 0 45 -39 q-51 -92 -138.5 -151t-158.5 -59q-50 0 -75 20.5t-25 73.5q0 40 29 168l124 557h-143q-12 0 -12 4q0 11 8 35q8 31 57 34zM814 1430q56 0 80.5 -45.5t12.5 -104.5q-14 -67 -83.5 -136.5t-169.5 -80.5l-3 35q62 12 105 56t52 85q4 20 -2 31.5t-18 11.5q-95 0 -78 78 q6 28 33.5 49t70.5 21z" />
<glyph unicode="&#x166;" horiz-adv-x="1114" d="M469 1321h684q32 0 57.5 4t56 11.5t54.5 11.5q-8 -134 22 -287q-24 -10 -61 -10q-28 108 -62 149t-110 41h-111q-54 0 -77 -17.5t-33 -68.5l-78 -401h281q23 0 18 -27q-3 -19 -19 -36t-34 -17h-262l-101 -518q-9 -47 11 -68.5t79 -26.5l70 -6q4 -8 1.5 -30.5t-7.5 -28.5 q-180 4 -260 4q-62 0 -246 -4q-6 14 -4 33.5t8 25.5l64 6q61 6 89.5 28.5t37.5 66.5l100 518h-268q-22 0 -17 28q3 16 19.5 34t29.5 18h251l79 407q8 46 -7.5 63t-74.5 17h-141q-82 0 -128.5 -37t-90.5 -138q-40 0 -62 14q71 172 97 268q9 -1 61.5 -14t83.5 -13z" />
<glyph unicode="&#x167;" horiz-adv-x="628" d="M381 879l27 102q4 17 9.5 46t10 46.5t12.5 37t22.5 29t35.5 9.5q47 0 64.5 -13.5t17.5 -41.5q0 -11 -4.5 -31.5t-12.5 -51.5t-10 -40l-21 -92h203q16 -12 8 -42t-28 -38h-201l-49 -217h207q12 0 17 -9t3 -18q-3 -18 -20 -35.5t-35 -17.5h-190l-54 -242q-22 -95 -22 -129 q0 -16 9 -22.5t17 -6.5q27 0 62 26t102 101q36 0 45 -39q-51 -92 -138.5 -151t-158.5 -59q-50 0 -75 20.5t-25 73.5q0 40 29 168l58 260h-128q-21 0 -16 28q3 16 19.5 34t29.5 18h113l48 217h-143q-12 0 -12 4q0 11 8 35q8 31 57 34z" />
<glyph unicode="&#x168;" horiz-adv-x="1298" d="M627 -20q-51 0 -98.5 8.5t-99 33.5t-89 63.5t-62 104t-24.5 150.5q0 69 14 143l135 688q3 15 3 27q0 31 -22 45.5t-71 18.5l-51 4q-15 0 -12 16l6 39l6 4q184 -4 248 -4q68 0 252 4l4 -4l-8 -39q-3 -16 -19 -16l-51 -4q-60 -4 -89 -25.5t-38 -65.5l-121 -620 q-25 -137 -25 -200q0 -112 56 -185q82 -103 213 -103q70 0 128.5 16.5t101 43t78 67.5t58.5 82t42.5 95.5t30.5 98.5t22 101l117 600q3 17 3 29q0 32 -21 47t-70 19l-54 4q-5 0 -9 4.5t-3 11.5l8 39l4 4q184 -4 215 -4q33 0 217 4l4 -4l-8 -39q-3 -16 -18 -16l-51 -4 q-61 -4 -90 -27.5t-37 -67.5l-111 -563q-22 -116 -52 -205.5t-78.5 -171t-113.5 -134t-158.5 -83t-211.5 -30.5zM1103 1520q36 0 63.5 22t60.5 84l47 -12q-75 -184 -216 -184q-52 0 -120 53q-63 45 -101 45q-39 0 -67 -23t-54 -75l-47 10q41 93 88.5 137.5t112.5 44.5 q67 0 136 -57q50 -45 97 -45z" />
<glyph unicode="&#x169;" horiz-adv-x="1067" d="M1036 721l-114 -467q-23 -102 -23 -117q0 -35 21 -35q16 0 55.5 29.5t77.5 73.5q35 0 47 -35q-148 -190 -285 -190q-43 0 -59.5 17.5t-16.5 49.5q0 61 35 189l23 79l-6 4q-61 -90 -103.5 -144.5t-93.5 -103t-101.5 -70t-109.5 -21.5t-98 40.5t-39 122.5q0 62 20 138 l90 344q27 102 27 116q0 35 -21 35q-17 0 -60.5 -30t-80.5 -72q-35 0 -47 35q70 90 152.5 140t156.5 50q42 0 58 -17.5t16 -50.5q0 -17 -6.5 -47t-19 -76t-17.5 -65l-88 -334q-18 -71 -18 -131q0 -76 61 -76q71 0 149 94.5t205 309.5l60 225q4 16 9.5 46.5t10 47.5t13 36.5 t24 28.5t37.5 9q47 0 66.5 -13.5t19.5 -41.5q0 -14 -12.5 -63t-14.5 -60zM921 1167q36 0 63.5 22.5t60.5 84.5l47 -12q-75 -185 -216 -185q-52 0 -120 53q-64 46 -102 46q-39 0 -66.5 -23.5t-53.5 -75.5l-47 10q41 93 89 138t112 45q66 0 136 -58q50 -45 97 -45z" />
<glyph unicode="&#x16a;" horiz-adv-x="1298" d="M627 -20q-51 0 -98.5 8.5t-99 33.5t-89 63.5t-62 104t-24.5 150.5q0 69 14 143l135 688q3 15 3 27q0 31 -22 45.5t-71 18.5l-51 4q-15 0 -12 16l6 39l6 4q184 -4 248 -4q68 0 252 4l4 -4l-8 -39q-3 -16 -19 -16l-51 -4q-60 -4 -89 -25.5t-38 -65.5l-121 -620 q-25 -137 -25 -200q0 -112 56 -185q82 -103 213 -103q70 0 128.5 16.5t101 43t78 67.5t58.5 82t42.5 95.5t30.5 98.5t22 101l117 600q3 17 3 29q0 32 -21 47t-70 19l-54 4q-5 0 -9 4.5t-3 11.5l8 39l4 4q184 -4 215 -4q33 0 217 4l4 -4l-8 -39q-3 -16 -18 -16l-51 -4 q-61 -4 -90 -27.5t-37 -67.5l-111 -563q-22 -116 -52 -205.5t-78.5 -171t-113.5 -134t-158.5 -83t-211.5 -30.5zM1222 1565h-500q-13 0 -18 9t-3 21q4 20 22.5 40t35.5 20h501q14 0 19.5 -9t3.5 -20q-4 -20 -23 -40.5t-38 -20.5z" />
<glyph unicode="&#x16b;" horiz-adv-x="1067" d="M1036 721l-114 -467q-23 -102 -23 -117q0 -35 21 -35q16 0 55.5 29.5t77.5 73.5q35 0 47 -35q-148 -190 -285 -190q-43 0 -59.5 17.5t-16.5 49.5q0 61 35 189l23 79l-6 4q-61 -90 -103.5 -144.5t-93.5 -103t-101.5 -70t-109.5 -21.5t-98 40.5t-39 122.5q0 62 20 138 l90 344q27 102 27 116q0 35 -21 35q-17 0 -60.5 -30t-80.5 -72q-35 0 -47 35q70 90 152.5 140t156.5 50q42 0 58 -17.5t16 -50.5q0 -17 -6.5 -47t-19 -76t-17.5 -65l-88 -334q-18 -71 -18 -131q0 -76 61 -76q71 0 149 94.5t205 309.5l60 225q4 16 9.5 46.5t10 47.5t13 36.5 t24 28.5t37.5 9q47 0 66.5 -13.5t19.5 -41.5q0 -14 -12.5 -63t-14.5 -60zM994 1167h-499q-13 0 -18 9.5t-3 21.5q4 20 22 39.5t35 19.5h502q14 0 19.5 -8.5t3.5 -19.5q-4 -20 -23.5 -41t-38.5 -21z" />
<glyph unicode="&#x16c;" horiz-adv-x="1298" d="M627 -20q-51 0 -98.5 8.5t-99 33.5t-89 63.5t-62 104t-24.5 150.5q0 69 14 143l135 688q3 15 3 27q0 31 -22 45.5t-71 18.5l-51 4q-15 0 -12 16l6 39l6 4q184 -4 248 -4q68 0 252 4l4 -4l-8 -39q-3 -16 -19 -16l-51 -4q-60 -4 -89 -25.5t-38 -65.5l-121 -620 q-25 -137 -25 -200q0 -112 56 -185q82 -103 213 -103q70 0 128.5 16.5t101 43t78 67.5t58.5 82t42.5 95.5t30.5 98.5t22 101l117 600q3 17 3 29q0 32 -21 47t-70 19l-54 4q-5 0 -9 4.5t-3 11.5l8 39l4 4q184 -4 215 -4q33 0 217 4l4 -4l-8 -39q-3 -16 -18 -16l-51 -4 q-61 -4 -90 -27.5t-37 -67.5l-111 -563q-22 -116 -52 -205.5t-78.5 -171t-113.5 -134t-158.5 -83t-211.5 -30.5zM981 1415q-118 0 -178 58t-60 151v23h58q0 -7 1.5 -16.5t12.5 -30.5t30 -37t59 -28.5t95 -12.5q81 0 152 35t92 90h55q-25 -108 -119.5 -170t-197.5 -62z" />
<glyph unicode="&#x16d;" horiz-adv-x="1067" d="M1036 721l-114 -467q-23 -102 -23 -117q0 -35 21 -35q16 0 55.5 29.5t77.5 73.5q35 0 47 -35q-148 -190 -285 -190q-43 0 -59.5 17.5t-16.5 49.5q0 61 35 189l23 79l-6 4q-61 -90 -103.5 -144.5t-93.5 -103t-101.5 -70t-109.5 -21.5t-98 40.5t-39 122.5q0 62 20 138 l90 344q27 102 27 116q0 35 -21 35q-17 0 -60.5 -30t-80.5 -72q-35 0 -47 35q70 90 152.5 140t156.5 50q42 0 58 -17.5t16 -50.5q0 -17 -6.5 -47t-19 -76t-17.5 -65l-88 -334q-18 -71 -18 -131q0 -76 61 -76q71 0 149 94.5t205 309.5l60 225q4 16 9.5 46.5t10 47.5t13 36.5 t24 28.5t37.5 9q47 0 66.5 -13.5t19.5 -41.5q0 -14 -12.5 -63t-14.5 -60zM570 1323q0 -82 50.5 -133t133.5 -51t154.5 49t104.5 135l50 -25q-43 -126 -139.5 -201t-193.5 -75q-108 0 -166.5 73t-53.5 203z" />
<glyph unicode="&#x16e;" horiz-adv-x="1298" d="M627 -20q-51 0 -98.5 8.5t-99 33.5t-89 63.5t-62 104t-24.5 150.5q0 69 14 143l135 688q3 15 3 27q0 31 -22 45.5t-71 18.5l-51 4q-15 0 -12 16l6 39l6 4q184 -4 248 -4q68 0 252 4l4 -4l-8 -39q-3 -16 -19 -16l-51 -4q-60 -4 -89 -25.5t-38 -65.5l-121 -620 q-25 -137 -25 -200q0 -112 56 -185q82 -103 213 -103q70 0 128.5 16.5t101 43t78 67.5t58.5 82t42.5 95.5t30.5 98.5t22 101l117 600q3 17 3 29q0 32 -21 47t-70 19l-54 4q-5 0 -9 4.5t-3 11.5l8 39l4 4q184 -4 215 -4q33 0 217 4l4 -4l-8 -39q-3 -16 -18 -16l-51 -4 q-61 -4 -90 -27.5t-37 -67.5l-111 -563q-22 -116 -52 -205.5t-78.5 -171t-113.5 -134t-158.5 -83t-211.5 -30.5zM1014 1595q-46 0 -81.5 -33.5t-44.5 -80.5q-9 -45 12.5 -80t66.5 -35t80.5 35t45.5 80q10 48 -12 81t-67 33zM812 1481q14 70 78 120t135 50q72 0 115 -49.5 t28 -120.5q-14 -69 -76.5 -119.5t-135.5 -50.5q-71 0 -114.5 50t-29.5 120z" />
<glyph unicode="&#x16f;" horiz-adv-x="1067" d="M1036 721l-114 -467q-23 -102 -23 -117q0 -35 21 -35q16 0 55.5 29.5t77.5 73.5q35 0 47 -35q-148 -190 -285 -190q-43 0 -59.5 17.5t-16.5 49.5q0 61 35 189l23 79l-6 4q-61 -90 -103.5 -144.5t-93.5 -103t-101.5 -70t-109.5 -21.5t-98 40.5t-39 122.5q0 62 20 138 l90 344q27 102 27 116q0 35 -21 35q-17 0 -60.5 -30t-80.5 -72q-35 0 -47 35q70 90 152.5 140t156.5 50q42 0 58 -17.5t16 -50.5q0 -17 -6.5 -47t-19 -76t-17.5 -65l-88 -334q-18 -71 -18 -131q0 -76 61 -76q71 0 149 94.5t205 309.5l60 225q4 16 9.5 46.5t10 47.5t13 36.5 t24 28.5t37.5 9q47 0 66.5 -13.5t19.5 -41.5q0 -14 -12.5 -63t-14.5 -60zM768 1309q-46 0 -81.5 -34t-44.5 -81q-9 -45 12.5 -80t66.5 -35t80.5 35t45.5 80q10 48 -12 81.5t-67 33.5zM566 1194q14 70 78 120t135 50q72 0 115.5 -49.5t28.5 -120.5q-14 -69 -77 -119.5 t-136 -50.5q-71 0 -114.5 50t-29.5 120z" />
<glyph unicode="&#x170;" horiz-adv-x="1298" d="M627 -20q-51 0 -98.5 8.5t-99 33.5t-89 63.5t-62 104t-24.5 150.5q0 69 14 143l135 688q3 15 3 27q0 31 -22 45.5t-71 18.5l-51 4q-15 0 -12 16l6 39l6 4q184 -4 248 -4q68 0 252 4l4 -4l-8 -39q-3 -16 -19 -16l-51 -4q-60 -4 -89 -25.5t-38 -65.5l-121 -620 q-25 -137 -25 -200q0 -112 56 -185q82 -103 213 -103q70 0 128.5 16.5t101 43t78 67.5t58.5 82t42.5 95.5t30.5 98.5t22 101l117 600q3 17 3 29q0 32 -21 47t-70 19l-54 4q-5 0 -9 4.5t-3 11.5l8 39l4 4q184 -4 215 -4q33 0 217 4l4 -4l-8 -39q-3 -16 -18 -16l-51 -4 q-61 -4 -90 -27.5t-37 -67.5l-111 -563q-22 -116 -52 -205.5t-78.5 -171t-113.5 -134t-158.5 -83t-211.5 -30.5zM1059 1710q23 0 43 -17.5t20 -43.5q0 -36 -26 -56l-234 -176q-12 -4 -16 -4q-9 0 -16 7t-7 16q0 10 4 14l172 236q18 24 60 24zM1360 1581l-240 -172 q-6 -4 -16 -4q-8 0 -15.5 6t-7.5 14q0 13 4 17l183 233q22 25 51 25q34 0 50.5 -18.5t16.5 -45.5q0 -41 -26 -55z" />
<glyph unicode="&#x171;" horiz-adv-x="1067" d="M1036 721l-114 -467q-23 -102 -23 -117q0 -35 21 -35q16 0 55.5 29.5t77.5 73.5q35 0 47 -35q-148 -190 -285 -190q-43 0 -59.5 17.5t-16.5 49.5q0 61 35 189l23 79l-6 4q-61 -90 -103.5 -144.5t-93.5 -103t-101.5 -70t-109.5 -21.5t-98 40.5t-39 122.5q0 62 20 138 l90 344q27 102 27 116q0 35 -21 35q-17 0 -60.5 -30t-80.5 -72q-35 0 -47 35q70 90 152.5 140t156.5 50q42 0 58 -17.5t16 -50.5q0 -17 -6.5 -47t-19 -76t-17.5 -65l-88 -334q-18 -71 -18 -131q0 -76 61 -76q71 0 149 94.5t205 309.5l60 225q4 16 9.5 46.5t10 47.5t13 36.5 t24 28.5t37.5 9q47 0 66.5 -13.5t19.5 -41.5q0 -14 -12.5 -63t-14.5 -60zM1154 1251q-4 -25 -22 -39l-279 -225q-5 -4 -14 -4t-17 8t-6 19q0 4 4 8l218 285q19 24 54 24q32 0 50 -23.5t12 -52.5zM886 1264q-4 -21 -16 -33l-260 -248q-8 -6 -18 -6t-17.5 8t-5.5 19q0 2 4 6 l192 299q19 28 59 28q33 0 51 -21t11 -52z" />
<glyph unicode="&#x172;" horiz-adv-x="1298" d="M627 -20q-51 0 -98.5 8.5t-99 33.5t-89 63.5t-62 104t-24.5 150.5q0 69 14 143l135 688q3 15 3 27q0 31 -22 45.5t-71 18.5l-51 4q-15 0 -12 16l6 39l6 4q184 -4 248 -4q68 0 252 4l4 -4l-8 -39q-3 -16 -19 -16l-51 -4q-60 -4 -89 -25.5t-38 -65.5l-121 -620 q-25 -137 -25 -200q0 -112 56 -185q82 -103 213 -103q70 0 128.5 16.5t101 43t78 67.5t58.5 82t42.5 95.5t30.5 98.5t22 101l117 600q3 17 3 29q0 32 -21 47t-70 19l-54 4q-5 0 -9 4.5t-3 11.5l8 39l4 4q184 -4 215 -4q33 0 217 4l4 -4l-8 -39q-3 -16 -18 -16l-51 -4 q-61 -4 -90 -27.5t-37 -67.5l-111 -563q-35 -184 -95.5 -314t-163.5 -207l11 -17q-124 -87 -180.5 -143t-69.5 -122q-20 -96 82 -96q40 0 72 18.5t82 59.5q26 0 34 -23q-113 -133 -253 -133q-82 0 -123.5 36.5t-25.5 115.5q22 105 193 221q-82 -20 -177 -20z" />
<glyph unicode="&#x173;" horiz-adv-x="1067" d="M1036 721l-114 -467q-23 -102 -23 -117q0 -35 21 -35q16 0 55.5 29.5t77.5 73.5q35 0 47 -35q-77 -100 -153 -149q-199 -174 -199 -273q0 -36 29 -63t77 -27q41 0 73.5 17.5t78.5 56.5l26 -15q-112 -139 -241 -139q-75 0 -121.5 36.5t-46.5 102.5q0 65 41.5 125 t121.5 140h1q-48 10 -48 65q0 61 35 189l23 79l-6 4q-61 -90 -103.5 -144.5t-93.5 -103t-101.5 -70t-109.5 -21.5t-98 40.5t-39 122.5q0 62 20 138l90 344q27 102 27 116q0 35 -21 35q-17 0 -60.5 -30t-80.5 -72q-35 0 -47 35q70 90 152.5 140t156.5 50q42 0 58 -17.5 t16 -50.5q0 -17 -6.5 -47t-19 -76t-17.5 -65l-88 -334q-18 -71 -18 -131q0 -76 61 -76q71 0 149 94.5t205 309.5l60 225q4 16 9.5 46.5t10 47.5t13 36.5t24 28.5t37.5 9q47 0 66.5 -13.5t19.5 -41.5q0 -14 -12.5 -63t-14.5 -60z" />
<glyph unicode="&#x174;" horiz-adv-x="1861" d="M444 1118q-9 78 -43.5 106.5t-115.5 41.5q-9 9 -9 29.5t9 29.5q148 -4 221 -4q110 0 246 4q9 -9 9 -29.5t-9 -29.5q-64 -4 -107.5 -26.5t-38.5 -68.5l70 -725l14 -135l78 131l403 753h89q14 -130 22 -200l66 -571l14 -125l76 141l383 709q31 56 -7 83t-124 34 q-9 9 -9 29.5t9 29.5q164 -4 231 -4q65 0 201 4q9 -9 9 -29.5t-9 -29.5q-76 -8 -120.5 -41.5t-76.5 -91.5l-616 -1110q-15 -27 -23 -35t-20 -8q-15 0 -23.5 9.5t-11.5 35.5l-86 727q-4 39 -11 79t-9 59q-1 5 -10 5q-6 -11 -32.5 -59.5t-42.5 -77.5l-401 -733 q-15 -28 -23 -36.5t-20 -8.5q-16 0 -21 9t-8 36zM1296 1649q61 -105 162 -193l-43 -43q-114 59 -188 127q-120 -75 -248 -127l-18 43q115 74 247 193h88z" />
<glyph unicode="&#x175;" horiz-adv-x="1409" d="M543 -25q-33 0 -56 131l-86 500q-12 69 -22.5 97t-24.5 28q-26 0 -58 -24t-85 -75q-35 5 -44 37q59 89 134.5 159.5t124.5 70.5q54 0 79.5 -57t49.5 -209l70 -436l5 -3q43 67 126 223.5t141 291.5q46 22 100 24q18 -46 51 -182q45 -187 72 -354l15 -4q47 50 92 111 q57 76 94 179.5t37 174.5q0 58 -43 123q-11 16 -11 42q0 76 95 76q107 0 107 -97q0 -92 -55 -218q-86 -201 -175 -325q-77 -111 -154 -208q-61 -76 -94 -76q-15 0 -26 25.5t-21 94.5q-32 219 -81 433l-12 -2q-102 -222 -260 -471q-23 -36 -47.5 -58t-37.5 -22zM1001 1321 q46 -110 153 -264l-48 -29q-122 106 -180 184q-110 -93 -257 -184l-35 29q184 168 265 264h102z" />
<glyph unicode="&#x176;" horiz-adv-x="1130" d="M688 156q-9 -46 11 -68t79 -27l70 -6q4 -8 1.5 -30.5t-7.5 -28.5q-180 4 -260 4q-62 0 -246 -4q-6 14 -4 33.5t8 25.5l63 6q61 6 90 28.5t37 66.5l72 374q7 37 7 52q0 18 -7 36l-188 502q-32 85 -53.5 110t-71.5 32l-31 4q-5 8 -6.5 29.5t2.5 29.5q114 -4 213 -4 q59 0 219 4q3 -6 1.5 -29t-5.5 -30l-68 -6q-48 -4 -54.5 -22t11.5 -58l174 -494h9l323 494q31 44 29 60t-39 20l-66 6q-3 6 -1 29.5t6 29.5q156 -4 186 -4q46 0 164 4q4 -7 0.5 -29t-8.5 -30l-54 -4q-26 -2 -45.5 -9t-37 -24t-27.5 -29.5t-31 -42.5l-358 -522 q-18 -29 -29 -86zM946 1649q61 -105 162 -193l-43 -43q-114 59 -188 127q-120 -75 -248 -127l-19 43q118 77 248 193h88z" />
<glyph unicode="&#x177;" horiz-adv-x="1030" d="M722 0l-93 -143q-98 -151 -210 -243.5t-194 -92.5q-22 0 -48.5 6.5t-51.5 27.5t-25 52q0 45 30 74.5t65 29.5q12 0 36.5 -9.5t34.5 -18.5q13 -11 36 -24t36 -13q23 0 81 64.5t118 162.5q18 40 -18.5 323.5t-82.5 436.5q-18 62 -32 86q-14 23 -57 23q-42 0 -134 -44 q-21 21 -27 63q60 44 148.5 91t122.5 47q38 0 61 -34t45 -117q42 -174 60 -326t28 -360l14 -6q24 34 63 96t66 107l28 45q155 242 155 354q0 58 -43 123q-11 16 -11 42q0 76 95 76q107 0 107 -97q0 -92 -55 -218q-20 -47 -74 -140.5t-105.5 -176t-106.5 -169t-62 -98.5z M813 1323q46 -110 153 -264l-49 -29q-122 106 -180 184q-112 -95 -256 -184l-35 29q180 164 264 264h103z" />
<glyph unicode="&#x178;" horiz-adv-x="1130" d="M688 156q-9 -46 11 -68t79 -27l70 -6q4 -8 1.5 -30.5t-7.5 -28.5q-180 4 -260 4q-62 0 -246 -4q-6 14 -4 33.5t8 25.5l63 6q61 6 90 28.5t37 66.5l72 374q7 37 7 52q0 18 -7 36l-188 502q-32 85 -53.5 110t-71.5 32l-31 4q-5 8 -6.5 29.5t2.5 29.5q114 -4 213 -4 q59 0 219 4q3 -6 1.5 -29t-5.5 -30l-68 -6q-48 -4 -54.5 -22t11.5 -58l174 -494h9l323 494q31 44 29 60t-39 20l-66 6q-3 6 -1 29.5t6 29.5q156 -4 186 -4q46 0 164 4q4 -7 0.5 -29t-8.5 -30l-54 -4q-26 -2 -45.5 -9t-37 -24t-27.5 -29.5t-31 -42.5l-358 -522 q-18 -29 -29 -86zM735 1626q34 0 56 -22t22 -54q0 -47 -35.5 -78.5t-75.5 -31.5q-34 0 -55.5 22t-21.5 56q0 45 34.5 76.5t75.5 31.5zM1065 1628q33 0 55.5 -22.5t22.5 -55.5q0 -45 -35 -76.5t-76 -31.5q-34 0 -56 22t-22 54q0 47 35 78.5t76 31.5z" />
<glyph unicode="&#x179;" horiz-adv-x="1183" d="M727 1430q-25 0 -25 22q0 24 43 51l289 172l133 -92l-346 -129q-74 -24 -94 -24zM1081 -4q-196 4 -247 4h-717q-33 0 -33 24q0 27 27 54l979 1108q19 22 22 37q5 16 -16 16h-453q-43 0 -78.5 -13t-60 -31t-50.5 -54.5t-41.5 -65t-41.5 -80.5l-58 11q54 136 111 342 q30 -2 66.5 -14.5t87.5 -12.5h630q32 3 74.5 11.5t54.5 8.5q42 0 42 -16q0 -36 -70 -115l-944 -1063q-21 -32 -23 -41q-3 -13 7.5 -19.5t35.5 -6.5h459q54 0 99 20t81 60t62 83t55 105l59 -10q-80 -197 -119 -342z" />
<glyph unicode="&#x17a;" horiz-adv-x="892" d="M897 909l59 -30q-9 -15 -23 -33t-45 -53.5t-44 -51.5q-67 -83 -256 -286t-228 -246q64 0 108.5 -11.5t64 -24.5t47 -24.5t61.5 -11.5q25 0 44 4t44.5 16.5t52 41t54.5 73.5q34 0 51 -20q-69 -158 -125.5 -215t-126.5 -57q-92 0 -176 51q-85 53 -156 53q-18 0 -52 -28.5 t-65 -80.5q-18 2 -47 13q-18 3 -28 26q11 39 127 172l492 543q-27 -4 -64 -4q-25 0 -102.5 9t-127.5 9q-72 0 -106 -22t-66 -92q-39 0 -55 16q28 95 87.5 174.5t111.5 79.5t217 -27q134 -28 161 -28q53 0 111 65zM768 1374q14 4 30 4q63 0 103 -47l1 -22l-281 -224 q-45 -38 -69 -38q-11 0 -18 8t-5 18q2 11 7 20.5t9 14t19 22.5z" />
<glyph unicode="&#x17b;" horiz-adv-x="1183" d="M1081 -4q-196 4 -247 4h-717q-33 0 -33 24q0 27 27 54l979 1108q19 22 22 37q5 16 -16 16h-453q-43 0 -78.5 -13t-60 -31t-50.5 -54.5t-41.5 -65t-41.5 -80.5l-58 11q54 136 111 342q30 -2 66.5 -14.5t87.5 -12.5h630q32 3 74.5 11.5t54.5 8.5q42 0 42 -16 q0 -36 -70 -115l-944 -1063q-21 -32 -23 -41q-3 -13 7.5 -19.5t35.5 -6.5h459q54 0 99 20t81 60t62 83t55 105l59 -10q-80 -197 -119 -342zM803 1536q8 40 43.5 69t75.5 29t63 -29t15 -69t-43.5 -69t-75.5 -29t-63 29t-15 69z" />
<glyph unicode="&#x17c;" horiz-adv-x="892" d="M897 909l59 -30q-9 -15 -23 -33t-45 -53.5t-44 -51.5q-67 -83 -256 -286t-228 -246q64 0 108.5 -11.5t64 -24.5t47 -24.5t61.5 -11.5q25 0 44 4t44.5 16.5t52 41t54.5 73.5q34 0 51 -20q-69 -158 -125.5 -215t-126.5 -57q-92 0 -176 51q-85 53 -156 53q-18 0 -52 -28.5 t-65 -80.5q-18 2 -47 13q-18 3 -28 26q11 39 127 172l492 543q-27 -4 -64 -4q-25 0 -102.5 9t-127.5 9q-72 0 -106 -22t-66 -92q-39 0 -55 16q28 95 87.5 174.5t111.5 79.5t217 -27q134 -28 161 -28q53 0 111 65zM539 1169q8 40 43 69.5t75 29.5t63.5 -29.5t15.5 -69.5 t-43.5 -69t-75.5 -29t-63 29t-15 69z" />
<glyph unicode="&#x17d;" horiz-adv-x="1183" d="M1081 -4q-196 4 -247 4h-717q-33 0 -33 24q0 27 27 54l979 1108q19 22 22 37q5 16 -16 16h-453q-43 0 -78.5 -13t-60 -31t-50.5 -54.5t-41.5 -65t-41.5 -80.5l-58 11q54 136 111 342q30 -2 66.5 -14.5t87.5 -12.5h630q32 3 74.5 11.5t54.5 8.5q42 0 42 -16 q0 -36 -70 -115l-944 -1063q-21 -32 -23 -41q-3 -13 7.5 -19.5t35.5 -6.5h459q54 0 99 20t81 60t62 83t55 105l59 -10q-80 -197 -119 -342zM821 1427q-52 93 -162 195l41 41q109 -51 191 -125q128 79 248 125l20 -41q-121 -80 -250 -195h-88z" />
<glyph unicode="&#x17e;" horiz-adv-x="892" d="M897 909l59 -30q-9 -15 -23 -33t-45 -53.5t-44 -51.5q-67 -83 -256 -286t-228 -246q64 0 108.5 -11.5t64 -24.5t47 -24.5t61.5 -11.5q25 0 44 4t44.5 16.5t52 41t54.5 73.5q34 0 51 -20q-69 -158 -125.5 -215t-126.5 -57q-92 0 -176 51q-85 53 -156 53q-18 0 -52 -28.5 t-65 -80.5q-18 2 -47 13q-18 3 -28 26q11 39 127 172l492 543q-27 -4 -64 -4q-25 0 -102.5 9t-127.5 9q-72 0 -106 -22t-66 -92q-39 0 -55 16q28 95 87.5 174.5t111.5 79.5t217 -27q134 -28 161 -28q53 0 111 65zM591 1026q-53 126 -153 266l46 27q122 -106 180 -184 q94 80 259 184l33 -27q-167 -152 -263 -266h-102z" />
<glyph unicode="&#x17f;" horiz-adv-x="612" d="M-68 -307q58 0 93 -66q9 -18 19 -24t34 -6q33 0 54 15.5t41 59.5q26 57 43 129t27.5 149t38.5 252t63 363l37 197q4 23 -5 31.5t-37 10.5l-74 5q-10 23 -9 36.5t17 24.5q86 9 112 21q33 17 42 53q48 205 115 316q101 170 282 170q83 0 142 -44t59 -100q0 -42 -21.5 -67 t-62.5 -25q-33 0 -48 17t-17.5 41.5t-4.5 49t-17 41.5t-48 17q-68 0 -123.5 -96.5t-91.5 -272.5l-119 -592q-35 -173 -52.5 -256t-48 -205t-60.5 -195.5t-64 -119.5q-74 -100 -234 -100q-54 0 -101.5 28.5t-47.5 65.5q0 32 21 54t46 22z" />
<glyph unicode="&#x180;" horiz-adv-x="978" d="M330 111q23 -37 53.5 -51.5t79.5 -14.5q141 0 244.5 115t144.5 297q14 63 14 125q0 105 -45 169t-119 64q-22 0 -48.5 -3.5t-81 -24.5t-99.5 -58zM803 1130l-21 -79h-235l-60 -258q130 112 279 112q113 0 188.5 -85t75.5 -222q0 -43 -14 -115q-27 -118 -89 -216.5 t-140 -160.5t-163 -96.5t-165 -34.5q-125 0 -195 76q-37 -40 -82 -76l-39 11q21 63 43 159l209 906h-137l21 79h135l10 44q12 62 12 94q0 28 -10 39.5t-31 11.5l-67 -6q-5 -2 -7.5 1t-1.5 9l9 51q57 0 145 19q48 7 117 32h45l-70 -295h238z" />
<glyph unicode="&#x181;" horiz-adv-x="1259" d="M487 1260q-44 0 -83 -39t-48 -86q-3 -16 -2 -45.5t-2 -47.5q-7 -37 -31.5 -55t-52.5 -18q-30 0 -45.5 22t-9.5 53q9 45 38 93t72.5 90.5t107 70t132.5 27.5q12 0 34 -2t65 -2q40 0 122.5 2t116.5 2q76 0 136 -10.5t100 -28t67.5 -42.5t41.5 -52t19.5 -60t4 -61.5 t-7.5 -60.5q-17 -81 -84 -155t-152 -114v-4q130 -41 192.5 -130t36.5 -230q-11 -56 -34.5 -107.5t-68.5 -102.5t-106.5 -88t-154 -60t-205.5 -23q-100 0 -176.5 2t-103.5 2q-64 0 -252 -4l-2 4l8 39q0 16 16 16l60 4q65 5 86.5 19.5t31.5 66.5l201 1031q16 84 -68 84z M618 680l-102 -520q-6 -36 2.5 -55t42 -29t101.5 -10q108 0 185 20.5t121.5 60t67.5 84.5t35 107q9 56 7 106.5t-25 93.5t-60.5 74.5t-99 49.5t-139.5 18h-136zM713 1167l-82 -417h145q283 0 330 235q14 62 5 108t-28 77t-51 50t-64 27t-67 8q-52 0 -84.5 -3t-52 -7.5 t-30 -17.5t-14 -24t-7.5 -36z" />
<glyph unicode="&#x182;" horiz-adv-x="1163" d="M512 682l-113 -524q-4 -32 -4 -43q0 -33 30.5 -46.5t115.5 -13.5q89 0 162 20.5t120.5 52t82.5 74t52.5 82t26.5 81.5q10 38 10 79q0 45 -12 84.5t-39 75.5t-79 57t-124 21h-229zM1165 385q-34 -164 -171.5 -275t-311.5 -112l-164 -2l-227 4l-254 -4l-2 4l8 39 q0 16 18 16h52q108 0 127 92l219 1029q4 24 4 34q0 28 -19.5 42t-66.5 14h-60q-6 0 -9.5 2.5t-3.5 6t1 5.5l8 41l9 2l243 -2h688q-23 -157 -36 -350l-62 -10v12q0 266 -172 266h-281q-37 0 -58 -14t-28 -49l-88 -412h156q116 0 204.5 -17.5t142 -45.5t87.5 -67.5t46 -79 t12 -85.5q0 -38 -11 -84z" />
<glyph unicode="&#x183;" horiz-adv-x="917" d="M307 111q19 -36 48 -49t77 -13q131 0 226 113.5t133 294.5q33 153 -9.5 252.5t-132.5 99.5q-20 0 -44.5 -3.5t-75 -24.5t-91.5 -58zM662 1409h382l-34 -287l-52 -6q-1 39 -8 75.5t-21.5 71t-41 55.5t-62.5 21h-256l-118 -553q122 113 256 113q130 0 201.5 -117.5 t33.5 -298.5q-25 -118 -81.5 -215.5t-128.5 -159t-151 -95t-153 -33.5q-122 0 -182 71q-33 -38 -76 -76l-37 11q22 74 39 159l221 1039q15 57 12 85.5t-12 36.5t-31 9l-59 4q-9 0 -6 10l6 47q194 33 359 33z" />
<glyph unicode="&#x184;" horiz-adv-x="1122" d="M500 682l-103 -524q-11 -58 13.5 -80.5t109.5 -22.5q88 0 159.5 20.5t117 51.5t78.5 74.5t49 82.5t24 81q6 32 7 64.5t-4.5 69.5t-23.5 68.5t-46.5 58t-77.5 41.5t-113 15h-190zM395 965q18 90 -5.5 129.5t-94.5 62.5q-25 36 14 70q82 18 141 42.5t146 78.5q14 0 25 -5.5 t10 -15.5q-22 -82 -47 -215l-68 -348h213q97 0 171 -17t118 -47t72.5 -66.5t38 -81.5t9.5 -84.5t-8 -82.5q-19 -94 -79.5 -174.5t-135.5 -126.5q-88 -54 -183 -71t-234 -17q-48 0 -114.5 2t-92.5 2l-254 -4l-2 4l8 39q3 16 16 16l54 4q60 4 88 26.5t37 66.5z" />
<glyph unicode="&#x185;" horiz-adv-x="923" d="M326 133q46 -84 120 -84q131 0 227 115t134 297q33 154 -9.5 252t-133.5 98q-117 0 -213 -86zM582 1430q26 0 20 -21q-22 -82 -51 -215l-86 -406q117 111 258 111q130 0 201.5 -115.5t33.5 -296.5q-25 -118 -82.5 -216t-129.5 -160.5t-151 -96.5t-153 -34q-117 0 -184 73 q-8 -10 -74 -76q-20 0 -37 11q29 100 41 162l191 897q19 90 -2.5 129.5t-89.5 62.5q-24 35 14 70q80 18 137.5 42.5t143.5 78.5z" />
<glyph unicode="&#x186;" horiz-adv-x="1320" d="M905 1350q107 0 194 -26.5t146.5 -72.5t100 -110t59 -136.5t18.5 -154.5q0 -88 -18 -170q-46 -196 -176 -359t-301 -253.5t-340 -90.5q-85 0 -155 14.5t-107.5 31.5t-81.5 31.5t-84 15.5l33 338l63 6q1 -64 11.5 -115t36 -99t66 -79.5t106.5 -50.5t153 -19q51 0 114 20.5 t135.5 67.5t137 113t119.5 167t82 220q22 91 22 197q0 70 -12.5 132.5t-39.5 117t-67.5 94t-99.5 62t-131 22.5q-142 0 -266 -53.5t-261 -172.5l-40 29q137 137 286.5 210t296.5 73z" />
<glyph unicode="&#x187;" horiz-adv-x="1318" d="M1716 1522q60 0 60 -56q0 -4 -1 -10t-1 -8q-16 -72 -119 -72q-28 0 -43 -1t-42 -9t-43.5 -23.5t-34 -47t-28.5 -76.5v-5l-28 -296l-66 -9q-1 65 -11 116t-35.5 99t-66 79.5t-106 50t-152.5 18.5q-51 0 -114 -20.5t-135 -67.5t-136.5 -113t-119.5 -167t-82 -220 q-25 -103 -25 -195q0 -89 20.5 -165t62 -136t110.5 -94.5t159 -34.5q142 0 266 54t261 174l41 -31q-137 -137 -286.5 -209t-297.5 -72q-133 0 -235 40t-162.5 110t-90.5 157.5t-30 190.5q0 87 18 172q46 196 176 359t301 253.5t340 90.5q95 0 166.5 -17t128.5 -41t86 -30 q19 63 58 115.5t82 83t84 47t71 16.5z" />
<glyph unicode="&#x188;" horiz-adv-x="1009" d="M1137 877q-16 0 -50.5 9t-52.5 9q-67 0 -119 -74q29 -39 29 -88q0 -25 -4 -37q-9 -42 -37 -66t-61 -24t-54.5 15.5t-21.5 46.5q0 2 1 6t1 6q0 8 1 25.5t1 25.5q0 48 -23 76.5t-85 28.5q-103 0 -192.5 -100.5t-127.5 -264.5q-16 -75 -16 -133q0 -124 57.5 -198t153.5 -74 q125 0 264 149l28 -29q-93 -114 -179 -162.5t-181 -48.5q-148 0 -229.5 85.5t-81.5 230.5q0 60 16 135q50 213 197.5 346t316.5 133q119 0 189 -47q56 81 134.5 122.5t139.5 41.5q74 0 74 -55q0 -3 -1 -9.5t-1 -9.5q-7 -32 -31 -51.5t-55 -19.5z" />
</font>
</defs>
</svg>
